<?xml version="1.0" standalone="no"?>
<!DOCTYPE svg PUBLIC "-//W3C//DTD SVG 1.1//EN" "http://www.w3.org/Graphics/SVG/1.1/DTD/svg11.dtd" >
<svg xmlns="http://www.w3.org/2000/svg" xmlns:xlink="http://www.w3.org/1999/xlink" version="1.1">
<metadata>
Created by FontForge 20170731 at Mon Oct 23 15:55:59 2017
 By Aleksey,,,
Copyright 2011 The Alegreya Project Authors (https://github.com/huertatipografica/Alegreya)
</metadata>
<defs>
<font id="Alegreya-ExtraBold" horiz-adv-x="563" >
  <font-face 
    font-family="Alegreya ExtraBold"
    font-weight="800"
    font-stretch="normal"
    units-per-em="1000"
    panose-1="0 0 9 0 0 0 0 0 0 0"
    ascent="800"
    descent="-200"
    x-height="471"
    cap-height="650"
    bbox="-444 -329 1357 1060"
    underline-thickness="86"
    underline-position="-283"
    unicode-range="U+000D-FB02"
  />
<missing-glyph horiz-adv-x="641" 
d="M336 228l321 -321l-16 -16l-321 321l-321 -321l-16 16l321 321l-321 321l16 16l321 -321l321 321l16 -16z" />
    <glyph glyph-name="Idieresis" unicode="&#xa8;I" horiz-adv-x="367" 
d="M35 66q42 9 55.5 25t13.5 58l1 369q0 31 -7.5 41.5t-28.5 10.5q-15 0 -31 -2l-7 11l8 66l148 -1q28 0 89 3l66 3l-6 -76q-37 -5 -48.5 -15t-13.5 -39q-11 -213 -11 -377q0 -42 7 -55.5t29 -13.5q23 0 38 3l6 -8l-9 -73q-98 4 -156 4q-48 0 -151 -7zM37.5 712
q-17.5 18 -17.5 51q0 34 20.5 55t54.5 21q32 0 50 -18.5t18 -50.5q0 -34 -20.5 -55t-54.5 -21q-33 0 -50.5 18zM221.5 712q-17.5 18 -17.5 51q0 34 20.5 55t54.5 21q32 0 50 -18.5t18 -50.5q0 -34 -20.5 -55t-54.5 -21q-33 0 -50.5 18z" />
    <glyph glyph-name="Odieresis" unicode="&#xa8;O" horiz-adv-x="666" 
d="M99.5 72q-76.5 84 -76.5 235q0 108 39 186.5t113 120.5t175 42q142 0 218 -82t76 -234q0 -108 -40 -187.5t-114.5 -122t-175.5 -42.5q-138 0 -214.5 84zM426.5 139.5q30.5 48.5 30.5 144.5q0 132 -32.5 195t-99.5 63q-117 0 -117 -191q0 -132 32.5 -196t96.5 -64
q59 0 89.5 48.5zM183.5 712q-17.5 18 -17.5 51q0 34 20.5 55t54.5 21q32 0 50 -18.5t18 -50.5q0 -34 -20.5 -55t-54.5 -21q-33 0 -50.5 18zM367.5 712q-17.5 18 -17.5 51q0 34 20.5 55t54.5 21q32 0 50 -18.5t18 -50.5q0 -34 -20.5 -55t-54.5 -21q-33 0 -50.5 18z" />
    <glyph glyph-name="Yacute" unicode="&#xb4;Y" horiz-adv-x="625" 
d="M140 68q42 5 61.5 13t26.5 24.5t7 50.5v24q0 25 -6 46t-22 51l-102 195q-21 40 -44 61t-63 32l-4 5l9 76q16 0 58.5 -1.5t79.5 -1.5q31 0 90 3.5t78 4.5l6 -10l-7 -68q-28 -1 -40 -7.5t-12 -20.5q0 -13 25 -70t28 -65l20 -47h12l63 144q14 32 14 46q0 10 -10.5 14.5
t-35.5 5.5l-3 6l8 66q39 0 62 -1l81 -1q31 0 64 1.5t43 2.5l4 -7l-7 -72q-36 -15 -62 -44t-55 -83l-94 -181q-12 -24 -14.5 -47t-2.5 -77q0 -33 10.5 -46t37.5 -13q18 0 31.5 1t18.5 2l4 -6l-9 -79q-21 1 -76 3t-106 2q-37 0 -96.5 -4t-78.5 -6zM259 705l-17 57
q72 29 143 61t91 42l14 -6l30 -89l-6 -15q-21 -5 -93.5 -22t-146.5 -38z" />
    <glyph glyph-name="idieresis" unicode="&#xa8;i" horiz-adv-x="298" 
d="M28 64q29 4 43 18.5t14 42.5v196q0 33 -9.5 45t-35.5 12q-7 0 -14 -1.5t-9 -2.5l7 69q65 8 130 19.5t84 15.5l11 -19q-11 -22 -17.5 -115.5t-6.5 -234.5q0 -21 6 -29.5t22 -8.5q8 0 16 1t11 1l2 -4l-10 -73q-13 1 -48.5 2.5t-73.5 1.5q-33 0 -76 -4.5t-56 -6.5zM21.5 553
q-16.5 17 -16.5 47q0 32 19 51.5t51 19.5q30 0 46.5 -17t16.5 -47q0 -32 -19.5 -51.5t-50.5 -19.5q-30 0 -46.5 17zM178 553q-17 17 -17 47q0 32 19.5 51.5t51.5 19.5q30 0 46 -17t16 -47q0 -32 -19 -51.5t-50 -19.5q-30 0 -47 17z" />
    <glyph glyph-name="odieresis" unicode="&#xa8;o" horiz-adv-x="506" 
d="M89.5 51q-59.5 63 -59.5 169q0 78 30.5 136.5t86 90t129.5 31.5q103 0 161 -61t58 -171q0 -78 -30 -136.5t-86 -90t-130 -31.5q-100 0 -159.5 63zM318.5 105q16.5 28 16.5 91q0 95 -19.5 138.5t-59.5 43.5q-36 0 -52.5 -28t-16.5 -89q0 -97 19.5 -140.5t59.5 -43.5
q36 0 52.5 28zM114.5 573q-17.5 18 -17.5 51q0 34 20.5 55t54.5 21q32 0 50 -18.5t18 -50.5q0 -34 -20.5 -55t-54.5 -21q-33 0 -50.5 18zM298.5 573q-17.5 18 -17.5 51q0 34 20.5 55t54.5 21q32 0 50 -18.5t18 -50.5q0 -34 -20.5 -55t-54.5 -21q-33 0 -50.5 18z" />
    <glyph glyph-name="yacute" unicode="&#xb4;y" horiz-adv-x="474" 
d="M27 -224q-22 18 -39.5 40.5t-17.5 34.5l9 15q67 8 118.5 39t84.5 82l-22 61q-31 84 -66 176t-52 128q-10 22 -23 30.5t-33 10.5l-2 5l7 68h76q47 0 107 3t60 4l2 -5l-9 -71q-26 -1 -34.5 -6.5t-8.5 -17.5q0 -19 24.5 -105.5t33.5 -116.5h14q78 205 78 225q0 10 -5.5 14
t-20.5 4h-25l-4 6l10 69q11 -1 42 -2t66 -1h96l-8 -72q-22 -5 -31 -13.5t-17 -31.5l-127 -311q-116 -280 -249 -280q-12 0 -34 18zM204 526l-37 47q52 52 103.5 105.5t66.5 69.5h14l66 -80l-1 -15q-17 -11 -76 -49.5t-118 -82.5z" />
    <glyph glyph-name="Itilde" unicode="&#x7e;I" horiz-adv-x="367" 
d="M35 66q42 9 55.5 25t13.5 58l1 369q0 31 -7.5 41.5t-28.5 10.5q-15 0 -31 -2l-7 11l8 66l148 -1q28 0 89 3l66 3l-6 -76q-37 -5 -48.5 -15t-13.5 -39q-11 -213 -11 -377q0 -42 7 -55.5t29 -13.5q23 0 38 3l6 -8l-9 -73q-98 4 -156 4q-48 0 -151 -7zM9 749v13l77 107l17 4
q17 0 71 -18q48 -16 59 -16t25 12.5t25 26.5t14 18h13l47 -44v-13l-77 -107l-17 -4q-17 0 -69 18q-50 16 -61 16t-25 -12.5t-24.5 -26.5l-13.5 -18h-13z" />
    <glyph glyph-name="itilde" unicode="&#x7e;i" horiz-adv-x="298" 
d="M28 64q29 4 43 18.5t14 42.5v196q0 33 -9.5 45t-35.5 12q-7 0 -14 -1.5t-9 -2.5l7 69q65 8 130 19.5t84 15.5l11 -19q-11 -22 -17.5 -115.5t-6.5 -234.5q0 -21 6 -29.5t22 -8.5q8 0 16 1t11 1l2 -4l-10 -73q-13 1 -48.5 2.5t-73.5 1.5q-33 0 -76 -4.5t-56 -6.5zM-23 577
v13l77 107l17 4q17 0 71 -18q48 -16 59 -16t25 12.5t25 26.5t14 18h13l47 -44v-13l-77 -107l-17 -4q-17 0 -69 18q-50 16 -61 16t-25 -12.5t-24.5 -26.5l-13.5 -18h-13z" />
    <glyph glyph-name="Utilde" unicode="&#x7e;U" horiz-adv-x="643" 
d="M132.5 40.5q-58.5 52.5 -58.5 161.5v314q0 32 -6 43t-25 11q-9 0 -18 -1t-12 -1l-2 4l9 75q15 -1 60 -2t97 -1q25 0 68 2t57 3l-8 -78q-29 -3 -40 -14.5t-13 -36.5l-6 -291q0 -64 27 -99.5t77 -35.5q51 0 76 27.5t25 84.5l-2 310q-1 32 -7 43t-23 11q-9 0 -17.5 -1
t-11.5 -1l-2 4l9 75q13 0 48.5 -1.5t69.5 -1.5q35 0 76.5 2t53.5 3l-7 -77q-35 -9 -44.5 -17t-9.5 -30v-299q0 -116 -67 -177t-194 -61q-121 0 -179.5 52.5zM157 752v13l77 107l17 4q17 0 71 -18q48 -16 59 -16t25 12.5t25 26.5t14 18h13l47 -44v-13l-77 -107l-17 -4
q-17 0 -69 18q-50 16 -61 16t-25 -12.5t-24.5 -26.5l-13.5 -18h-13z" />
    <glyph glyph-name="utilde" unicode="&#x7e;u" horiz-adv-x="549" 
d="M59 367q-7 10 -24 10q-9 0 -16.5 -1t-9.5 -1l7 69q59 8 121 19t80 15l11 -19q-11 -24 -19 -104.5t-8 -170.5q0 -73 54 -73q15 0 31 7t38 21v191q0 28 -7.5 36.5t-32.5 9.5h-14l10 68q59 7 121.5 17.5t80.5 13.5l12 -19q-13 -23 -21.5 -112.5t-8.5 -198.5q0 -17 9 -27.5
t24 -10.5q13 0 27 6t14 7l16 -23q-4 -7 -21 -30t-42 -47t-49 -32q-96 0 -108 75l-9 5q-35 -36 -62 -57.5t-37 -21.5q-82 0 -124.5 33.5t-42.5 96.5l7 213q0 25 -7 35zM96 577v13l77 107l17 4q17 0 71 -18q48 -16 59 -16t25 12.5t25 26.5t14 18h13l47 -44v-13l-77 -107
l-17 -4q-17 0 -69 18q-50 16 -61 16t-25 -12.5t-24.5 -26.5l-13.5 -18h-13z" />
    <glyph glyph-name="uni1EBC" unicode="&#x7e;E" horiz-adv-x="599" 
d="M571 200q-18 -95 -28 -194l-12 -13q-180 7 -315 7q-91 0 -189 -10l8 78q40 6 54.5 24.5t14.5 62.5l1 361q0 32 -6 43t-24 11q-15 0 -29 -2l-9 11l9 68h22q159 -3 182 -3q218 0 306 12l10 -13q-8 -39 -14.5 -93t-8.5 -96l-110 -7l2 38q0 27 -8.5 39t-32 16.5t-74.5 4.5
q-29 0 -37 -5t-8 -25l-7 -138l89 -1q24 0 113 7l10 -11l-14 -98q-99 3 -126 3q-21 0 -45 -2.5t-31 -3.5l-2 -117q0 -28 4 -40t15.5 -16t38.5 -4q56 0 82.5 8t38 30.5t18.5 72.5l103 7zM137 726v13l79 104l17 4q19 0 81 -18q5 -1 31.5 -8.5t38.5 -7.5q11 0 25.5 12t26 25
t14.5 17h13l48 -44v-12l-80 -104l-16 -4q-16 0 -45.5 8t-35.5 9q-58 16 -71 16q-11 0 -25.5 -12t-26 -25t-14.5 -17h-13z" />
    <glyph glyph-name="uni1EBD" unicode="&#x7e;e" horiz-adv-x="470" 
d="M82.5 50.5q-61.5 62.5 -61.5 173.5q0 73 31 131t86.5 90.5t126.5 32.5q178 0 178 -183q0 -31 -7 -61l-12 -11h-249q2 -60 32.5 -91.5t83.5 -31.5t117 29l9 -4l18 -60q-38 -29 -89 -53t-91 -24q-111 0 -172.5 62.5zM286 294q10 2 13 5.5t3 15.5q0 70 -54 70q-71 0 -75 -98
zM80 577v13l77 107l17 4q17 0 71 -18q48 -16 59 -16t25 12.5t25 26.5t14 18h13l47 -44v-13l-77 -107l-17 -4q-17 0 -69 18q-50 16 -61 16t-25 -12.5t-24.5 -26.5l-13.5 -18h-13z" />
    <glyph glyph-name="uni1EF8" unicode="&#x7e;Y" horiz-adv-x="625" 
d="M140 68q42 5 61.5 13t26.5 24.5t7 50.5v24q0 25 -6 46t-22 51l-102 195q-21 40 -44 61t-63 32l-4 5l9 76q16 0 58.5 -1.5t79.5 -1.5q31 0 90 3.5t78 4.5l6 -10l-7 -68q-28 -1 -40 -7.5t-12 -20.5q0 -13 25 -70t28 -65l20 -47h12l63 144q14 32 14 46q0 10 -10.5 14.5
t-35.5 5.5l-3 6l8 66q39 0 62 -1l81 -1q31 0 64 1.5t43 2.5l4 -7l-7 -72q-36 -15 -62 -44t-55 -83l-94 -181q-12 -24 -14.5 -47t-2.5 -77q0 -33 10.5 -46t37.5 -13q18 0 31.5 1t18.5 2l4 -6l-9 -79q-21 1 -76 3t-106 2q-37 0 -96.5 -4t-78.5 -6zM170 726v13l79 104l17 4
q19 0 81 -18q5 -1 31.5 -8.5t38.5 -7.5q11 0 25.5 12t26 25t14.5 17h13l48 -44v-12l-80 -104l-16 -4q-16 0 -45.5 8t-35.5 9q-58 16 -71 16q-11 0 -25.5 -12t-26 -25t-14.5 -17h-13z" />
    <glyph glyph-name="uni1EF9" unicode="&#x7e;y" horiz-adv-x="474" 
d="M27 -224q-22 18 -39.5 40.5t-17.5 34.5l9 15q67 8 118.5 39t84.5 82l-22 61q-31 84 -66 176t-52 128q-10 22 -23 30.5t-33 10.5l-2 5l7 68h76q47 0 107 3t60 4l2 -5l-9 -71q-26 -1 -34.5 -6.5t-8.5 -17.5q0 -19 24.5 -105.5t33.5 -116.5h14q78 205 78 225q0 10 -5.5 14
t-20.5 4h-25l-4 6l10 69q11 -1 42 -2t66 -1h96l-8 -72q-22 -5 -31 -13.5t-17 -31.5l-127 -311q-116 -280 -249 -280q-12 0 -34 18zM92 577v13l77 107l17 4q17 0 71 -18q48 -16 59 -16t25 12.5t25 26.5t14 18h13l47 -44v-13l-77 -107l-17 -4q-17 0 -69 18q-50 16 -61 16
t-25 -12.5t-24.5 -26.5l-13.5 -18h-13z" />
    <glyph glyph-name="fi" unicode="fi" horiz-adv-x="639" 
d="M371 64q30 5 42 20.5t12 51.5v185q0 35 -10 46t-44 11h-142l-1 -258q0 -43 36 -43q22 0 39 1t23 1l4 -5l-10 -78q-18 1 -64.5 2.5t-89.5 1.5q-34 0 -81 -3t-61 -4l8 73q31 3 42.5 17t11.5 49v205q-2 23 -14 31t-51 10l-4 6l7 59l62 10q0 134 74 211.5t207 77.5
q68 0 132 -26l6 -19q-3 -9 -14.5 -38.5t-25.5 -71.5l-13 -4q0 2 -17 15.5t-42.5 25.5t-55.5 12q-41 0 -63.5 -13t-32.5 -43.5t-10 -84.5l-1 -43q138 0 197 4.5t152 21.5l10 -19q-11 -22 -17.5 -115.5t-6.5 -234.5q0 -21 6.5 -29.5t21.5 -8.5q8 0 16 1t11 1l3 -4l-11 -73
q-13 1 -48.5 2.5t-72.5 1.5q-32 0 -74 -4.5t-55 -6.5z" />
    <glyph glyph-name="fl" unicode="fl" horiz-adv-x="621" 
d="M237 87.5q9 -10.5 28 -10.5q21 0 38 1t23 1l4 -5l-10 -78q-18 1 -64.5 2.5t-89.5 1.5q-36 0 -82 -3t-60 -4l8 73q29 3 41.5 16t12.5 40v216q-2 23 -14 30.5t-51 9.5l-4 6l7 59l62 10v10q0 85 32.5 148t91 97t137.5 34q27 0 56 -5t51 -14q48 6 81 11.5t43 7.5l8 -22
q-15 -16 -24 -183t-9 -428q0 -22 6 -30.5t21 -8.5l33 1l2 -6l-11 -69q-14 1 -51.5 2.5t-75.5 1.5q-33 0 -70.5 -3t-48.5 -4l9 72q26 4 36 16.5t10 39.5v463l-1 20q-22 15 -47 23.5t-47 8.5q-49 0 -68 -31t-19 -110l-1 -45q45 0 80 1t44 2l4 -5l-10 -76q-9 1 -42 2t-77 1
l-1 -255q0 -22 9 -32.5z" />
    <glyph glyph-name="f_j" unicode="fj" horiz-adv-x="631" 
d="M350 -210l2 13q42 42 57.5 90t15.5 142v286q0 26 -5 37.5t-16.5 15.5t-37.5 4h-137l-1 -258q0 -43 36 -43q22 0 39 1t23 1l4 -5l-10 -78q-18 1 -64.5 2.5t-89.5 1.5q-36 0 -82 -3t-60 -4l8 73q29 3 41.5 16t12.5 40v215q-1 23 -14 31t-51 10l-4 6l7 59l62 10
q0 88 33.5 153t96.5 100t148 35q26 0 49 -3q24 -2 43 -7t29.5 -9.5t13.5 -5.5l6 -19q-3 -9 -14.5 -38.5t-25.5 -71.5l-13 -4q0 2 -17 15.5t-42.5 25.5t-55.5 12q-47 0 -70 -17.5t-30 -55t-7 -111.5q133 0 194 4.5t153 21.5l11 -19q-23 -49 -23 -473q0 -70 -47.5 -132
t-129.5 -100z" />
    <glyph glyph-name="T_h.liga" unicode="Th" horiz-adv-x="1046" 
d="M1028 68l-10 -72q-68 4 -118 4q-42 0 -116 -6l7 73q21 5 31 16.5t10 35.5l3 158q1 41 -12 60t-43 19q-15 0 -36 -10t-39 -24q-1 -65 -1 -211q0 -22 6 -31t21 -9l20 2l3 -7l-11 -70q-64 4 -116 4q-58 0 -118 -4l9 72q26 3 35.5 14.5t9.5 38.5v397q-29 18 -66 23.5
t-122 6.5q-8 -206 -8 -416q0 -28 11.5 -41.5t35.5 -13.5q21 0 46 3l4 -6l-8 -79q-135 5 -174 5q-64 0 -181 -7l8 77q44 4 64 12t27.5 26.5t7.5 57.5v382q-44 -1 -63.5 -10t-27.5 -34.5t-14 -88.5l-100 -7q9 142 10 235l12 12l108 -11h343l77 7l-5 49l9 16l107 16l64 10
l9 -22q-11 -12 -19 -98t-12 -234q34 33 71 61.5t54 28.5q76 0 116.5 -33.5t40.5 -96.5q0 -19 -10 -111q-10 -100 -10 -124q0 -23 6.5 -32.5t23.5 -9.5l28 1z" />
    <glyph glyph-name="gamma_gamma" unicode="&#x3b3;&#x3b3;" horiz-adv-x="849" 
d="M639 4q11 -115 9 -225l-65 -17l-26 3l-53 38q-2 65 9.5 112.5t49.5 131.5q-6 89 -22 159q-11 46 -21 68.5t-24.5 32.5t-40.5 10q-8 0 -30 -2q-75 -135 -166 -311q11 -115 9 -225l-65 -17l-25 3l-54 38q-2 65 9.5 112.5t49.5 130.5q-6 100 -22 160q-11 46 -20.5 68.5
t-24 32.5t-41.5 10q-23 0 -59 -6l-15 16q9 86 64 144q112 0 163 -250l4 -22l13 -1q12 35 32 84t30 76l33 82l42 34l63 -3q112 0 163 -250l4 -22l13 -1q30 86 92 249l10 26l16 1q53 -22 108 -80q-92 -159 -212 -390z" />
    <glyph glyph-name="lambda_lambda" unicode="&#x3bb;&#x3bb;" horiz-adv-x="864" 
d="M872 124q-9 -39 -28.5 -73t-46.5 -59q-50 0 -75.5 23t-41.5 83l-49 178h-11q-51 -133 -105 -249l-43 -35h-65q-50 1 -75.5 23.5t-41.5 82.5l-49 178h-11q-65 -165 -120 -284l-13 -3l-101 47l-3 13q95 188 197 410l-17 63q-8 30 -23.5 44t-42.5 14q-30 0 -82 -18l-15 17
q3 98 65 158q66 0 110 -44.5t68 -136.5l91 -344q12 -45 28 -60.5t55 -15.5q79 161 153 323l-17 63q-8 30 -23.5 44t-42.5 14q-29 0 -82 -18l-15 17q3 97 64 158q67 0 111 -44.5t68 -136.5l90 -344q12 -43 27.5 -59t51.5 -16q9 0 47 4z" />
    <glyph glyph-name="Gtilde" unicode="&#x7e;G" horiz-adv-x="648" 
d="M163 27q-68 38 -104 109.5t-36 170.5q0 166 93.5 257.5t264.5 91.5q40 0 84.5 -5.5t75.5 -11.5t40 -8l9 -16q-2 -7 -7.5 -32.5t-11.5 -68t-9 -91.5l-121 -7q0 4 1 18.5t1 36.5q0 40 -19.5 55.5t-67.5 15.5q-78 0 -113 -47t-35 -153q0 -119 36 -179.5t105 -60.5
q22 0 39.5 4.5t27 9t11.5 6.5v81q0 27 -8 36t-31 9l-44 -1l-7 11l12 81l145 -1q32 0 65.5 2t43.5 3l8 -47q-21 -12 -30.5 -28.5t-12.5 -47t-3 -94.5q0 -59 7 -86l-10 -14q0 -1 -32.5 -11t-85.5 -18t-120 -8q-93 0 -161 38zM165 726v13l79 104l17 4q19 0 81 -18
q5 -1 31.5 -8.5t38.5 -7.5q11 0 25.5 12t26 25t14.5 17h13l48 -44v-12l-80 -104l-16 -4q-16 0 -45.5 8t-35.5 9q-58 16 -71 16q-11 0 -25.5 -12t-26 -25t-14.5 -17h-13z" />
    <glyph glyph-name="gtilde" unicode="&#x7e;g" horiz-adv-x="516" 
d="M432 408l-4 -6q39 -42 39 -98q0 -51 -28.5 -91.5t-79.5 -63.5t-116 -23q-38 0 -67 7q-16 -16 -16 -26q0 -18 29 -25.5t89 -13.5q67 -6 112 -15.5t77.5 -34t32.5 -69.5q0 -49 -39 -93t-102.5 -71t-132.5 -27q-85 0 -137.5 40t-52.5 105q24 23 100 65v6q-45 9 -70.5 36
t-29.5 69q33 36 82 69v8q-36 21 -56 56.5t-20 80.5q0 54 27.5 96.5t77 66t112.5 23.5q17 0 62 -5q30 -4 43 -4q41 2 143 35l6 -5l-13 -87q-43 -5 -68 -5zM321 294q0 46 -18 72.5t-53 26.5q-29 0 -44.5 -21.5t-15.5 -70.5q0 -45 16.5 -71t51.5 -26q63 0 63 90zM190.5 -68
q-7.5 -16 -7.5 -31q0 -27 21.5 -41.5t61.5 -14.5q43 0 70 17t27 45q0 14 -10.5 21t-41 13.5t-102.5 17.5q-11 -11 -18.5 -27zM99 577v13l77 107l17 4q17 0 71 -18q48 -16 59 -16t25 12.5t25 26.5t14 18h13l47 -44v-13l-77 -107l-17 -4q-17 0 -69 18q-50 16 -61 16t-25 -12.5
t-24.5 -26.5l-13.5 -18h-13z" />
    <glyph glyph-name=".notdef" horiz-adv-x="641" 
d="M336 228l321 -321l-16 -16l-321 321l-321 -321l-16 16l321 321l-321 321l16 16l321 -321l321 321l16 -16z" />
    <glyph glyph-name="uni0000" horiz-adv-x="0" 
 />
    <glyph glyph-name="uni0000" horiz-adv-x="0" 
 />
    <glyph glyph-name="nonmarkingreturn" unicode="&#xd;" horiz-adv-x="160" 
 />
    <glyph glyph-name="space" unicode=" " horiz-adv-x="160" 
 />
    <glyph glyph-name="exclam" unicode="!" horiz-adv-x="284" 
d="M87 248l-27 419l15 19l156 24l20 -21l-66 -444l-81 -13zM66 12q-21 22 -21 62q0 41 24 66t66 25q39 0 60.5 -22.5t21.5 -61.5q0 -41 -24.5 -66t-65.5 -25q-40 0 -61 22z" />
    <glyph glyph-name="quotedbl" unicode="&#x22;" horiz-adv-x="332" 
d="M41 410q1 52 -1 106t-4.5 85.5t-3.5 40.5l115 14l8 -11q-3 -19 -13.5 -84.5t-26.5 -133.5l-58 -22zM197 410q1 52 -1 106t-4.5 85.5t-3.5 40.5l115 14l8 -11q-3 -19 -13.5 -84.5t-26.5 -133.5l-58 -22z" />
    <glyph glyph-name="numbersign" unicode="#" horiz-adv-x="539" 
d="M80 40l24 124l-89 -1l-7 13l15 84l97 -1l9 49l7 38h-88l-7 12l14 84l96 -1l23 130l88 8l12 -6l-27 -132h88l23 130l87 8l12 -6l-27 -130l92 2l6 -13l-12 -85h-103l-4 -23l-12 -64l92 2l6 -13l-12 -84l-101 -1l-22 -120l-85 -12l-11 8l23 124l-49 1l-40 -1l-21 -120
l-85 -12zM275 276l36 16l-15 32l-9 23l-35 -12h-25l-7 -33h16l10 -44z" />
    <glyph glyph-name="dollar" unicode="$" horiz-adv-x="470" 
d="M389.5 45.5q-51.5 -41.5 -141.5 -51.5l-17 -145l-87 -10l-7 6l18 148q-32 3 -59 9.5t-42 12.5t-19 8l-9 13q3 13 9.5 54t7.5 75l92 7q0 -47 18.5 -67t59.5 -20q31 0 48.5 10.5t17.5 28.5q0 21 -21.5 35t-68.5 33l-29 12q-60 26 -94 58.5t-34 85.5q0 62 49 104.5t133 54.5
l16 140l88 11l6 -9l-16 -139q32 -2 58 -6.5t41.5 -8.5t19.5 -5l9 -15q-3 -11 -10.5 -51t-11.5 -84l-84 -6l-10 6l1 16q0 57 -67 57q-27 0 -44.5 -11t-17.5 -29q0 -23 24.5 -37t81.5 -37q67 -28 105 -59.5t38 -87.5q0 -65 -51.5 -106.5z" />
    <glyph glyph-name="percent" unicode="%" horiz-adv-x="732" 
d="M83 -62l-6 15q20 29 84.5 126t117.5 181l264 419l72 -28l9 -21q-29 -45 -108.5 -166.5t-159.5 -244.5q-69 -109 -124 -196t-73 -115zM49 346q-38 45 -38 125q0 85 43.5 135t117.5 50q70 0 107 -45t37 -123q0 -85 -42.5 -136t-117.5 -51q-69 0 -107 45zM225 429
q20 13 20 43q0 31 -22.5 48t-65.5 17q-76 0 -76 -56q0 -33 23 -49t63 -16q38 0 58 13zM461 33q-38 45 -38 125q0 85 43.5 135t117.5 50q70 0 107 -45t37 -123q0 -85 -42.5 -136t-117.5 -51q-69 0 -107 45zM637 116.5q20 12.5 20 42.5q0 31 -22.5 48t-65.5 17q-76 0 -76 -56
q0 -33 22.5 -48.5t63.5 -15.5q38 0 58 12.5z" />
    <glyph glyph-name="ampersand" unicode="&#x26;" horiz-adv-x="729" 
d="M455 60q-44 -36 -91 -54t-103 -18q-103 0 -164.5 46t-61.5 127q0 54 27 90.5t60.5 56.5t33.5 17v9q-40 44 -59 79t-19 75q0 49 28.5 87.5t82 59.5t125.5 21q69 0 145 -22l4 -19l-50 -99h-21q-47 43 -104 43q-71 0 -71 -64q0 -36 19 -67t68 -72l176 -149q12 35 12 71
q0 42 -11.5 60.5t-36.5 18.5q-18 0 -74 -7l-15 82q0 3 19.5 7.5t49.5 5.5l204 12q84 6 85 11l16 -22l-20 -60q-6 -16 -22.5 -23.5t-46.5 -7.5h-67l-4 -7q7 -12 11 -30t4 -35q0 -67 -41 -130l136 -115v-16q-20 -18 -48 -38.5t-51 -33.5q-31 25 -125 110zM396 113l-186 166
q-42 -37 -42 -89q0 -106 129 -106q49 0 99 29z" />
    <glyph glyph-name="quotesingle" unicode="'" horiz-adv-x="176" 
d="M41 410q1 52 -1 106t-4.5 85.5t-3.5 40.5l115 14l8 -11q-3 -19 -13.5 -84.5t-26.5 -133.5l-58 -22z" />
    <glyph glyph-name="parenleft" unicode="(" horiz-adv-x="299" 
d="M179 -117.5q-48 35.5 -86 104t-38 176.5v173q0 109 39 178.5t87.5 105.5t48.5 29h13l40 -53l-1 -8q0 5 -27 -22t-48.5 -80t-21.5 -135v-173q0 -90 22.5 -149t50.5 -90.5t28 -25.5v-9l-50 -50h-9q0 -7 -48 28.5z" />
    <glyph glyph-name="parenright" unicode=")" horiz-adv-x="298" 
d="M15 -93l1 8q0 -5 27 22t49 80t22 135v173q0 90 -22.5 149t-50.5 90.5t-28 25.5v9l49 50h10q0 7 47.5 -28.5t85.5 -104t38 -176.5v-173q0 -109 -38.5 -178.5t-87 -105.5t-48.5 -29h-13z" />
    <glyph glyph-name="asterisk" unicode="*" horiz-adv-x="392" 
d="M166 618q-1 36 -3.5 70.5t-3.5 44.5q8 2 35 8t51 6l7 -9q-2 -9 -10.5 -43t-22.5 -76l-45 -5zM69 578q-30 8 -40 10q0 12 2.5 37.5t10.5 47.5l10 3q8 -4 38 -22.5t65 -44.5l-8 -45l-8 -6q-40 12 -70 20zM229 602l3 11q39 14 68 25t38 15q2 -3 10 -14.5t17 -29t14 -33.5
l-7 -8q-9 -1 -44.5 -4t-79.5 -2zM247 401q-4 8 -17.5 40t-26.5 75l33 32h10q21 -28 42.5 -54.5t28.5 -34.5q0 -2 -20 -25t-40 -37zM110 424.5q-13 4.5 -30 13t-31 18.5v11q7 7 33.5 29.5t62.5 48.5l40 -22l3 -8q-20 -29 -38 -58.5t-23 -37.5q-4 1 -17 5.5z" />
    <glyph glyph-name="plus" unicode="+" horiz-adv-x="506" 
d="M192 30v60t1 105q-61 -1 -107.5 -1h-61.5l-8 11l16 109l161 -1l1 171l106 11l14 -7q-1 -17 -3 -72t-3 -103q60 2 109 3.5t66 2.5l6 -13l-11 -110l-170 -1l1 -157l-105 -16z" />
    <glyph glyph-name="comma" unicode="," horiz-adv-x="255" 
d="M14 -96v20q30 22 49 52.5t19 58.5q0 20 -8.5 40t-21.5 34l3 14q23 18 46 28.5t43 10.5q33 0 53.5 -25.5t20.5 -68.5q0 -52 -44.5 -106t-114.5 -95z" />
    <glyph glyph-name="hyphen" unicode="-" horiz-adv-x="341" 
d="M42 201l9 90l160 18q37 4 55 6.5t22 3.5l11 -15l-11 -92l-234 -26z" />
    <glyph glyph-name="period" unicode="." horiz-adv-x="258" 
d="M64 12q-21 22 -21 62q0 41 24 66t66 25q39 0 60.5 -22.5t21.5 -61.5q0 -41 -24.5 -66t-65.5 -25q-40 0 -61 22z" />
    <glyph glyph-name="slash" unicode="/" horiz-adv-x="329" 
d="M13 -97q9 29 37.5 128.5t52.5 194.5l115 449h97l14 -17q-13 -46 -48 -175.5t-72 -267.5q-31 -120 -54 -208.5t-30 -116.5h-102z" />
    <glyph glyph-name="zero" unicode="0" horiz-adv-x="487" 
d="M76.5 54q-55.5 66 -55.5 184q0 83 29 145t82.5 95.5t124.5 33.5q98 0 153.5 -65.5t55.5 -182.5q0 -84 -28.5 -146.5t-81.5 -96t-124 -33.5q-100 0 -155.5 66zM341.5 169.5q32.5 25.5 32.5 73.5q0 51 -36 80t-101 29q-60 0 -92 -26.5t-32 -74.5q0 -50 36 -78.5t99 -28.5
q61 0 93.5 25.5z" />
    <glyph glyph-name="one" unicode="1" horiz-adv-x="366" 
d="M31 60q50 5 69.5 22.5t19.5 59.5v209q0 34 -10.5 45.5t-38.5 11.5q-16 0 -30 -1.5t-19 -2.5l-7 8l7 65q73 7 125 14q48 6 78 10.5t47 6.5l27 4l13 -35q-17 -14 -26 -30.5t-13 -45.5q-13 -95 -13 -260q0 -36 9.5 -51t32.5 -15q17 0 30 1t17 1l4 -5l-13 -77q-16 1 -66 3
t-82 2q-42 0 -97 -4.5t-72 -6.5z" />
    <glyph glyph-name="two" unicode="2" horiz-adv-x="488" 
d="M82 113q80 92 111 140.5t31 80.5q0 27 -14.5 41t-41.5 14q-28 0 -56 -19t-51 -52h-16l-20 86q44 52 97.5 80t108.5 28q74 0 119.5 -37t45.5 -96q0 -33 -15 -65t-51.5 -77.5t-108.5 -120.5l4 -8h70q43 0 62 19.5t27 71.5l93 7q-4 -20 -14 -85t-14 -117l-15 -14
q-41 2 -164.5 6t-184.5 4l-69 -8l-6 40z" />
    <glyph glyph-name="three" unicode="3" horiz-adv-x="438" 
d="M32 -72.5q-19 25.5 -24 89.5l17 18q38 -15 89 -15q58 0 94.5 22t36.5 57q0 36 -32 53t-101 17l-11 12l-8 73l65 14q31 14 49.5 37t18.5 49q0 22 -15.5 35t-39.5 13q-23 0 -51.5 -13t-55.5 -36l-13 -1l-26 84q35 27 92.5 51.5t102.5 24.5q71 0 114 -32.5t43 -85.5
q0 -43 -30 -79.5t-81 -55.5v-9q68 -19 104.5 -53.5t36.5 -81.5q0 -51 -45.5 -100.5t-117.5 -81t-147 -31.5q-46 0 -65 25.5z" />
    <glyph glyph-name="four" unicode="4" horiz-adv-x="479" 
d="M235 -87q1 13 2.5 54.5t3.5 94.5q-120 3 -237 3l1 41q1 14 1 40l261 364q1 0 3 1t4 1l107 -11v-337h77l9 -13l-10 -95l-75 2q2 -50 3.5 -86.5t2.5 -47.5l-9 -10l-136 -12zM241 164v156h-10l-109 -156h119z" />
    <glyph glyph-name="five" unicode="5" horiz-adv-x="425" 
d="M18 -72.5q-20 25.5 -24 89.5l17 18q37 -15 88 -15q58 0 96.5 22t38.5 57t-40 54.5t-140 32.5l-9 11q9 86 14.5 171.5t6.5 110.5l8 8l195 7q29 1 42.5 9t20.5 30l65 5l-27 -160l-15 -16q-15 1 -70 4.5t-121 3.5l-8 -73q122 -22 179 -60.5t57 -105.5q0 -57 -45.5 -110.5
t-118 -86t-146.5 -32.5q-44 0 -64 25.5z" />
    <glyph glyph-name="six" unicode="6" horiz-adv-x="470" 
d="M405 320.5q46 -47.5 46 -124.5q0 -62 -28 -109.5t-78.5 -73t-117.5 -25.5q-91 0 -146 60t-55 159q0 87 44.5 166.5t125 138.5t183.5 87l11 -7l25 -65q-155 -68 -213 -178l8 -11q46 24 75 30q74 0 120 -47.5zM312 171q0 44 -20 70t-54 26q-30 0 -69 -22q-3 -21 -3 -43
q0 -56 20 -87t56 -31q70 0 70 87z" />
    <glyph glyph-name="seven" unicode="7" horiz-adv-x="430" 
d="M89 -66l-11 26l212 420l-117 -9q-32 -3 -47.5 -10t-23.5 -23.5t-14 -51.5l-69 -6q2 21 9 89.5t10 129.5l6 5q10 -1 46.5 -2.5t75.5 -1.5h220l46 -57q-63 -133 -100.5 -219.5t-82.5 -195.5l-34 -126h-21z" />
    <glyph glyph-name="eight" unicode="8" horiz-adv-x="477" 
d="M125 6q-44 18 -69.5 51t-25.5 76q0 53 30.5 87t73.5 53q-43 29 -68 65.5t-25 87.5q0 47 27.5 86.5t75.5 63t107 23.5q48 0 90 -18.5t66.5 -51t24.5 -73.5q0 -47 -25 -79.5t-61 -51.5q45 -27 71 -61.5t26 -85.5q0 -53 -28.5 -96.5t-79 -68.5t-112.5 -25q-54 0 -98 18z
M305 432q0 34 -18 53t-48 19q-27 0 -44 -16t-17 -40q0 -28 23 -45.5t73 -42.5q31 31 31 72zM287.5 94q19.5 18 19.5 47q0 20 -14.5 36t-32 26t-64.5 34q-18 -16 -29.5 -33.5t-11.5 -43.5q0 -36 23 -60t58 -24q32 0 51.5 18z" />
    <glyph glyph-name="nine" unicode="9" horiz-adv-x="468" 
d="M349.5 485q45.5 -27 70.5 -77t25 -115q0 -87 -45 -166.5t-125.5 -138.5t-183.5 -87l-11 7l-24 65q154 68 212 177l-8 12q-46 -24 -74 -30q-75 0 -121 47.5t-46 124.5q0 62 28 109.5t79 73t118 25.5q60 0 105.5 -27zM301 255q3 21 3 43q0 56 -20 87t-56 31q-70 0 -70 -87
q0 -45 20 -70.5t54 -25.5q30 0 69 22z" />
    <glyph glyph-name="colon" unicode=":" horiz-adv-x="238" 
d="M63 12q-21 22 -21 62q0 41 24 66t66 25q39 0 60.5 -22.5t21.5 -61.5q0 -41 -24.5 -66t-65.5 -25q-40 0 -61 22zM63 282q-21 22 -21 62q0 41 24 66t66 25q39 0 60.5 -22.5t21.5 -61.5q0 -41 -24.5 -66t-65.5 -25q-40 0 -61 22z" />
    <glyph glyph-name="semicolon" unicode=";" horiz-adv-x="238" 
d="M14 -96v20q30 22 49 52.5t19 58.5q0 20 -8.5 40t-21.5 34l3 14q23 18 46 28.5t43 10.5q33 0 53.5 -25.5t20.5 -68.5q0 -52 -44.5 -106t-114.5 -95zM63 282q-21 22 -21 62q0 41 24 66t66 25q39 0 60.5 -22.5t21.5 -61.5q0 -41 -24.5 -66t-65.5 -25q-40 0 -61 22z" />
    <glyph glyph-name="less" unicode="&#x3c;" horiz-adv-x="454" 
d="M220 120l-185 81l-8 14v120l186 80q60 26 105.5 46t60.5 27l15 -9l26 -88q-17 -6 -72 -27.5t-102 -42.5l-110 -45v-7l122 -56l156 -68l7 -18l-48 -76z" />
    <glyph glyph-name="equal" unicode="=" horiz-adv-x="506" 
d="M16 299l16 109l232 -1q50 0 123 2.5t96 3.5l6 -13l-11 -110l-227 -1l-227 -1zM16 112l16 109l232 -1q50 0 123 2.5t96 3.5l6 -13l-11 -110l-227 -1l-227 -1z" />
    <glyph glyph-name="greater" unicode="&#x3e;" horiz-adv-x="454" 
d="M59 60l-25 88q17 6 71.5 27.5t102.5 41.5l109 46v7l-122 56q-56 25 -99 43.5t-57 24.5l-6 18l48 76l153 -69l185 -81l8 -14l-1 -120l-185 -80q-60 -26 -105.5 -46t-60.5 -27z" />
    <glyph glyph-name="question" unicode="?" horiz-adv-x="375" 
d="M98 229l-24 129l3 15l103 55q50 31 50 66q0 42 -45.5 65.5t-129.5 28.5l-10 16l38 98l16 7q77 -2 140 -25.5t99 -63.5t36 -88q0 -40 -16.5 -69t-48.5 -55t-99 -71l-3 -7l12 -77l-8 -12l-100 -19zM94.5 12.5q-21.5 22.5 -21.5 61.5q0 41 24.5 66t65.5 25q39 0 60.5 -22.5
t21.5 -61.5q0 -41 -24 -66t-65 -25q-40 0 -61.5 22.5z" />
    <glyph glyph-name="at" unicode="@" horiz-adv-x="877" 
d="M230.5 -178q-102.5 51 -156.5 142t-54 211q0 125 63.5 236t172 177.5t235.5 66.5q111 0 193.5 -39.5t127.5 -112t45 -167.5q0 -102 -43 -180.5t-123.5 -123t-189.5 -44.5q-22 0 -35.5 12.5t-13.5 33.5q0 20 30 144l-9 1q-43 -76 -78 -121t-71 -70q-62 0 -96 40t-34 111
q0 78 37 155t94.5 125.5t115.5 48.5l80 -18l6 21l15 9l103 -13l8 -20q-4 -16 -17.5 -73.5t-30 -135.5t-26.5 -142l6 -7q81 0 129 59t48 153q0 82 -36.5 141.5t-104.5 91t-160 31.5q-99 0 -177.5 -48t-122.5 -130.5t-44 -182.5q0 -166 100.5 -260.5t291.5 -97.5l-1 -21
l-34 -56q-141 2 -243.5 53zM397.5 153.5q23.5 32.5 49.5 86t46 111.5q-1 0 -25 14t-58 14q-16 0 -31.5 -27t-25.5 -69.5t-10 -85.5q0 -32 5.5 -54t13.5 -22q12 0 35.5 32.5z" />
    <glyph glyph-name="A" unicode="A" horiz-adv-x="648" 
d="M332 1l5 71q34 3 48 6t19 9t5 20q0 3 -4 27l-15 60q-52 2 -85 2q-23 0 -67 -4l-22 -2l-18 -62q-5 -22 -5 -28q0 -15 8.5 -20.5t31.5 -5.5h36l6 -8l-8 -71q-15 1 -62.5 2.5t-86.5 1.5l-126 -1l7 75q21 4 35 18.5t24 42.5l170 505l203 16l13 -8q15 -59 61.5 -238t73.5 -268
q10 -35 25.5 -50.5t44.5 -17.5l6 -9l-8 -67q-14 0 -51.5 1t-78.5 1q-56 0 -110 -2.5t-69 -3.5zM306 292q5 0 65 3l-48 202h-17l-62 -205h62z" />
    <glyph glyph-name="B" unicode="B" horiz-adv-x="643" 
d="M97 -3.5q-53 -3.5 -70 -5.5l8 77q41 7 55.5 23t14.5 54l1 376q0 26 -7 37.5t-23 11.5q-10 0 -20 -1t-14 -1l-9 9l11 69l151 -2q41 1 94 3t75 3q107 0 163 -40t56 -116q0 -94 -103 -153q134 -39 134 -148q0 -96 -71.5 -150t-199.5 -54q-128 11 -156 11q-37 0 -90 -3.5z
M312 371q33 -4 45 -4q0 -2 16 10t29 33.5t13 53.5q0 43 -29.5 64t-91.5 21q-10 0 -13.5 -3t-4.5 -13q-4 -50 -8 -156q11 -2 44 -6zM262 145q0 -29 19.5 -41t65.5 -12q44 0 68 23t24 65q0 34 -22 57.5t-64 34.5h-87z" />
    <glyph glyph-name="C" unicode="C" horiz-adv-x="610" 
d="M160.5 27q-66.5 38 -102 109.5t-35.5 170.5q0 108 42 186.5t120.5 120.5t187.5 42q38 0 82 -5.5t76 -11.5t41 -8l7 -16q-2 -7 -7 -34t-11 -71.5t-9 -94.5l-122 -7q0 4 1 19t1 35q0 42 -22 61t-70 19q-68 0 -99.5 -47.5t-31.5 -152.5q0 -118 35 -179t102 -61q47 0 72 30
t34 99l122 8q-3 -18 -9.5 -80t-7.5 -118l-11 -14q0 -1 -35 -11t-85.5 -18.5t-106.5 -8.5q-92 0 -158.5 38z" />
    <glyph glyph-name="D" unicode="D" horiz-adv-x="688" 
d="M251.5 -5q-50.5 5 -87.5 5q-34 0 -78 -3.5t-57 -5.5l8 79q41 7 55 24t14 59v361q0 32 -6 43t-23 11q-11 0 -20 -1t-12 -1l-8 11l9 70q16 0 57.5 -1.5t79.5 -1.5q45 0 94 2t68 3q155 0 238 -77.5t83 -222.5q0 -107 -43.5 -189t-122.5 -127t-182 -45q-16 2 -66.5 7z
M280 540.5q-5 -5.5 -6 -19.5q-12 -210 -12 -368q0 -37 12.5 -49.5t50.5 -12.5q78 0 116 54.5t38 169.5q0 124 -42.5 177.5t-137.5 53.5q-14 0 -19 -5.5z" />
    <glyph glyph-name="E" unicode="E" horiz-adv-x="599" 
d="M571 200q-18 -95 -28 -194l-12 -13q-180 7 -315 7q-91 0 -189 -10l8 78q40 6 54.5 24.5t14.5 62.5l1 361q0 32 -6 43t-24 11q-15 0 -29 -2l-9 11l9 68h22q159 -3 182 -3q218 0 306 12l10 -13q-8 -39 -14.5 -93t-8.5 -96l-110 -7l2 38q0 27 -8.5 39t-32 16.5t-74.5 4.5
q-29 0 -37 -5t-8 -25l-7 -138l89 -1q24 0 113 7l10 -11l-14 -98q-99 3 -126 3q-21 0 -45 -2.5t-31 -3.5l-2 -117q0 -28 4 -40t15.5 -16t38.5 -4q56 0 82.5 8t38 30.5t18.5 72.5l103 7z" />
    <glyph glyph-name="F" unicode="F" horiz-adv-x="541" 
d="M35 67q40 8 54.5 26t14.5 62l1 361q0 32 -6 43t-24 11q-10 0 -18 -1t-11 -1l-9 11l9 68q20 -1 79 -2t125 -1q199 0 281 12l10 -13q-3 -17 -9.5 -75t-9.5 -115l-111 -7q0 4 1 16t1 23q0 26 -7 38.5t-26.5 17t-59.5 4.5q-29 0 -37 -5t-8 -25l-7 -155l89 -1q18 0 55.5 3
t49.5 4l9 -11l-14 -98q-12 1 -46 2t-71 1q-25 0 -76 -6l-2 -98q0 -37 8.5 -50t34.5 -13q17 0 36.5 3t25.5 4l12 -14l-12 -89q-18 0 -65.5 1.5t-93.5 1.5q-54 0 -109.5 -4.5t-71.5 -6.5z" />
    <glyph glyph-name="G" unicode="G" horiz-adv-x="648" 
d="M163 27q-68 38 -104 109.5t-36 170.5q0 166 93.5 257.5t264.5 91.5q40 0 84.5 -5.5t75.5 -11.5t40 -8l9 -16q-2 -7 -7.5 -32.5t-11.5 -68t-9 -91.5l-121 -7q0 4 1 18.5t1 36.5q0 40 -19.5 55.5t-67.5 15.5q-78 0 -113 -47t-35 -153q0 -119 36 -179.5t105 -60.5
q22 0 39.5 4.5t27 9t11.5 6.5v81q0 27 -8 36t-31 9l-44 -1l-7 11l12 81l145 -1q32 0 65.5 2t43.5 3l8 -47q-21 -12 -30.5 -28.5t-12.5 -47t-3 -94.5q0 -59 7 -86l-10 -14q0 -1 -32.5 -11t-85.5 -18t-120 -8q-93 0 -161 38z" />
    <glyph glyph-name="H" unicode="H" horiz-adv-x="744" 
d="M35 66q42 8 55.5 24.5t13.5 58.5l1 369q0 31 -7 41.5t-29 10.5q-14 0 -28 -2l-7 11l8 66l123 -1q11 0 113 4q18 0 58 2l-6 -76q-25 -4 -36 -10t-15.5 -17.5t-5.5 -36.5l-6 -133l110 -3q49 0 104 6v138q0 31 -7 41.5t-29 10.5q-13 0 -29 -2l-7 11l8 66l142 -1q24 0 84 3
l75 3l-6 -75q-36 -5 -47.5 -15.5t-13.5 -39.5q-5 -74 -8.5 -179.5t-3.5 -188.5q0 -44 8.5 -60.5t32.5 -16.5q12 0 33 3l6 -9l-9 -71q-80 2 -156 2l-151 -1l9 74q39 1 54 19t15 66v117l-88 1q-34 0 -129 -9l-1 -124q0 -42 7 -55.5t29 -13.5q20 0 32 3l6 -8l-9 -73
q-72 4 -138 4q-48 0 -162 -7z" />
    <glyph glyph-name="I" unicode="I" horiz-adv-x="367" 
d="M35 66q42 9 55.5 25t13.5 58l1 369q0 31 -7.5 41.5t-28.5 10.5q-15 0 -31 -2l-7 11l8 66l148 -1q28 0 89 3l66 3l-6 -76q-37 -5 -48.5 -15t-13.5 -39q-11 -213 -11 -377q0 -42 7 -55.5t29 -13.5q23 0 38 3l6 -8l-9 -73q-98 4 -156 4q-48 0 -151 -7z" />
    <glyph glyph-name="J" unicode="J" horiz-adv-x="335" 
d="M4 -114l2 12q37 30 56 58t26.5 67t7.5 104v391q0 31 -6.5 41t-27.5 10q-12 0 -23.5 -1t-15.5 -1l-7 11l8 66l131 1q50 0 101 3t66 4l-7 -78q-31 -7 -39.5 -16t-10.5 -38q-4 -75 -8 -208t-4 -218q0 -98 -51.5 -158t-164.5 -94z" />
    <glyph glyph-name="K" unicode="K" horiz-adv-x="673" 
d="M98 559.5q-7 10.5 -29 10.5q-9 0 -17 -1t-11 -1l-7 11l8 67l145 -2q27 0 81 2.5t72 3.5l-7 -76q-37 -8 -48.5 -19t-12.5 -38l-9 -374q-1 -42 6.5 -55.5t29.5 -13.5q14 0 23.5 1t12.5 2l6 -8l-9 -73q-18 1 -65 2.5t-89 1.5q-37 0 -86 -1.5t-64 -2.5l8 73q29 5 43 13
t19.5 23t5.5 44l1 369q0 31 -7 41.5zM414 491q12 11 18 23.5t6 23.5q0 16 -11 23.5t-36 8.5l-5 8l8 70q15 -1 54.5 -2.5t78.5 -1.5q36 0 74.5 2t53.5 3l8 -13l-8 -65q-33 -16 -64.5 -45t-73.5 -82l-78 -93l117 -193q27 -45 50.5 -65t56.5 -24l8 -11l-10 -62
q-18 -2 -68.5 -6.5t-62.5 -4.5q-35 0 -60 18.5t-51 63.5l-141 249l4 26z" />
    <glyph glyph-name="L" unicode="L" horiz-adv-x="542" 
d="M38 68q38 6 52 24.5t14 62.5v363q0 31 -7 41.5t-29 10.5q-9 0 -17 -1t-11 -1l-7 11l8 66l146 -1q29 0 92.5 2.5t84.5 3.5l-9 -82q-35 -4 -51.5 -10t-22.5 -18t-8 -36q-10 -144 -10 -357q0 -32 10 -42.5t41 -10.5q44 0 66 12t32.5 44.5t16.5 99.5l103 11l9 -12
q-3 -20 -11 -92.5t-14 -151.5l-12 -13q-27 1 -116.5 4.5t-170.5 3.5q-59 0 -115 -4t-72 -6z" />
    <glyph glyph-name="M" unicode="M" horiz-adv-x="838" 
d="M221 415h-11q-2 -60 -9 -189l-6 -120q0 -33 33 -33q20 0 30 2l7 -7l-11 -72l-37 1q-49 3 -91 3q-21 0 -57.5 -3t-48.5 -5l7 75q27 4 39.5 18.5t19.5 51.5q8 69 23 221t15 166q0 19 -5 28t-19.5 13.5t-45.5 7.5l-7 7l10 69l48 -2q54 -3 86 -3q43 0 90 3l36 1
q31 -119 73 -262l32 -115h10q13 44 16 51q11 37 42 137.5t56 185.5q31 0 48 -1l57 -1q28 0 41 1q24 1 98 6l6 -4l-7 -71q-42 -3 -56.5 -14t-14.5 -39q0 -37 7.5 -156.5t15.5 -201.5q5 -53 15 -71.5t33 -18.5q19 0 29 2l5 -7l-9 -72q-57 3 -105 3q-29 0 -85 -3t-78 -5l10 76
q28 3 40.5 14.5t12.5 34.5l-4 94q-7 106 -10 204h-10q-70 -197 -137 -420l-91 -9q-74 251 -136 429z" />
    <glyph glyph-name="N" unicode="N" horiz-adv-x="733" 
d="M343.5 231q-74.5 113 -95.5 144h-12l1 -254q0 -27 8 -37.5t28 -10.5q11 0 23 1.5t16 1.5l7 -7l-10 -73q-16 1 -57.5 2.5t-81.5 1.5q-38 0 -80.5 -3.5t-55.5 -4.5l9 77q30 4 43.5 18.5t14.5 44.5l12 375q0 23 -6 35t-22.5 18t-49.5 10l-10 11l7 68q12 -1 52 -3t77 -2
q30 0 65 1.5t45 2.5q71 -119 153 -246.5t82 -125.5h12l-2 250q-1 25 -8.5 34t-24.5 9h-33l-5 9l7 70q16 -1 58.5 -2.5t85.5 -1.5q33 0 73.5 1.5t53.5 2.5l-5 -76q-33 -4 -46.5 -18.5t-14.5 -44.5l-13 -517l-140 -13q-86 139 -160.5 252z" />
    <glyph glyph-name="O" unicode="O" horiz-adv-x="666" 
d="M99.5 72q-76.5 84 -76.5 235q0 108 39 186.5t113 120.5t175 42q142 0 218 -82t76 -234q0 -108 -40 -187.5t-114.5 -122t-175.5 -42.5q-138 0 -214.5 84zM426.5 139.5q30.5 48.5 30.5 144.5q0 132 -32.5 195t-99.5 63q-117 0 -117 -191q0 -132 32.5 -196t96.5 -64
q59 0 89.5 48.5z" />
    <glyph glyph-name="P" unicode="P" horiz-adv-x="589" 
d="M37 69q39 7 53 24.5t14 59.5l1 363q0 31 -6.5 42.5t-23.5 11.5q-11 0 -21 -1t-13 -1l-8 9l9 68l133 -1q43 0 93.5 2t70.5 3q141 0 197.5 -58t56.5 -141q0 -60 -34 -113.5t-90 -85.5t-120 -32h-85l-1 -63q0 -34 3.5 -51t14 -23.5t30.5 -6.5q13 0 24.5 1t15.5 1l4 -7
l-10 -74q-17 1 -60 2.5t-81 1.5q-33 0 -93.5 -3.5t-81.5 -5.5zM424 438q0 57 -31 83t-98 26q-13 0 -16 -3t-4 -16q-6 -89 -9 -206l80 -11q78 21 78 127z" />
    <glyph glyph-name="Q" unicode="Q" horiz-adv-x="671" 
d="M585.5 -217.5q-39.5 16.5 -99 62t-172.5 143.5q-138 0 -214.5 84t-76.5 235q0 108 39 186.5t113 120.5t175 42q142 0 218 -82t76 -234q0 -110 -49.5 -194t-133.5 -124v-11q145 -103 250 -103q28 0 54 4t33 6l10 -8l13 -53q-9 -7 -39.5 -29t-64 -42t-47.5 -20
q-45 0 -84.5 16.5zM426.5 139.5q30.5 48.5 30.5 144.5q0 132 -32.5 195t-99.5 63q-117 0 -117 -191q0 -132 32.5 -196t96.5 -64q59 0 89.5 48.5z" />
    <glyph glyph-name="R" unicode="R" horiz-adv-x="658" 
d="M451.5 6.5q-26.5 22.5 -47.5 69.5l-76 166h-64l-1 -93q0 -35 4.5 -49.5t18.5 -19.5t48 -6l5 -7l-10 -71l-147 4q-41 0 -90.5 -3t-64.5 -4l9 77q40 6 54 23.5t14 59.5l1 370q0 27 -6.5 37t-23.5 10q-11 0 -21 -1t-13 -1l-8 9l10 69q15 0 54.5 -1t77.5 -1q45 0 96 2t71 3
q124 0 188.5 -45t64.5 -133q0 -59 -33 -107.5t-95 -82.5l76 -125q27 -45 52.5 -66t52.5 -21l9 -13l-8 -61l-134 -11q-37 0 -63.5 22.5zM404.5 376q21.5 25 21.5 75t-33 74t-101 24q-10 0 -13 -4t-4 -18q-6 -86 -8 -181l84 -10q32 15 53.5 40z" />
    <glyph glyph-name="S" unicode="S" horiz-adv-x="545" 
d="M131 -3q-41 9 -68 19.5t-27 11.5l-10 16q1 7 5 31t8.5 63.5t5.5 73.5l101 7q0 -70 23 -97t78 -27q40 0 64 16.5t24 45.5q0 30 -28.5 50t-88.5 47q-8 4 -15.5 7.5t-13.5 6.5q-72 34 -114 75t-42 107q0 60 36 107t100.5 73t147.5 26q46 0 86 -6t64 -12.5t30 -8.5l9 -17
q-1 -6 -5.5 -29t-10.5 -63.5t-9 -80.5l-93 -7l-10 8l1 27q0 40 -21 58t-66 18q-36 0 -59 -16.5t-23 -43.5q0 -22 17 -39t40 -29.5t72 -34.5q54 -24 90 -46t60.5 -57t24.5 -84q0 -62 -36 -108.5t-102 -71.5t-155 -25q-49 0 -90 9z" />
    <glyph glyph-name="T" unicode="T" horiz-adv-x="579" 
d="M109 70q44 4 64 12t27.5 26.5t7.5 57.5v382q-44 -1 -63 -10t-27.5 -34.5t-14.5 -88.5l-100 -7q8 117 10 235l12 12l108 -11h312l111 11l11 -12q4 -155 8 -228l-100 -7q-7 69 -14.5 95.5t-25 35t-60.5 9.5q-8 -200 -8 -403q0 -37 12.5 -52.5t41.5 -15.5q21 0 52 3l4 -6
l-9 -79q-147 5 -186 5q-69 0 -181 -7z" />
    <glyph glyph-name="U" unicode="U" horiz-adv-x="643" 
d="M132.5 40.5q-58.5 52.5 -58.5 161.5v314q0 32 -6 43t-25 11q-9 0 -18 -1t-12 -1l-2 4l9 75q15 -1 60 -2t97 -1q25 0 68 2t57 3l-8 -78q-29 -3 -40 -14.5t-13 -36.5l-6 -291q0 -64 27 -99.5t77 -35.5q51 0 76 27.5t25 84.5l-2 310q-1 32 -7 43t-23 11q-9 0 -17.5 -1
t-11.5 -1l-2 4l9 75q13 0 48.5 -1.5t69.5 -1.5q35 0 76.5 2t53.5 3l-7 -77q-35 -9 -44.5 -17t-9.5 -30v-299q0 -116 -67 -177t-194 -61q-121 0 -179.5 52.5z" />
    <glyph glyph-name="V" unicode="V" horiz-adv-x="632" 
d="M140 228q-46 182 -74 278q-9 32 -24.5 47t-42.5 17l-5 8l7 68q14 0 52.5 -1t78.5 -1q51 0 107 3t72 4l6 -9l-5 -70q-35 -4 -49 -7t-18.5 -9t-4.5 -20q0 -24 32 -179t44 -211h18q14 35 61 205t47 192q0 15 -9 20.5t-34 5.5h-34l-6 8l7 71q15 -1 63.5 -2.5t87.5 -1.5
q41 0 74.5 1t44.5 1l-7 -75q-21 -4 -30 -14t-19 -39l-169 -514l-211 -18q-14 60 -60 242z" />
    <glyph glyph-name="W" unicode="W" horiz-adv-x="978" 
d="M135 228q-44 182 -71 278q-9 32 -23.5 47t-40.5 17l-6 8l8 68q13 0 50 -1t76 -1q53 0 105 3t67 4l6 -9l-5 -70q-34 -4 -47.5 -7t-18 -9t-4.5 -20q0 -25 31 -180t43 -210h16q10 27 42.5 145.5t53.5 204.5q0 8 -3 35q-3 22 -17 30t-50 9l-5 8l8 68q16 0 59.5 -1t87.5 -1
q51 0 104 3t68 4l6 -9l-6 -70q-34 -4 -47.5 -7t-17.5 -9t-4 -20q0 -24 30.5 -179t42.5 -211h17q13 36 58.5 206.5t45.5 192.5q0 14 -8.5 19t-32.5 5h-33l-5 8l7 71q14 -1 61 -2.5t84 -1.5q40 0 72 1t43 1l-7 -75q-20 -5 -29 -15t-18 -38l-160 -514l-204 -18q-15 101 -68 327
h-12l-87 -309l-204 -18q-14 60 -58 242z" />
    <glyph glyph-name="X" unicode="X" horiz-adv-x="694" 
d="M348 1l6 70q23 2 33.5 7.5t10.5 17.5q0 14 -14 32l-75 111l-55 -81q-14 -22 -20.5 -34t-6.5 -21q0 -15 11 -22t34 -8l5 -8l-6 -70q-17 1 -67.5 3.5t-71.5 2.5q-24 0 -66.5 -2t-56.5 -3l-5 12l7 68q27 11 64.5 47.5t72.5 84.5l94 129l-97 144q-28 42 -54.5 58.5
t-69.5 25.5l-4 5l8 76q14 0 58.5 -1t107.5 -1q34 0 89 3t73 4l5 -10l-6 -68q-27 -1 -39 -7.5t-12 -20.5t15.5 -40t50.5 -78l12 -17l27 41q28 42 42 65.5t14 33.5q0 12 -10 17t-35 6l-2 6l6 67q39 0 62 -1l80 -1q41 0 74.5 1t44.5 2l4 -7l-5 -72q-46 -18 -72.5 -40.5
t-58.5 -67.5l-102 -147l105 -150q30 -43 60 -63t69 -22l3 -4l-8 -76q-15 0 -54.5 1.5t-77.5 1.5q-31 0 -99.5 -3t-91.5 -4z" />
    <glyph glyph-name="Y" unicode="Y" horiz-adv-x="625" 
d="M140 68q42 5 61.5 13t26.5 24.5t7 50.5v24q0 25 -6 46t-22 51l-102 195q-21 40 -44 61t-63 32l-4 5l9 76q16 0 58.5 -1.5t79.5 -1.5q31 0 90 3.5t78 4.5l6 -10l-7 -68q-28 -1 -40 -7.5t-12 -20.5q0 -13 25 -70t28 -65l20 -47h12l63 144q14 32 14 46q0 10 -10.5 14.5
t-35.5 5.5l-3 6l8 66q39 0 62 -1l81 -1q31 0 64 1.5t43 2.5l4 -7l-7 -72q-36 -15 -62 -44t-55 -83l-94 -181q-12 -24 -14.5 -47t-2.5 -77q0 -33 10.5 -46t37.5 -13q18 0 31.5 1t18.5 2l4 -6l-9 -79q-21 1 -76 3t-106 2q-37 0 -96.5 -4t-78.5 -6z" />
    <glyph glyph-name="Z" unicode="Z" horiz-adv-x="586" 
d="M12 44l341 514l-106 -9q-43 -6 -64 -17.5t-30 -34.5t-12 -70l-102 -7q2 22 8.5 95.5t7.5 130.5l11 11l179 -11l309 -2l21 -47q-165 -220 -349 -509l134 13q49 6 74.5 40.5t35.5 108.5l102 8q-2 -11 -6.5 -47t-10.5 -93t-7 -101l-19 -20l-409 6l-78 -9z" />
    <glyph glyph-name="bracketleft" unicode="[" horiz-adv-x="321" 
d="M74 -119q2 45 6.5 179.5t4.5 196.5q0 63 -4.5 198.5t-6.5 180.5l233 11l4 -9l-7 -68l-99 -19v-585l102 -19l4 -10l-7 -67z" />
    <glyph glyph-name="backslash" unicode="\" horiz-adv-x="329" 
d="M175 6.5q-23 88.5 -54 208.5q-37 138 -72 267.5t-48 175.5l14 17h97l115 -449q24 -95 52.5 -194.5t37.5 -128.5l-10 -13h-102q-7 28 -30 116.5z" />
    <glyph glyph-name="bracketright" unicode="]" horiz-adv-x="321" 
d="M10 -121l7 68l99 19v585l-102 19l-4 10l7 67l229 -11q-2 -45 -6.5 -179t-4.5 -197q0 -62 4.5 -198t6.5 -181l-232 -11z" />
    <glyph glyph-name="asciicircum" unicode="^" horiz-adv-x="481" 
d="M389 285q25 -56 45 -98t26 -55l-76 -48l-18 7q-6 14 -25.5 57t-44.5 99l-56 122h-7l-46 -110q-20 -47 -41.5 -102t-27.5 -72l-88 26l-9 15q7 15 27 60.5t46 105.5l80 186l119 5l14 -8z" />
    <glyph glyph-name="underscore" unicode="_" horiz-adv-x="451" 
d="M-10 -180l11 88l242 -1l126 1q84 1 84 3l9 -17l-12 -89l-451 -1z" />
    <glyph glyph-name="grave" unicode="`" horiz-adv-x="398" 
d="M141 601q-60 36 -77 46l-2 16l62 82l14 1q15 -15 68.5 -66.5t107.5 -101.5l-34 -49l-18 -5q-61 41 -121 77z" />
    <glyph glyph-name="a" unicode="a" horiz-adv-x="492" 
d="M313 7q-27 19 -31 56l-10 4q-31 -31 -61.5 -53t-49.5 -22q-39 0 -71.5 20.5t-51 56.5t-18.5 79q0 32 17 55.5t44 29.5l194 41v14q0 39 -22 60.5t-62 21.5q-26 0 -58 -13.5t-58 -31.5l-10 5l-21 69q55 30 112 54.5t82 24.5q94 0 137.5 -39t43.5 -101q0 -14 -10 -92
q-1 -12 -6 -49t-5 -52q0 -17 9 -27.5t24 -10.5q19 0 42 13l16 -23q-20 -37 -49 -70t-53 -39q-47 0 -74 19zM239.5 107.5q17.5 5.5 31.5 13.5l2 90l-91 -23q-12 -3 -17 -9.5t-5 -18.5q0 -25 13.5 -41.5t35.5 -16.5q13 0 30.5 5.5z" />
    <glyph glyph-name="b" unicode="b" horiz-adv-x="516" 
d="M165.5 -5q-38.5 4 -64 8t-32.5 5l-10 12v564q0 33 -9.5 45t-34.5 12l-25 -1l-4 6l7 62q64 8 136.5 19t94.5 15l9 -22q-21 -23 -29 -308q86 62 103 62q88 0 138.5 -59.5t50.5 -163.5q0 -77 -32 -136t-89.5 -91.5t-132.5 -32.5q-38 0 -76.5 4zM320.5 118.5
q20.5 31.5 20.5 92.5q0 74 -21.5 114.5t-59.5 40.5q-16 0 -31.5 -6.5t-26.5 -16.5l-2 -243q7 -4 25 -8.5t36 -4.5q39 0 59.5 31.5z" />
    <glyph glyph-name="c" unicode="c" horiz-adv-x="435" 
d="M80.5 51q-59.5 63 -59.5 173q0 75 31 132.5t87.5 89.5t130.5 32q36 0 65 -4.5t46 -9.5t21 -7l4 -10q-3 -13 -10.5 -61t-11.5 -102l-76 -4v34q0 65 -53 65q-78 0 -78 -115q0 -160 97 -160q24 0 47 6t37.5 13t18.5 9l9 -4l18 -62q0 -1 -29 -22t-64.5 -38.5t-64.5 -17.5
q-106 0 -165.5 63z" />
    <glyph glyph-name="d" unicode="d" horiz-adv-x="536" 
d="M360 6.5q-27 18.5 -32 53.5l-7 3q-94 -71 -111 -71q-88 0 -138.5 59.5t-50.5 163.5q0 77 32 135.5t89.5 91t132.5 32.5q28 0 41 -1v108q0 33 -9 45t-35 12q-7 0 -14 -1t-10 -1l8 71q67 8 135.5 19.5t88.5 15.5l10 -19q-14 -20 -23.5 -186t-9.5 -392q0 -17 7.5 -27.5
t20.5 -10.5t24.5 5.5t14.5 7.5l16 -23q0 -2 -16.5 -26.5t-40 -49t-50.5 -33.5q-46 0 -73 18.5zM284 105q13 5 21.5 10.5t10.5 7.5v241q-2 1 -10 4.5t-21.5 6.5t-29.5 3q-38 0 -59 -32t-21 -92q0 -74 21.5 -114t60.5 -40q14 0 27 5z" />
    <glyph glyph-name="e" unicode="e" horiz-adv-x="470" 
d="M82.5 50.5q-61.5 62.5 -61.5 173.5q0 73 31 131t86.5 90.5t126.5 32.5q178 0 178 -183q0 -31 -7 -61l-12 -11h-249q2 -60 32.5 -91.5t83.5 -31.5t117 29l9 -4l18 -60q-38 -29 -89 -53t-91 -24q-111 0 -172.5 62.5zM286 294q10 2 13 5.5t3 15.5q0 70 -54 70q-71 0 -75 -98
z" />
    <glyph glyph-name="f" unicode="f" horiz-adv-x="347" 
d="M32 66q29 3 41.5 16t12.5 40v216q-1 23 -13.5 30.5t-51.5 9.5l-4 6l7 59l62 10v10q0 85 32.5 148t91.5 97t138 34q31 0 56.5 -5t40.5 -10t19 -7l5 -19q-3 -8 -13 -34.5t-23 -64.5l-13 -4q-3 3 -16.5 12t-36 17.5t-48.5 8.5q-34 0 -52.5 -13t-27 -43.5t-8.5 -84.5l-1 -45
q45 0 80 1t44 2l4 -5l-10 -76q-9 1 -42 2t-77 1l-1 -255q0 -22 9 -32.5t28 -10.5q21 0 38 1t23 1l4 -5l-10 -78q-18 1 -64.5 2.5t-89.5 1.5q-36 0 -82 -3t-60 -4z" />
    <glyph glyph-name="g" unicode="g" horiz-adv-x="516" 
d="M432 408l-4 -6q39 -42 39 -98q0 -51 -28.5 -91.5t-79.5 -63.5t-116 -23q-38 0 -67 7q-16 -16 -16 -26q0 -18 29 -25.5t89 -13.5q67 -6 112 -15.5t77.5 -34t32.5 -69.5q0 -49 -39 -93t-102.5 -71t-132.5 -27q-85 0 -137.5 40t-52.5 105q24 23 100 65v6q-45 9 -70.5 36
t-29.5 69q33 36 82 69v8q-36 21 -56 56.5t-20 80.5q0 54 27.5 96.5t77 66t112.5 23.5q17 0 62 -5q30 -4 43 -4q41 2 143 35l6 -5l-13 -87q-43 -5 -68 -5zM321 294q0 46 -18 72.5t-53 26.5q-29 0 -44.5 -21.5t-15.5 -70.5q0 -45 16.5 -71t51.5 -26q63 0 63 90zM190.5 -68
q-7.5 -16 -7.5 -31q0 -27 21.5 -41.5t61.5 -14.5q43 0 70 17t27 45q0 14 -10.5 21t-41 13.5t-102.5 17.5q-11 -11 -18.5 -27z" />
    <glyph glyph-name="h" unicode="h" horiz-adv-x="548" 
d="M55.5 82.5q9.5 11.5 9.5 38.5v463q0 33 -9 44.5t-35 11.5h-24l-5 6l7 62q160 22 232 34l8 -22q-11 -12 -19 -97.5t-12 -234.5q38 38 73.5 64t51.5 26q77 0 117.5 -33.5t40.5 -96.5q0 -19 -10 -111q-2 -17 -6.5 -61.5t-4.5 -62.5q0 -23 6.5 -32.5t23.5 -9.5l28 1l2 -4
l-10 -72q-70 4 -118 4q-42 0 -116 -6l7 73q22 4 31 16.5t10 35.5l3 158q1 42 -12.5 60.5t-42.5 18.5q-14 0 -34 -9t-41 -25q-1 -50 -1 -211q0 -22 6 -31t21 -9l20 2l3 -7l-11 -70q-68 4 -116 4q-42 0 -118 -4l9 72q26 3 35.5 14.5z" />
    <glyph glyph-name="i" unicode="i" horiz-adv-x="298" 
d="M28 64q29 4 43 18.5t14 42.5v196q0 33 -9.5 45t-35.5 12q-7 0 -14 -1.5t-9 -2.5l7 69q65 8 130 19.5t84 15.5l11 -19q-11 -22 -17.5 -115.5t-6.5 -234.5q0 -21 6 -29.5t22 -8.5q8 0 16 1t11 1l2 -4l-10 -73q-13 1 -48.5 2.5t-73.5 1.5q-33 0 -76 -4.5t-56 -6.5zM86 567.5
q-21 21.5 -21 59.5q0 41 24.5 66t64.5 25q38 0 59 -22t21 -60q0 -41 -24 -65.5t-64 -24.5q-39 0 -60 21.5z" />
    <glyph glyph-name="j" unicode="j" horiz-adv-x="286" 
d="M90 582.5q-21 21.5 -21 60.5q0 41 24.5 65.5t64.5 24.5q37 0 58.5 -22t21.5 -60q0 -41 -24 -65.5t-64 -24.5q-39 0 -60 21.5zM3 -210l2 13q43 42 58 90t15 142v286q0 32 -7.5 44.5t-27.5 12.5q-11 0 -19 -1t-11 -2l7 67q56 8 124 20t88 16l10 -19q-11 -26 -17.5 -146.5
t-6.5 -326.5q0 -70 -47.5 -132t-129.5 -100z" />
    <glyph glyph-name="k" unicode="k" horiz-adv-x="528" 
d="M56.5 84.5q8.5 13.5 8.5 49.5v450q0 25 -5 37.5t-18 16.5q-10 2 -26 2h-20q-1 2 -1.5 5t-1.5 5l6 58q64 8 137 19t95 15l8 -22q-16 -16 -24.5 -180.5t-8.5 -430.5q0 -22 6 -30.5t21 -8.5l22 1l2 -6l-12 -70q-12 1 -51.5 3t-64.5 2q-33 0 -70 -2t-48 -3l9 72
q28 4 36.5 17.5zM220 260l84 90q11 11 15 18.5t4 14.5q0 11 -11.5 15.5t-39.5 4.5l-3 5l9 60q12 0 49 -1t82 -1q31 0 66.5 1.5t46.5 2.5l3 -5l-9 -69q-35 -15 -68 -43t-76 -72l-16 -16l75 -128q19 -33 41.5 -49.5t50.5 -20.5l5 -10l-8 -60q-7 -1 -31 -5t-41 -5l-24 -1
q-13 0 -25 2q-30 5 -49.5 22t-41.5 57l-91 166z" />
    <glyph glyph-name="l" unicode="l" horiz-adv-x="274" 
d="M19 65q29 6 37.5 19.5t8.5 49.5v450q0 27 -4.5 38.5t-18 15t-45.5 2.5l-5 6l7 62q133 17 232 34l8 -22q-33 -87 -33 -611q0 -22 6 -30.5t20 -8.5l33 1l3 -6l-11 -69q-86 4 -128 4q-45 0 -119 -7z" />
    <glyph glyph-name="m" unicode="m" horiz-adv-x="842" 
d="M345.5 83.5q9.5 11.5 10.5 35.5l3 158q0 42 -13.5 60.5t-42.5 18.5q-28 0 -69 -31q-10 -185 -10 -213q0 -23 5.5 -31t21.5 -8l22 1l3 -5l-11 -73q-12 1 -45 2.5t-68 1.5q-36 0 -76.5 -1.5t-52.5 -2.5l10 73q30 2 41 13.5t11 39.5v194q0 35 -10 47t-39 12h-14l-5 6l7 63
q64 9 126.5 20t80.5 14l10 -11q-2 -6 -6 -27.5t-6 -42.5l4 -3q34 30 71 57t51 27q122 0 148 -85q32 29 71 57t53 28q76 0 116.5 -34t40.5 -96q0 -19 -10 -111q-10 -100 -10 -124t6.5 -33t23.5 -9l28 1l2 -4l-10 -72q-13 1 -48.5 2.5t-70.5 1.5q-33 0 -66.5 -1.5t-45.5 -2.5
l7 73q20 2 28.5 13t9.5 37l3 158q0 42 -13 60.5t-43 18.5q-26 0 -68 -29l-13 -214q0 -23 6 -32.5t22 -9.5l25 1l2 -4l-12 -72q-12 1 -45.5 2.5t-67.5 1.5q-24 0 -63.5 -2.5t-52.5 -3.5l7 73q21 5 30.5 16.5z" />
    <glyph glyph-name="n" unicode="n" horiz-adv-x="570" 
d="M346.5 83.5q9.5 11.5 10.5 35.5l2 158q1 42 -12.5 60.5t-42.5 18.5q-28 0 -69 -30l-3 -62q-8 -130 -8 -152t6 -30.5t22 -8.5l22 1l2 -5l-11 -73q-12 1 -45 2.5t-67 1.5q-36 0 -76.5 -2t-52.5 -3l10 73q29 2 40 14t11 40v194q0 35 -9.5 47t-38.5 12h-15l-4 6l7 63
q63 9 125.5 20t80.5 14l11 -11q-2 -6 -6 -27.5t-6 -42.5l5 -4q33 31 69 58t51 27q76 0 116.5 -34t40.5 -96q0 -28 -9 -111q-10 -100 -10 -124q0 -23 6.5 -32.5t22.5 -9.5l28 1l2 -4l-10 -72q-13 1 -47.5 2.5t-69.5 1.5q-24 0 -64 -2.5t-53 -3.5l7 73q22 5 31.5 16.5z" />
    <glyph glyph-name="o" unicode="o" horiz-adv-x="526" 
d="M89.5 51q-59.5 63 -59.5 169q0 78 30.5 136.5t86 90t129.5 31.5q103 0 161 -61t58 -171q0 -78 -30 -136.5t-86 -90t-130 -31.5q-100 0 -159.5 63zM318.5 105q16.5 28 16.5 91q0 95 -19.5 138.5t-59.5 43.5q-36 0 -52.5 -28t-16.5 -89q0 -97 19.5 -140.5t59.5 -43.5
q36 0 52.5 28z" />
    <glyph glyph-name="p" unicode="p" horiz-adv-x="542" 
d="M31 -163q26 2 34 13t10 45q0 10 2 34q4 72 4 113v274q0 35 -10 47t-39 12h-14l-4 6l6 63q64 9 125.5 20t79.5 14l10 -11q-1 -6 -5 -27t-6 -40l4 -3q75 77 92 77q60 0 105.5 -28t70.5 -78.5t25 -116.5q0 -81 -34 -139.5t-95.5 -89.5t-143.5 -31q-9 0 -17 1t-11 1v-87
q0 -38 5 -51t26 -13q18 0 29 1t14 1l3 -4l-12 -73l-30 1q-62 2 -105 2q-34 0 -75.5 -2.5t-53.5 -3.5zM346 119q21 32 21 92q0 72 -21.5 110.5t-60.5 38.5q-25 0 -55 -20q-5 -128 -5 -241q32 -12 62 -12q38 0 59 32z" />
    <glyph glyph-name="q" unicode="q" horiz-adv-x="517" 
d="M238 -162q32 2 47 7t20.5 17t6.5 38l4 159q-89 -68 -106 -68q-88 0 -138.5 60t-50.5 164q0 77 32 135.5t89.5 91t132.5 32.5q52 0 119 -10q28 11 47 19t24 10l13 -14q-10 -20 -16 -180.5t-6 -397.5q0 -35 5.5 -46t23.5 -11q10 0 17 0.5t9 0.5l3 -3l-7 -72h-145
q-41 0 -79 -1.5t-52 -2.5zM284 104.5q13 5.5 21.5 11t10.5 7.5v241q-2 1 -10 4.5t-21.5 6.5t-29.5 3q-38 0 -59 -32t-21 -92q0 -74 21.5 -114.5t60.5 -40.5q14 0 27 5.5z" />
    <glyph glyph-name="r" unicode="r" horiz-adv-x="426" 
d="M76 83q11 13 11 46v188q0 35 -9 47t-36 12l-18 -1l-5 7l7 61q62 9 124.5 20.5t80.5 14.5l11 -10q-2 -8 -6.5 -35.5t-5.5 -53.5l7 -4q32 46 68 70.5t73 24.5q11 0 22 -1.5t14 -2.5l4 -9q-3 -19 -11 -82t-11 -120l-77 -5q0 51 -6 68t-23 17q-13 0 -27 -8.5t-27 -23.5
q-2 -27 -5.5 -89t-4.5 -98q0 -22 8 -31t27 -9q17 0 32.5 1.5t20.5 2.5l4 -7l-12 -78q-15 1 -63.5 3t-80.5 2q-39 0 -81 -2t-55 -3l10 73q29 2 40 15z" />
    <glyph glyph-name="s" unicode="s" horiz-adv-x="412" 
d="M100.5 -5.5q-31.5 6.5 -49.5 14t-23 9.5l-8 12q5 33 15 130l66 6q1 -43 23 -67t61 -24q24 0 39.5 10t15.5 26q0 18 -18 31.5t-74 39.5q-61 26 -88.5 59t-27.5 78q0 47 27.5 83t77 56t113.5 20q31 0 57.5 -4t41.5 -8.5t19 -6.5l7 -13q-2 -11 -8.5 -51t-10.5 -82l-67 -4
l1 12q-1 34 -16 50.5t-47 16.5q-23 0 -37.5 -10t-14.5 -27t14 -30.5t45 -27.5q61 -27 93 -49.5t45 -46t13 -56.5q0 -43 -28 -78t-77.5 -55t-110.5 -20q-37 0 -68.5 6.5z" />
    <glyph glyph-name="t" unicode="t" horiz-adv-x="333" 
d="M62 112v211q0 33 -10.5 44t-42.5 12l-12 8l7 58q43 20 85.5 46t70.5 45t35 25l32 -18q-1 -6 -5 -31.5t-8 -61.5l103 3l5 -5l-11 -76l-104 3q-5 -90 -5 -200q0 -38 13.5 -56t43.5 -18q16 0 33 5t22 7l14 -36q-7 -7 -30 -28t-50 -41t-43 -20q-143 0 -143 124z" />
    <glyph glyph-name="u" unicode="u" horiz-adv-x="549" 
d="M59 367q-7 10 -24 10q-9 0 -16.5 -1t-9.5 -1l7 69q59 8 121 19t80 15l11 -19q-11 -24 -19 -104.5t-8 -170.5q0 -73 54 -73q15 0 31 7t38 21v191q0 28 -7.5 36.5t-32.5 9.5h-14l10 68q59 7 121.5 17.5t80.5 13.5l12 -19q-13 -23 -21.5 -112.5t-8.5 -198.5q0 -17 9 -27.5
t24 -10.5q13 0 27 6t14 7l16 -23q-4 -7 -21 -30t-42 -47t-49 -32q-96 0 -108 75l-9 5q-35 -36 -62 -57.5t-37 -21.5q-82 0 -124.5 33.5t-42.5 96.5l7 213q0 25 -7 35z" />
    <glyph glyph-name="v" unicode="v" horiz-adv-x="478" 
d="M98 166q-35 134 -48 178q-16 49 -60 50l-2 5l7 69q11 0 40.5 -1t60.5 -1q43 0 87 3t57 4l2 -5l-9 -71q-29 -4 -36.5 -8t-7.5 -18q0 -16 21 -113t29 -131h13q74 219 74 248q0 11 -5.5 14.5t-22.5 3.5h-23l-4 7l9 68q11 0 43.5 -1t68.5 -1l96 1l-9 -73q-23 -3 -31.5 -11.5
t-19.5 -38.5l-116 -344l-167 -14q-12 46 -47 180z" />
    <glyph glyph-name="w" unicode="w" horiz-adv-x="755" 
d="M98.5 166q-34.5 134 -47.5 178q-8 25 -22.5 37t-36.5 13l-2 5l7 69q10 0 39.5 -1t60.5 -1q42 0 86 3t57 4l2 -5l-9 -71q-29 -4 -36 -8t-7 -18q0 -17 20.5 -113.5t28.5 -130.5h13q10 25 34.5 109.5t35.5 126.5q-4 18 -13 24t-35 6l-3 6l9 69q10 0 39 -1t60 -1q43 0 85 2.5
t54 3.5l2 -5l-10 -70q-29 -5 -36 -9t-7 -17q0 -16 21 -113t29 -131h13q73 221 73 248q0 11 -5.5 14.5t-21.5 3.5h-23l-4 7l9 68q11 0 42.5 -1t67.5 -1l95 1l-8 -73q-23 -3 -31.5 -11.5t-18.5 -38.5l-115 -344l-160 -14q-5 32 -30 141l-19 86h-14l-58 -213l-164 -14
q-12 46 -46.5 180z" />
    <glyph glyph-name="x" unicode="x" horiz-adv-x="507" 
d="M242 0l8 58q20 1 28 4.5t8 12.5t-11 24l-53 72q-5 -7 -22.5 -29t-27.5 -38t-10 -24q0 -11 7.5 -15.5t26.5 -5.5l3 -6l-7 -57q-13 1 -46 2.5t-59 1.5q-22 0 -50 -1.5t-36 -2.5l-4 9l8 56q15 7 32 24t55 63l78 93l-64 87q-25 35 -46.5 49t-53.5 20l-3 4l7 66
q10 0 42.5 -0.5t81.5 -0.5q40 0 80.5 2t52.5 3l4 -7l-6 -61q-35 0 -35 -19q0 -11 5 -20.5t16 -24.5l35 -47l40 55q2 3 8.5 12t9.5 15.5t3 12.5q0 8 -7 11.5t-25 3.5l-2 4l5 60h98q31 0 56 1t34 2l3 -6l-5 -64q-55 -32 -87 -74l-76 -103l70 -92q26 -34 47 -49.5t49 -17.5
l3 -3l-10 -62q-11 0 -41 1t-58 1q-40 0 -88 -2t-67 -3z" />
    <glyph glyph-name="y" unicode="y" horiz-adv-x="474" 
d="M27 -224q-22 18 -39.5 40.5t-17.5 34.5l9 15q67 8 118.5 39t84.5 82l-22 61q-31 84 -66 176t-52 128q-10 22 -23 30.5t-33 10.5l-2 5l7 68h76q47 0 107 3t60 4l2 -5l-9 -71q-26 -1 -34.5 -6.5t-8.5 -17.5q0 -19 24.5 -105.5t33.5 -116.5h14q78 205 78 225q0 10 -5.5 14
t-20.5 4h-25l-4 6l10 69q11 -1 42 -2t66 -1h96l-8 -72q-22 -5 -31 -13.5t-17 -31.5l-127 -311q-116 -280 -249 -280q-12 0 -34 18z" />
    <glyph glyph-name="z" unicode="z" horiz-adv-x="457" 
d="M255 390l-74 -7q-37 -4 -56 -12t-27 -25t-10 -50l-57 -5q2 18 6 76.5t5 99.5l7 8l131 -8l243 -2l15 -34q-74 -100 -142 -198t-106 -157l86 9q44 6 66 32t31 84l58 5q-3 -20 -10 -84t-7 -111l-16 -16l-307 6l-58 -6l-21 36z" />
    <glyph glyph-name="braceleft" unicode="{" horiz-adv-x="327" 
d="M141.5 -110.5q-32.5 15.5 -50.5 42t-18 58.5q0 21 7 43t21 58q11 26 16 42t5 28q0 57 -79 78l4 59q34 10 54.5 28.5t20.5 41.5q0 14 -5.5 30.5t-16.5 45.5q-13 33 -20 54.5t-7 41.5q0 51 44 83.5t116 32.5q23 0 48 -4t32 -6l8 -13l-15 -67q-4 1 -16.5 3t-22.5 2
q-26 0 -39.5 -15t-13.5 -41q0 -21 13 -67q14 -54 14 -76q0 -34 -20 -57.5t-53 -32.5v-5q35 -12 54 -35.5t19 -58.5q0 -25 -14 -85q-13 -52 -13 -73q0 -28 15 -44.5t42 -16.5q11 0 22.5 2.5t14.5 3.5l10 -11l-12 -67q-3 -1 -14 -5.5t-31.5 -8.5t-46.5 -4q-40 0 -72.5 15.5z
" />
    <glyph glyph-name="bar" unicode="|" horiz-adv-x="317" 
d="M100 -256v215.5t1 316.5l1 520l98 11l18 -13q-1 -55 -3.5 -227t-2.5 -276l1 -549l-99 -11z" />
    <glyph glyph-name="braceright" unicode="}" horiz-adv-x="327" 
d="M46.5 -122q-25.5 4 -32.5 6l-8 13l15 67q4 -1 16.5 -3t22.5 -2q26 0 39.5 15t13.5 40q0 22 -13 72q-14 56 -14 79q0 34 20 57t53 32v6q-35 12 -54 35.5t-19 58.5q0 23 14 81q13 48 13 70q0 28 -15 44.5t-42 16.5q-11 0 -22.5 -2.5t-14.5 -3.5l-10 11l12 67q3 1 14 5.5
t31.5 8.5t46.5 4q40 0 72.5 -15.5t50.5 -42t18 -58.5q0 -20 -7 -42t-21 -55q-8 -19 -14.5 -37.5t-6.5 -29.5q0 -31 21.5 -51t58.5 -27l-4 -59q-34 -9 -55 -27.5t-21 -43.5q0 -13 7 -33.5t15 -41.5q14 -35 20.5 -56t6.5 -40q0 -54 -43.5 -88.5t-116.5 -34.5q-22 0 -47.5 4z
" />
    <glyph glyph-name="asciitilde" unicode="~" horiz-adv-x="505" 
d="M20 212v13l98 107l20 4q16 0 48.5 -6t64.5 -13q82 -18 101 -18q13 0 30.5 12.5t31.5 26.5l18 18h13l41 -45v-13l-97 -107l-21 -4q-16 0 -48.5 6t-64.5 13q-82 18 -101 18q-13 0 -30.5 -12.5t-31.5 -26.5l-18 -18h-13z" />
    <glyph glyph-name="uni00A0" unicode="&#xa0;" horiz-adv-x="160" 
 />
    <glyph glyph-name="exclamdown" unicode="&#xa1;" horiz-adv-x="284" 
d="M88.5 325.5q-21.5 22.5 -21.5 61.5q0 41 24.5 66t65.5 25q40 0 61 -22t21 -62q0 -41 -24 -66t-66 -25q-39 0 -60.5 22.5zM33 -221l67 444l80 13l18 -16l26 -419l-15 -19l-156 -24z" />
    <glyph glyph-name="cent" unicode="&#xa2;" horiz-adv-x="435" 
d="M404 66q-6 -5 -27 -20.5t-51.5 -32.5t-58.5 -23l-17 -141l-87 -10l-7 6l18 152q-73 20 -113 78.5t-40 148.5q0 102 56.5 170t151.5 81l20 172l89 11l6 -9l-20 -174q30 -4 51.5 -10t26.5 -8l4 -10q-3 -13 -10.5 -61t-11.5 -102l-76 -4v34q0 65 -53 65q-78 0 -78 -115
q0 -160 97 -160q24 0 47 6t37.5 13t18.5 9l9 -4z" />
    <glyph glyph-name="sterling" unicode="&#xa3;" horiz-adv-x="515" 
d="M347.5 -6q-21.5 6 -61.5 19q-36 13 -61 19.5t-48 6.5q-56 0 -120 -39l-13 6l-22 73q87 50 87 123v38q-1 23 -13.5 30.5t-51.5 9.5l-4 6l7 60l62 9v24q0 56 34.5 107t91 81.5t117.5 30.5q33 0 66 -4t51 -11l5 -11l-37 -110l-19 -3q-37 21 -63 30.5t-47 9.5
q-32 0 -46 -19.5t-15 -63.5l-3 -63q56 0 95 1t51 2l4 -6l-10 -75q-11 1 -49 2t-93 1l-2 -51q-1 -30 -11.5 -59t-27.5 -44l57 13q21 0 62 -9q7 -1 28.5 -5t35.5 -4q27 0 43.5 20t17.5 55l27 -1q11 -16 18 -43t7 -52q0 -48 -30 -79t-76 -31q-22 0 -43.5 6z" />
    <glyph glyph-name="currency" unicode="&#xa4;" horiz-adv-x="489" 
d="M83 129l-60 85l73 65q-15 30 -15 68q0 39 17 71l-77 71l3 20l85 61q6 -8 20 -23t23 -25q1 -1 23 -26q34 16 70 16t70 -16l69 78l20 -4l61 -85l-72 -66q17 -34 17 -72q0 -39 -17 -71q28 -24 49 -42.5t27 -24.5l-4 -19l-85 -63l-66 72q-32 -16 -69 -16t-73 18
q-25 -28 -44 -48.5t-25 -26.5zM303 289.5q24 23.5 24 57.5t-24 58t-58 24t-57.5 -24t-23.5 -58t23.5 -57.5t57.5 -23.5t58 23.5z" />
    <glyph glyph-name="yen" unicode="&#xa5;" horiz-adv-x="597" 
d="M144 59q33 4 48.5 10t22 18.5t8.5 37.5q-77 -1 -168 -1l-9 8l10 68h156q-7 16 -14 30l-18 32q-59 -1 -123 -1l-9 7l10 68h77q-17 28 -49.5 57.5t-59.5 43.5l2 30l6 38q11 0 42 -1t64 -1q26 1 89 3t67 3l6 -10l-6 -59q-24 -1 -32.5 -5t-8.5 -12q0 -6 5.5 -19.5t13.5 -30.5
l13 -33l33 -47l53 116l3 9t2 9q0 6 -2 7.5t-6 1.5h-9q-13 0 -21 8l1 25l5 35l124 -1q32 0 57.5 1t33.5 2l5 -7l-7 -63q-33 -13 -48.5 -27t-33.5 -44l-16 -27l86 2l8 -9l-5 -69h-134l-22 -39q-6 -10 -9 -23q117 2 160 4l8 -10l-5 -69h-180q0 -15 3 -29q2 -14 7.5 -20.5
t16.5 -7.5q5 -1 19 -1t24.5 1t13.5 1l4 -6l-8 -67q-18 1 -65.5 2.5t-91.5 1.5q-31 0 -83.5 -3.5t-69.5 -4.5z" />
    <glyph glyph-name="brokenbar" unicode="&#xa6;" horiz-adv-x="317" 
d="M101 369l1 427l98 11l18 -13q-1 -41 -3 -160.5t-3 -258.5l-100 -14zM100 -256q0 239 1 411l98 15l13 -12l1 -416l-99 -11z" />
    <glyph glyph-name="section" unicode="&#xa7;" horiz-adv-x="494" 
d="M445.5 190.5q-25.5 -36.5 -68.5 -62.5q23 -31 23 -69q0 -41 -26.5 -77t-73.5 -58t-103 -22q-37 0 -70.5 11t-53.5 29t-20 38q0 31 8.5 61.5t23.5 51.5l23 -2q7 -40 35.5 -66.5t64.5 -26.5q20 0 33 11t13 28q0 25 -21 42.5t-69 45.5q-44 25 -71.5 44.5t-47.5 49.5t-20 70
q0 43 27.5 78.5t71.5 61.5q-26 33 -26 73q0 43 24.5 78t67.5 55.5t95 20.5t92.5 -15t40.5 -35q0 -26 -12 -65t-23 -49h-22q-10 28 -31.5 45.5t-44.5 17.5q-17 0 -28 -10t-11 -26q0 -22 21.5 -41t66.5 -47q43 -27 70.5 -48t47 -50.5t19.5 -66.5q0 -39 -25.5 -75.5zM179 274.5
q28 -25.5 86 -59.5q30 -17 60 -37q16 21 16 45q0 34 -27 59t-82 60q-42 26 -61 41q-20 -22 -20 -48q0 -35 28 -60.5z" />
    <glyph glyph-name="dieresis" unicode="&#xa8;" horiz-adv-x="398" 
d="M52.5 573q-17.5 18 -17.5 51q0 34 20.5 55t54.5 21q32 0 50 -18.5t18 -50.5q0 -34 -20.5 -55t-54.5 -21q-33 0 -50.5 18zM236.5 573q-17.5 18 -17.5 51q0 34 20.5 55t54.5 21q32 0 50 -18.5t18 -50.5q0 -34 -20.5 -55t-54.5 -21q-33 0 -50.5 18z" />
    <glyph glyph-name="copyright" unicode="&#xa9;" horiz-adv-x="697" 
d="M195.5 29q-69.5 41 -110.5 111t-41 153t41 153t110.5 111t152.5 41t153 -41t111 -111t41 -153t-41 -153t-111 -111t-153 -41t-152.5 41zM473.5 75q57.5 34 91.5 92t34 126t-34 126t-91.5 92t-125.5 34t-125 -34t-90.5 -92t-33.5 -126t33.5 -126t90.5 -92t125 -34
t125.5 34zM221.5 171.5q-40.5 43.5 -40.5 118.5q0 83 47.5 128.5t136.5 45.5q29 0 64 -5t46 -7l4 -9q-1 -4 -4 -17t-6.5 -37.5t-4.5 -51.5l-73 -4q0 2 0.5 9.5t0.5 17.5q0 21 -9.5 30t-32.5 9q-31 0 -44 -20.5t-13 -71.5q0 -57 14 -85t45 -28q23 0 34.5 14.5t14.5 46.5l72 6
q-1 -10 -4 -43t-3 -62l-6 -9q-4 -2 -21.5 -6.5t-45 -8.5t-57.5 -4q-74 0 -114.5 43.5z" />
    <glyph glyph-name="ordfeminine" unicode="&#xaa;" horiz-adv-x="350" 
d="M221.5 338.5q-19.5 12.5 -21.5 36.5l-8 3q-20 -20 -40.5 -34.5t-34.5 -14.5q-41 0 -69 31.5t-28 77.5q0 21 11.5 36.5t30.5 19.5l132 25v4q0 23 -15 36.5t-41 13.5q-16 0 -33.5 -6.5t-29.5 -13.5t-15 -9l-8 4l-15 49l34 17t56.5 25t45.5 12q68 0 98.5 -26.5t30.5 -67.5
q0 -7 -3 -28t-4 -33q-7 -44 -7 -59q0 -11 5.5 -17.5t14.5 -6.5q8 0 16 3t10 4l11 -17q-3 -5 -14 -22t-27 -34t-30 -21q-33 0 -52.5 12.5zM191 416l2 58l-55 -13q-13 -3 -13 -16q0 -16 8.5 -26t21.5 -10q18 0 36 7z" />
    <glyph glyph-name="guillemotleft" unicode="&#xab;" horiz-adv-x="461" 
d="M280.5 147.5q-50.5 53.5 -65.5 69.5v23q15 16 65.5 70t94.5 105l50 -29l5 -19q-28 -44 -59 -100l-21 -37q52 -92 80 -138l-5 -19l-50 -30q-44 51 -94.5 104.5zM86.5 147.5q-50.5 53.5 -65.5 69.5v23q15 16 65.5 70t94.5 105l50 -29l5 -19q-28 -44 -59 -100l-21 -37
q52 -92 80 -138l-5 -19l-50 -30q-44 51 -94.5 104.5z" />
    <glyph glyph-name="logicalnot" unicode="&#xac;" horiz-adv-x="506" 
d="M328 25l1 191h-78l-227 -1l-8 11l16 109l232 -1q44 0 106.5 2.5t82.5 3.5l6 -13q-2 -13 -6 -59.5t-5 -99.5q0 -51 0.5 -87.5t0.5 -47.5l-109 -16z" />
    <glyph glyph-name="uni00AD" unicode="&#xad;" horiz-adv-x="341" 
d="M42 201l9 90l160 18q37 4 55 6.5t22 3.5l11 -15l-11 -92l-234 -26z" />
    <glyph glyph-name="registered" unicode="&#xae;" horiz-adv-x="468" 
d="M131.5 330.5q-46.5 27.5 -74 74t-27.5 102.5t27.5 102.5t74 74t102.5 27.5t102.5 -27.5t74 -74t27.5 -102.5t-27.5 -102.5t-74 -74t-102.5 -27.5t-102.5 27.5zM316 365q38 22 60 60t22 82t-22 82t-60 60t-82 22t-82 -22t-60 -60t-22 -82t22 -82t60 -60t82 -22t82 22z
M272 415.5q-9 5.5 -17 23.5l-22 49h-19q-1 -9 -1 -24q0 -16 4 -19.5t20 -4.5l1 -3l-3 -23q-5 0 -17.5 1t-24.5 1h-12l-45 -3l3 25q13 2 17 8.5t4 22.5v105q0 11 -2 14.5t-7 3.5q-6 0 -8 -0.5t-3 -0.5l-3 3l3 23l43 -1h11l38 2q88 0 88 -56q0 -38 -40 -60l22 -36
q17 -27 34 -29l2 -3v-10.5t-9 -9.5t-31 -4q-17 0 -26 5.5zM262 555q0 29 -39 29q-4 0 -5 -1.5t-1 -6.5q-2 -36 -2 -53q4 0 11 -1t14 -1q22 7 22 34z" />
    <glyph glyph-name="macron" unicode="&#xaf;" horiz-adv-x="398" 
d="M50 580l16 90l154 -1q31 0 72 2.5t54 3.5l9 -16l-14 -90l-141 -1l-137 -1z" />
    <glyph glyph-name="degree" unicode="&#xb0;" horiz-adv-x="302" 
d="M84.5 409q-30.5 18 -48 48.5t-17.5 66.5t17.5 66.5t48 48t66.5 17.5t66.5 -17.5t48 -48t17.5 -66.5t-17.5 -66.5t-48 -48.5t-66.5 -18t-66.5 18zM199 475.5q19 19.5 19 48.5t-19 48t-48 19t-48 -19t-19 -48t19 -48.5t48 -19.5t48 19.5z" />
    <glyph glyph-name="plusminus" unicode="&#xb1;" horiz-adv-x="506" 
d="M192 52v58.5t1 103.5q-61 -1 -107.5 -1h-61.5l-8 12l16 109l161 -1l1 167l106 11l14 -6q-1 -16 -3 -70.5t-3 -101.5q48 1 103 3t72 3l6 -14l-11 -110l-170 -1l1 -154l-105 -16zM27 -93l11 88h228h120q83 1 83 3l9 -17l-12 -89l-429 -1z" />
    <glyph glyph-name="uni00B2" unicode="&#xb2;" horiz-adv-x="362" 
d="M107 479q37 41 53 68.5t15 47.5q0 33 -37 33q-45 0 -84 -50h-11l-16 73q27 35 66.5 56t78.5 21q56 0 91.5 -27t35.5 -70q0 -44 -28.5 -90.5t-101.5 -120.5l3 -6h47q27 0 39 13t16 47l72 5l-8.5 -59.5t-9.5 -81.5l-12 -11q-26 1 -106 4t-122 3l-61 -5l-6 59z" />
    <glyph glyph-name="uni00B3" unicode="&#xb3;" horiz-adv-x="318" 
d="M36 345q-14 19 -18 65l14 14q31 -12 61 -12q33 0 53.5 12t20.5 32t-19.5 29t-62.5 9l-8 9l-7 56l44 8q20 8 31 22t11 30q0 13 -8.5 20.5t-23.5 7.5q-31 0 -71 -28h-10l-20 63q27 18 66.5 32t70.5 14q50 0 80 -22t30 -58q0 -29 -20 -53t-54 -35v-7q50 -17 72.5 -40
t22.5 -57q0 -32 -30 -62.5t-78 -49t-100 -18.5q-33 0 -47 19z" />
    <glyph glyph-name="acute" unicode="&#xb4;" horiz-adv-x="398" 
d="M145 526l-37 47q52 52 103.5 105.5t66.5 69.5h14l66 -80l-1 -15q-17 -11 -76 -49.5t-118 -82.5z" />
    <glyph glyph-name="uni00B5" unicode="&#xb5;" horiz-adv-x="543" 
d="M545 131q-15 -85 -79 -139q-53 0 -76.5 29t-27.5 98v5l-12 4q-27 -61 -57.5 -97t-53.5 -36q-51 22 -85 68l-12 -6q12 -127 64 -278q-64 -17 -141 -17l-17 11l27 416q-27 93 -27 163q0 50 12 111l22 13h14l105 -26l-41 -265q21 -28 45 -28q31 0 60 34t62 104v31
q0 66 5 126l21 21q73 -13 127 -37q-39 -135 -74 -225q-1 -44 10.5 -62.5t41.5 -18.5q25 0 75 14z" />
    <glyph glyph-name="paragraph" unicode="&#xb6;" horiz-adv-x="570" 
d="M124.5 -69q-42.5 28 -42.5 69q0 25 13 59.5t31 58.5h17q4 -60 30.5 -93.5t67.5 -33.5q48 0 66.5 28t18.5 96v440q-1 9 -6 12t-22 3q-35 0 -53 -37.5t-18 -104.5q0 -63 14.5 -107t48.5 -91v-28q-80 2 -142 29t-97 78t-35 120q0 62 30 112.5t83 79t121 28.5q43 0 85 -3
q50 -2 66 -2q38 0 86 1.5t67 1.5l-6 -71l-2 -4q-34 -4 -44 -12.5t-12 -33.5q-4 -34 -8 -154.5t-4 -192.5q0 -76 -32 -139t-90 -100t-132 -37q-57 0 -99.5 28z" />
    <glyph glyph-name="periodcentered" unicode="&#xb7;" horiz-adv-x="238" 
d="M54 180q-21 22 -21 62q0 42 24 66.5t66 24.5q39 0 60.5 -22.5t21.5 -61.5q0 -41 -24.5 -66t-65.5 -25q-40 0 -61 22z" />
    <glyph glyph-name="cedilla" unicode="&#xb8;" horiz-adv-x="398" 
d="M111 -226q-26 13 -26 34q0 10 13 29t29 37h9q1 -27 14.5 -42t36.5 -15q16 0 26 7.5t10 20.5q0 15 -23 31t-63 38l32 117h55l-19 -73q101 -53 101 -100q0 -26 -19 -48.5t-51 -35.5t-69 -13q-30 0 -56 13z" />
    <glyph glyph-name="uni00B9" unicode="&#xb9;" horiz-adv-x="273" 
d="M26 378q32 3 46 13.5t14 32.5v192q0 23 -6.5 30t-25.5 7l-32 -1l-5 5l4 47q31 2 87 10q51 6 80 10t31 4l10 -27q-11 -8 -17 -19t-10 -29q-8 -51 -8 -221q0 -23 6.5 -33t20.5 -10q11 0 19.5 0.5t10.5 0.5l3 -4l-9 -55q-11 1 -41.5 2t-61.5 1t-70 -3t-51 -4z" />
    <glyph glyph-name="ordmasculine" unicode="&#xba;" horiz-adv-x="362" 
d="M62 368q-41 42 -41 113q0 79 45 124.5t123 45.5q73 0 112.5 -40t39.5 -114q0 -79 -44.5 -125t-122.5 -46q-71 0 -112 42zM211 407.5q9 15.5 9 53.5q0 64 -9.5 90t-32.5 26q-20 0 -29 -15.5t-9 -51.5q0 -65 9.5 -91.5t32.5 -26.5q20 0 29 15.5z" />
    <glyph glyph-name="guillemotright" unicode="&#xbb;" horiz-adv-x="461" 
d="M230 72l-5 19q11 17 59 100l21 37l-16 28q-9 16 -24.5 44t-39.5 67l5 19l50 29q44 -51 95 -104.5t66 -68.5v-24q-15 -16 -66 -69.5t-95 -105.5zM36 72l-5 19q11 17 59 100l21 37l-16 28q-9 16 -24.5 44t-39.5 67l5 19l50 29q44 -51 95 -104.5t66 -68.5v-24
q-15 -16 -66 -69.5t-95 -105.5z" />
    <glyph glyph-name="onequarter" unicode="&#xbc;" horiz-adv-x="796" 
d="M26 302q32 3 46 13.5t14 32.5v192q0 23 -6.5 30t-25.5 7q-10 0 -19.5 -1t-12.5 -1l-5 6l4 47q31 2 87 10q53 5 81.5 9.5t29.5 4.5l10 -27q-11 -8 -17 -19t-10 -29q-8 -51 -8 -222q0 -22 6.5 -32.5t20.5 -10.5q11 0 19.5 1t10.5 1l3 -4l-9 -55q-11 1 -41.5 2t-61.5 1
t-70 -3t-51 -4zM113 -62l-6 15q20 29 84.5 126t117.5 181l264 419l72 -28l9 -21q-29 -45 -108.5 -166.5t-159.5 -244.5q-69 -109 -124 -196t-73 -115zM607 0q1 8 2.5 35t1.5 54l-154 3l1 60l170 240l6 2l85 -8v-222h48l7 -9l-7 -70l-47 1q1 -30 2 -51t2 -28l-8 -7l-102 -8z
M612 164v94h-7l-63 -94h70z" />
    <glyph glyph-name="onehalf" unicode="&#xbd;" horiz-adv-x="827" 
d="M26 302q32 3 46 13.5t14 32.5v192q0 23 -6.5 30t-25.5 7q-10 0 -19.5 -1t-12.5 -1l-5 6l4 47q31 2 87 10q53 5 81.5 9.5t29.5 4.5l10 -27q-11 -8 -17 -19t-10 -29q-8 -51 -8 -222q0 -22 6.5 -32.5t20.5 -10.5q11 0 19.5 1t10.5 1l3 -4l-9 -55q-11 1 -41.5 2t-61.5 1
t-70 -3t-51 -4zM113 -62l-6 15q20 29 84.5 126t117.5 181l264 419l72 -28l9 -21q-29 -45 -108.5 -166.5t-159.5 -244.5q-69 -109 -124 -196t-73 -115zM572 144q37 42 53 69.5t15 47.5q0 33 -37 33q-45 0 -84 -50h-11l-16 72q27 35 66.5 56.5t78.5 21.5q56 0 91.5 -27
t35.5 -70q0 -44 -28.5 -90.5t-101.5 -121.5l3 -5h47q27 0 39 12.5t16 46.5l72 6l-8.5 -59.5t-9.5 -81.5l-12 -11q-26 1 -105.5 4t-122.5 3l-61 -5l-6 58z" />
    <glyph glyph-name="threequarters" unicode="&#xbe;" horiz-adv-x="795" 
d="M36 268.5q-14 18.5 -18 64.5l14 14q28 -11 61 -11t53.5 12t20.5 32q0 19 -19.5 28t-62.5 9l-8 10l-7 55l44 9q20 8 31 21.5t11 30.5q0 12 -8.5 19.5t-23.5 7.5q-32 0 -71 -27h-10l-20 63q27 18 66.5 32t70.5 14q50 0 80 -22t30 -58q0 -29 -20 -53t-54 -35v-7
q49 -16 72 -39.5t23 -57.5q0 -32 -30 -62.5t-78 -49t-100 -18.5q-33 0 -47 18.5zM111 -62l-6 15q20 29 84.5 126t117.5 181l264 419l72 -28l9 -21q-29 -45 -108.5 -166.5t-159.5 -244.5q-69 -109 -124 -196t-73 -115zM605 0q1 8 2.5 35t1.5 54l-154 3l1 60l170 240l6 2
l85 -8v-222h48l7 -9l-7 -70l-47 1q1 -30 2 -51t2 -28l-8 -7l-102 -8zM610 164v94h-7l-63 -94h70z" />
    <glyph glyph-name="questiondown" unicode="&#xbf;" horiz-adv-x="375" 
d="M151.5 325.5q-21.5 22.5 -21.5 61.5q0 41 24 66t65 25q40 0 61.5 -22.5t21.5 -61.5q0 -41 -24.5 -66t-65.5 -25q-39 0 -60.5 22.5zM135.5 -215.5q-62.5 23.5 -98.5 63.5t-36 88q0 40 16.5 68.5t48 54.5t99.5 72l3 7l-12 77l7 12l101 19l13 -7l24 -129l-3 -14l-104 -56
q-50 -31 -50 -66q0 -42 46 -66t129 -28l11 -16l-39 -98l-16 -7q-77 2 -139.5 25.5z" />
    <glyph glyph-name="Agrave" unicode="&#xc0;" horiz-adv-x="648" 
d="M332 1l5 71q34 3 48 6t19 9t5 20q0 3 -4 27l-15 60q-52 2 -85 2q-23 0 -67 -4l-22 -2l-18 -62q-5 -22 -5 -28q0 -15 8.5 -20.5t31.5 -5.5h36l6 -8l-8 -71q-15 1 -62.5 2.5t-86.5 1.5l-126 -1l7 75q21 4 35 18.5t24 42.5l170 505l203 16l13 -8q15 -59 61.5 -238t73.5 -268
q10 -35 25.5 -50.5t44.5 -17.5l6 -9l-8 -67q-14 0 -51.5 1t-78.5 1q-56 0 -110 -2.5t-69 -3.5zM306 292q5 0 65 3l-48 202h-17l-62 -205h62zM274.5 733q-72.5 17 -93.5 22l-6 15l30 89l14 6q20 -10 91.5 -42t142.5 -61l-16 -57l-16 -10q-74 21 -146.5 38z" />
    <glyph glyph-name="Aacute" unicode="&#xc1;" horiz-adv-x="648" 
d="M332 1l5 71q34 3 48 6t19 9t5 20q0 3 -4 27l-15 60q-52 2 -85 2q-23 0 -67 -4l-22 -2l-18 -62q-5 -22 -5 -28q0 -15 8.5 -20.5t31.5 -5.5h36l6 -8l-8 -71q-15 1 -62.5 2.5t-86.5 1.5l-126 -1l7 75q21 4 35 18.5t24 42.5l170 505l203 16l13 -8q15 -59 61.5 -238t73.5 -268
q10 -35 25.5 -50.5t44.5 -17.5l6 -9l-8 -67q-14 0 -51.5 1t-78.5 1q-56 0 -110 -2.5t-69 -3.5zM306 292q5 0 65 3l-48 202h-17l-62 -205h62zM247 705l-17 57q72 29 143 61t91 42l14 -6l30 -89l-6 -15q-21 -5 -93.5 -22t-146.5 -38z" />
    <glyph glyph-name="Acircumflex" unicode="&#xc2;" horiz-adv-x="648" 
d="M332 1l5 71q34 3 48 6t19 9t5 20q0 3 -4 27l-15 60q-52 2 -85 2q-23 0 -67 -4l-22 -2l-18 -62q-5 -22 -5 -28q0 -15 8.5 -20.5t31.5 -5.5h36l6 -8l-8 -71q-15 1 -62.5 2.5t-86.5 1.5l-126 -1l7 75q21 4 35 18.5t24 42.5l170 505l203 16l13 -8q15 -59 61.5 -238t73.5 -268
q10 -35 25.5 -50.5t44.5 -17.5l6 -9l-8 -67q-14 0 -51.5 1t-78.5 1q-56 0 -110 -2.5t-69 -3.5zM306 292q5 0 65 3l-48 202h-17l-62 -205h62zM182 710l-29 49q49 36 99.5 77t65.5 53h23q0 2 54 -42q94 -75 110 -88l-28 -49l-19 -6q-41 19 -129 56q-72 -30 -128 -56z" />
    <glyph glyph-name="Atilde" unicode="&#xc3;" horiz-adv-x="648" 
d="M332 1l5 71q34 3 48 6t19 9t5 20q0 3 -4 27l-15 60q-52 2 -85 2q-23 0 -67 -4l-22 -2l-18 -62q-5 -22 -5 -28q0 -15 8.5 -20.5t31.5 -5.5h36l6 -8l-8 -71q-15 1 -62.5 2.5t-86.5 1.5l-126 -1l7 75q21 4 35 18.5t24 42.5l170 505l203 16l13 -8q15 -59 61.5 -238t73.5 -268
q10 -35 25.5 -50.5t44.5 -17.5l6 -9l-8 -67q-14 0 -51.5 1t-78.5 1q-56 0 -110 -2.5t-69 -3.5zM306 292q5 0 65 3l-48 202h-17l-62 -205h62zM142 726v13l79 104l17 4q19 0 81 -18q5 -1 31.5 -8.5t38.5 -7.5q11 0 25.5 12t26 25t14.5 17h13l48 -44v-12l-80 -104l-16 -4
q-16 0 -45.5 8t-35.5 9q-58 16 -71 16q-11 0 -25.5 -12t-26 -25t-14.5 -17h-13z" />
    <glyph glyph-name="Adieresis" unicode="&#xc4;" horiz-adv-x="648" 
d="M332 1l5 71q34 3 48 6t19 9t5 20q0 3 -4 27l-15 60q-52 2 -85 2q-23 0 -67 -4l-22 -2l-18 -62q-5 -22 -5 -28q0 -15 8.5 -20.5t31.5 -5.5h36l6 -8l-8 -71q-15 1 -62.5 2.5t-86.5 1.5l-126 -1l7 75q21 4 35 18.5t24 42.5l170 505l203 16l13 -8q15 -59 61.5 -238t73.5 -268
q10 -35 25.5 -50.5t44.5 -17.5l6 -9l-8 -67q-14 0 -51.5 1t-78.5 1q-56 0 -110 -2.5t-69 -3.5zM306 292q5 0 65 3l-48 202h-17l-62 -205h62zM182.5 712q-17.5 18 -17.5 51q0 34 20.5 55t54.5 21q32 0 50 -18.5t18 -50.5q0 -34 -20.5 -55t-54.5 -21q-33 0 -50.5 18z
M366.5 712q-17.5 18 -17.5 51q0 34 20.5 55t54.5 21q32 0 50 -18.5t18 -50.5q0 -34 -20.5 -55t-54.5 -21q-33 0 -50.5 18z" />
    <glyph glyph-name="Aring" unicode="&#xc5;" horiz-adv-x="648" 
d="M332 1l5 71q34 3 48 6t19 9t5 20q0 3 -4 27l-15 60q-52 2 -85 2q-23 0 -67 -4l-22 -2l-18 -62q-5 -22 -5 -28q0 -15 8.5 -20.5t31.5 -5.5h36l6 -8l-8 -71q-15 1 -62.5 2.5t-86.5 1.5l-126 -1l7 75q21 4 35 18.5t24 42.5l170 505l203 16l13 -8q15 -59 61.5 -238t73.5 -268
q10 -35 25.5 -50.5t44.5 -17.5l6 -9l-8 -67q-14 0 -51.5 1t-78.5 1q-56 0 -110 -2.5t-69 -3.5zM306 292q5 0 65 3l-48 202h-17l-62 -205h62zM255.5 706q-24.5 26 -24.5 70q0 43 28 71.5t74 28.5q48 0 71 -26.5t23 -65.5q0 -43 -28 -73.5t-75 -30.5q-44 0 -68.5 26z
M357.5 747.5q11.5 7.5 11.5 27.5q0 18 -11 28.5t-32 10.5q-18 0 -28 -9.5t-10 -25.5q0 -20 13 -29.5t30 -9.5q15 0 26.5 7.5z" />
    <glyph glyph-name="AE" unicode="&#xc6;" horiz-adv-x="899" 
d="M389 85.5q15 8.5 15 31.5q0 17 -3 42l-9 77l-82 -11l-81 -19l-33 -79q-9 -24 -9 -32q0 -13 11 -17t44 -4l22 -7l-6 -72q-21 1 -75 2.5t-104 1.5q-27 0 -48 -1t-28 -1l-5 72q14 3 29.5 20t29.5 45l191 411q-2 14 -8 19.5t-18 5.5q-9 0 -17 -1t-11 -1l-9 11l8 68
q23 -1 98.5 -2t181.5 -1q112 1 204.5 4t125.5 8l10 -13q-3 -16 -11 -73.5t-12 -115.5l-110 -7q0 4 1 15.5t1 22.5q0 27 -8.5 39t-32 16.5t-75.5 4.5q-29 0 -37 -5t-8 -21l22 -160l87 12l98 22l13 -13l-12 -97l-93 -9l-78 -11l16 -103q5 -35 20.5 -51t43.5 -16q51 0 74.5 8
t34.5 31t18 73l102 7l10 -12q-3 -16 -12.5 -73t-15.5 -121l-12 -13q-28 1 -123.5 4t-181.5 3h-40q-51 -1 -100.5 -3.5t-63.5 -3.5l-5 8l4 71q47 5 62 13.5zM384 332l-19 165h-18l-76 -177l56 4z" />
    <glyph glyph-name="Ccedilla" unicode="&#xc7;" horiz-adv-x="610" 
d="M160.5 27q-66.5 38 -102 109.5t-35.5 170.5q0 108 42 186.5t120.5 120.5t187.5 42q38 0 82 -5.5t76 -11.5t41 -8l7 -16q-2 -7 -7 -34t-11 -71.5t-9 -94.5l-122 -7q0 4 1 19t1 35q0 42 -22 61t-70 19q-68 0 -99.5 -47.5t-31.5 -152.5q0 -118 35 -179t102 -61q47 0 72 30
t34 99l122 8q-3 -18 -9.5 -80t-7.5 -118l-11 -14q0 -1 -35 -11t-85.5 -18.5t-106.5 -8.5q-92 0 -158.5 38zM246 -226q-26 13 -26 34q0 10 13 29t29 37h9q1 -27 14.5 -42t36.5 -15q16 0 26 7.5t10 20.5q0 15 -23 31t-63 38l32 117h55l-19 -73q101 -53 101 -100
q0 -26 -19 -48.5t-51 -35.5t-69 -13q-30 0 -56 13z" />
    <glyph glyph-name="Egrave" unicode="&#xc8;" horiz-adv-x="599" 
d="M571 200q-18 -95 -28 -194l-12 -13q-180 7 -315 7q-91 0 -189 -10l8 78q40 6 54.5 24.5t14.5 62.5l1 361q0 32 -6 43t-24 11q-15 0 -29 -2l-9 11l9 68h22q159 -3 182 -3q218 0 306 12l10 -13q-8 -39 -14.5 -93t-8.5 -96l-110 -7l2 38q0 27 -8.5 39t-32 16.5t-74.5 4.5
q-29 0 -37 -5t-8 -25l-7 -138l89 -1q24 0 113 7l10 -11l-14 -98q-99 3 -126 3q-21 0 -45 -2.5t-31 -3.5l-2 -117q0 -28 4 -40t15.5 -16t38.5 -4q56 0 82.5 8t38 30.5t18.5 72.5l103 7zM246.5 733q-72.5 17 -93.5 22l-6 15l30 89l14 6q20 -10 91.5 -42t142.5 -61l-16 -57
l-16 -10q-74 21 -146.5 38z" />
    <glyph glyph-name="Eacute" unicode="&#xc9;" horiz-adv-x="599" 
d="M571 200q-18 -95 -28 -194l-12 -13q-180 7 -315 7q-91 0 -189 -10l8 78q40 6 54.5 24.5t14.5 62.5l1 361q0 32 -6 43t-24 11q-15 0 -29 -2l-9 11l9 68h22q159 -3 182 -3q218 0 306 12l10 -13q-8 -39 -14.5 -93t-8.5 -96l-110 -7l2 38q0 27 -8.5 39t-32 16.5t-74.5 4.5
q-29 0 -37 -5t-8 -25l-7 -138l89 -1q24 0 113 7l10 -11l-14 -98q-99 3 -126 3q-21 0 -45 -2.5t-31 -3.5l-2 -117q0 -28 4 -40t15.5 -16t38.5 -4q56 0 82.5 8t38 30.5t18.5 72.5l103 7zM240 705l-17 57q72 29 143 61t91 42l14 -6l30 -89l-6 -15q-21 -5 -93.5 -22t-146.5 -38z
" />
    <glyph glyph-name="Ecircumflex" unicode="&#xca;" horiz-adv-x="599" 
d="M571 200q-18 -95 -28 -194l-12 -13q-180 7 -315 7q-91 0 -189 -10l8 78q40 6 54.5 24.5t14.5 62.5l1 361q0 32 -6 43t-24 11q-15 0 -29 -2l-9 11l9 68h22q159 -3 182 -3q218 0 306 12l10 -13q-8 -39 -14.5 -93t-8.5 -96l-110 -7l2 38q0 27 -8.5 39t-32 16.5t-74.5 4.5
q-29 0 -37 -5t-8 -25l-7 -138l89 -1q24 0 113 7l10 -11l-14 -98q-99 3 -126 3q-21 0 -45 -2.5t-31 -3.5l-2 -117q0 -28 4 -40t15.5 -16t38.5 -4q56 0 82.5 8t38 30.5t18.5 72.5l103 7zM176 710l-29 49q49 36 99.5 77t65.5 53h23q0 2 54 -42q94 -75 110 -88l-28 -49l-19 -6
q-41 19 -129 56q-72 -30 -128 -56z" />
    <glyph glyph-name="Edieresis" unicode="&#xcb;" horiz-adv-x="599" 
d="M571 200q-18 -95 -28 -194l-12 -13q-180 7 -315 7q-91 0 -189 -10l8 78q40 6 54.5 24.5t14.5 62.5l1 361q0 32 -6 43t-24 11q-15 0 -29 -2l-9 11l9 68h22q159 -3 182 -3q218 0 306 12l10 -13q-8 -39 -14.5 -93t-8.5 -96l-110 -7l2 38q0 27 -8.5 39t-32 16.5t-74.5 4.5
q-29 0 -37 -5t-8 -25l-7 -138l89 -1q24 0 113 7l10 -11l-14 -98q-99 3 -126 3q-21 0 -45 -2.5t-31 -3.5l-2 -117q0 -28 4 -40t15.5 -16t38.5 -4q56 0 82.5 8t38 30.5t18.5 72.5l103 7zM175.5 712q-17.5 18 -17.5 51q0 34 20.5 55t54.5 21q32 0 50 -18.5t18 -50.5
q0 -34 -20.5 -55t-54.5 -21q-33 0 -50.5 18zM359.5 712q-17.5 18 -17.5 51q0 34 20.5 55t54.5 21q32 0 50 -18.5t18 -50.5q0 -34 -20.5 -55t-54.5 -21q-33 0 -50.5 18z" />
    <glyph glyph-name="Igrave" unicode="&#xcc;" horiz-adv-x="367" 
d="M35 66q42 9 55.5 25t13.5 58l1 369q0 31 -7.5 41.5t-28.5 10.5q-15 0 -31 -2l-7 11l8 66l148 -1q28 0 89 3l66 3l-6 -76q-37 -5 -48.5 -15t-13.5 -39q-11 -213 -11 -377q0 -42 7 -55.5t29 -13.5q23 0 38 3l6 -8l-9 -73q-98 4 -156 4q-48 0 -151 -7zM106.5 730
q-72.5 17 -93.5 22l-6 15l30 89l14 6q20 -10 91.5 -42t142.5 -61l-16 -57l-16 -10q-74 21 -146.5 38z" />
    <glyph glyph-name="Iacute" unicode="&#xcd;" horiz-adv-x="367" 
d="M35 66q42 9 55.5 25t13.5 58l1 369q0 31 -7.5 41.5t-28.5 10.5q-15 0 -31 -2l-7 11l8 66l148 -1q28 0 89 3l66 3l-6 -76q-37 -5 -48.5 -15t-13.5 -39q-11 -213 -11 -377q0 -42 7 -55.5t29 -13.5q23 0 38 3l6 -8l-9 -73q-98 4 -156 4q-48 0 -151 -7zM68 705l-17 57
q72 29 143 61t91 42l14 -6l30 -89l-6 -15q-21 -5 -93.5 -22t-146.5 -38z" />
    <glyph glyph-name="Icircumflex" unicode="&#xce;" horiz-adv-x="367" 
d="M35 66q42 9 55.5 25t13.5 58l1 369q0 31 -7.5 41.5t-28.5 10.5q-15 0 -31 -2l-7 11l8 66l148 -1q28 0 89 3l66 3l-6 -76q-37 -5 -48.5 -15t-13.5 -39q-11 -213 -11 -377q0 -42 7 -55.5t29 -13.5q23 0 38 3l6 -8l-9 -73q-98 4 -156 4q-48 0 -151 -7zM37 710l-29 49
q49 36 99.5 77t65.5 53h23q0 2 54 -42q94 -75 110 -88l-28 -49l-19 -6q-41 19 -129 56q-72 -30 -128 -56z" />
    <glyph glyph-name="Eth" unicode="&#xd0;" horiz-adv-x="707" 
d="M270 -5q-51 5 -88 5q-34 0 -77.5 -3.5t-56.5 -5.5l7 79q29 5 43.5 14t20 27.5t5.5 53.5v113h-107l-9 7l11 72h105v157q0 32 -5.5 43t-22.5 11q-11 0 -20.5 -1t-12.5 -1l-8 11l9 70q16 0 57.5 -1.5t80.5 -1.5q41 0 91 2t70 3q154 0 237.5 -78.5t83.5 -221.5
q0 -107 -43.5 -189t-122.5 -127t-181 -45q-16 2 -67 7zM388 360l7 -9l-7 -73h-106l-2 -125q0 -37 13 -49.5t51 -12.5q78 0 115.5 54.5t37.5 169.5q0 124 -42.5 177.5t-137.5 53.5q-14 0 -19 -5.5t-6 -19.5l-8 -163z" />
    <glyph glyph-name="Ntilde" unicode="&#xd1;" horiz-adv-x="733" 
d="M343.5 231q-74.5 113 -95.5 144h-12l1 -254q0 -27 8 -37.5t28 -10.5q11 0 23 1.5t16 1.5l7 -7l-10 -73q-16 1 -57.5 2.5t-81.5 1.5q-38 0 -80.5 -3.5t-55.5 -4.5l9 77q30 4 43.5 18.5t14.5 44.5l12 375q0 23 -6 35t-22.5 18t-49.5 10l-10 11l7 68q12 -1 52 -3t77 -2
q30 0 65 1.5t45 2.5q71 -119 153 -246.5t82 -125.5h12l-2 250q-1 25 -8.5 34t-24.5 9h-33l-5 9l7 70q16 -1 58.5 -2.5t85.5 -1.5q33 0 73.5 1.5t53.5 2.5l-5 -76q-33 -4 -46.5 -18.5t-14.5 -44.5l-13 -517l-140 -13q-86 139 -160.5 252zM194 726v13l79 104l17 4q19 0 81 -18
q5 -1 31.5 -8.5t38.5 -7.5q11 0 25.5 12t26 25t14.5 17h13l48 -44v-12l-80 -104l-16 -4q-16 0 -45.5 8t-35.5 9q-58 16 -71 16q-11 0 -25.5 -12t-26 -25t-14.5 -17h-13z" />
    <glyph glyph-name="Ograve" unicode="&#xd2;" horiz-adv-x="666" 
d="M99.5 72q-76.5 84 -76.5 235q0 108 39 186.5t113 120.5t175 42q142 0 218 -82t76 -234q0 -108 -40 -187.5t-114.5 -122t-175.5 -42.5q-138 0 -214.5 84zM426.5 139.5q30.5 48.5 30.5 144.5q0 132 -32.5 195t-99.5 63q-117 0 -117 -191q0 -132 32.5 -196t96.5 -64
q59 0 89.5 48.5zM254.5 733q-72.5 17 -93.5 22l-6 15l30 89l14 6q20 -10 91.5 -42t142.5 -61l-16 -57l-16 -10q-74 21 -146.5 38z" />
    <glyph glyph-name="Oacute" unicode="&#xd3;" horiz-adv-x="666" 
d="M99.5 72q-76.5 84 -76.5 235q0 108 39 186.5t113 120.5t175 42q142 0 218 -82t76 -234q0 -108 -40 -187.5t-114.5 -122t-175.5 -42.5q-138 0 -214.5 84zM426.5 139.5q30.5 48.5 30.5 144.5q0 132 -32.5 195t-99.5 63q-117 0 -117 -191q0 -132 32.5 -196t96.5 -64
q59 0 89.5 48.5zM249 705l-17 57q72 29 143 61t91 42l14 -6l30 -89l-6 -15q-21 -5 -93.5 -22t-146.5 -38z" />
    <glyph glyph-name="Ocircumflex" unicode="&#xd4;" horiz-adv-x="666" 
d="M99.5 72q-76.5 84 -76.5 235q0 108 39 186.5t113 120.5t175 42q142 0 218 -82t76 -234q0 -108 -40 -187.5t-114.5 -122t-175.5 -42.5q-138 0 -214.5 84zM426.5 139.5q30.5 48.5 30.5 144.5q0 132 -32.5 195t-99.5 63q-117 0 -117 -191q0 -132 32.5 -196t96.5 -64
q59 0 89.5 48.5zM184 710l-29 49q49 36 99.5 77t65.5 53h23q0 2 54 -42q94 -75 110 -88l-28 -49l-19 -6q-41 19 -129 56q-72 -30 -128 -56z" />
    <glyph glyph-name="Otilde" unicode="&#xd5;" horiz-adv-x="666" 
d="M99.5 72q-76.5 84 -76.5 235q0 108 39 186.5t113 120.5t175 42q142 0 218 -82t76 -234q0 -108 -40 -187.5t-114.5 -122t-175.5 -42.5q-138 0 -214.5 84zM426.5 139.5q30.5 48.5 30.5 144.5q0 132 -32.5 195t-99.5 63q-117 0 -117 -191q0 -132 32.5 -196t96.5 -64
q59 0 89.5 48.5zM144 726v13l79 104l17 4q19 0 81 -18q5 -1 31.5 -8.5t38.5 -7.5q11 0 25.5 12t26 25t14.5 17h13l48 -44v-12l-80 -104l-16 -4q-16 0 -45.5 8t-35.5 9q-58 16 -71 16q-11 0 -25.5 -12t-26 -25t-14.5 -17h-13z" />
    <glyph glyph-name="multiply" unicode="&#xd7;" horiz-adv-x="506" 
d="M120 45l-63 86l111 110l-123 122l3 15l88 65l116 -118q42 44 76 80t45 48l13 -5l68 -84l-120 -120q43 -41 78 -73.5t47 -42.5l-6 -15l-85 -69l-118 115q-42 -42 -73.5 -74.5t-41.5 -42.5z" />
    <glyph glyph-name="Oslash" unicode="&#xd8;" horiz-adv-x="666" 
d="M621.5 483.5q22.5 -62.5 22.5 -143.5q0 -108 -40 -187.5t-114.5 -122t-175.5 -42.5q-65 0 -119 20l-74 -119l-74 40l-3 10l73 116q-46 41 -70 104.5t-24 147.5q0 108 39 186.5t113 120.5t175 42q71 0 125 -21l66 104l76 -40l3 -13l-65 -100q44 -40 66.5 -102.5z
M426.5 139.5q30.5 48.5 30.5 144.5q0 132 -32.5 195t-99.5 63q-117 0 -117 -191q0 -132 32.5 -196t96.5 -64q59 0 89.5 48.5z" />
    <glyph glyph-name="Ugrave" unicode="&#xd9;" horiz-adv-x="643" 
d="M132.5 40.5q-58.5 52.5 -58.5 161.5v314q0 32 -6 43t-25 11q-9 0 -18 -1t-12 -1l-2 4l9 75q15 -1 60 -2t97 -1q25 0 68 2t57 3l-8 -78q-29 -3 -40 -14.5t-13 -36.5l-6 -291q0 -64 27 -99.5t77 -35.5q51 0 76 27.5t25 84.5l-2 310q-1 32 -7 43t-23 11q-9 0 -17.5 -1
t-11.5 -1l-2 4l9 75q13 0 48.5 -1.5t69.5 -1.5q35 0 76.5 2t53.5 3l-7 -77q-35 -9 -44.5 -17t-9.5 -30v-299q0 -116 -67 -177t-194 -61q-121 0 -179.5 52.5zM261.5 733q-72.5 17 -93.5 22l-6 15l30 89l14 6q20 -10 91.5 -42t142.5 -61l-16 -57l-16 -10q-74 21 -146.5 38z
" />
    <glyph glyph-name="Uacute" unicode="&#xda;" horiz-adv-x="643" 
d="M132.5 40.5q-58.5 52.5 -58.5 161.5v314q0 32 -6 43t-25 11q-9 0 -18 -1t-12 -1l-2 4l9 75q15 -1 60 -2t97 -1q25 0 68 2t57 3l-8 -78q-29 -3 -40 -14.5t-13 -36.5l-6 -291q0 -64 27 -99.5t77 -35.5q51 0 76 27.5t25 84.5l-2 310q-1 32 -7 43t-23 11q-9 0 -17.5 -1
t-11.5 -1l-2 4l9 75q13 0 48.5 -1.5t69.5 -1.5q35 0 76.5 2t53.5 3l-7 -77q-35 -9 -44.5 -17t-9.5 -30v-299q0 -116 -67 -177t-194 -61q-121 0 -179.5 52.5zM256 705l-17 57q72 29 143 61t91 42l14 -6l30 -89l-6 -15q-21 -5 -93.5 -22t-146.5 -38z" />
    <glyph glyph-name="Ucircumflex" unicode="&#xdb;" horiz-adv-x="643" 
d="M132.5 40.5q-58.5 52.5 -58.5 161.5v314q0 32 -6 43t-25 11q-9 0 -18 -1t-12 -1l-2 4l9 75q15 -1 60 -2t97 -1q25 0 68 2t57 3l-8 -78q-29 -3 -40 -14.5t-13 -36.5l-6 -291q0 -64 27 -99.5t77 -35.5q51 0 76 27.5t25 84.5l-2 310q-1 32 -7 43t-23 11q-9 0 -17.5 -1
t-11.5 -1l-2 4l9 75q13 0 48.5 -1.5t69.5 -1.5q35 0 76.5 2t53.5 3l-7 -77q-35 -9 -44.5 -17t-9.5 -30v-299q0 -116 -67 -177t-194 -61q-121 0 -179.5 52.5zM191 710l-29 49q49 36 99.5 77t65.5 53h23q0 2 54 -42q94 -75 110 -88l-28 -49l-19 -6q-41 19 -129 56
q-72 -30 -128 -56z" />
    <glyph glyph-name="Udieresis" unicode="&#xdc;" horiz-adv-x="643" 
d="M132.5 40.5q-58.5 52.5 -58.5 161.5v314q0 32 -6 43t-25 11q-9 0 -18 -1t-12 -1l-2 4l9 75q15 -1 60 -2t97 -1q25 0 68 2t57 3l-8 -78q-29 -3 -40 -14.5t-13 -36.5l-6 -291q0 -64 27 -99.5t77 -35.5q51 0 76 27.5t25 84.5l-2 310q-1 32 -7 43t-23 11q-9 0 -17.5 -1
t-11.5 -1l-2 4l9 75q13 0 48.5 -1.5t69.5 -1.5q35 0 76.5 2t53.5 3l-7 -77q-35 -9 -44.5 -17t-9.5 -30v-299q0 -116 -67 -177t-194 -61q-121 0 -179.5 52.5zM190.5 712q-17.5 18 -17.5 51q0 34 20.5 55t54.5 21q32 0 50 -18.5t18 -50.5q0 -34 -20.5 -55t-54.5 -21
q-33 0 -50.5 18zM374.5 712q-17.5 18 -17.5 51q0 34 20.5 55t54.5 21q32 0 50 -18.5t18 -50.5q0 -34 -20.5 -55t-54.5 -21q-33 0 -50.5 18z" />
    <glyph glyph-name="Thorn" unicode="&#xde;" horiz-adv-x="586" 
d="M35 66q42 8 55.5 24.5t13.5 58.5l1 369q0 31 -7 41.5t-29 10.5q-10 0 -19 -1t-12 -1l-7 11l8 66l148 -1q28 0 82.5 2.5t72.5 3.5l-6 -76q-38 -7 -49 -14.5t-13 -27.5l-1 -16h73q118 0 175.5 -45t57.5 -137q0 -55 -32 -98.5t-87.5 -68.5t-125.5 -25h-71v-27q0 -25 7 -33
t29 -8q17 0 29.5 1t15.5 2l6 -8l-9 -73q-19 1 -68.5 2.5t-94.5 1.5q-36 0 -86 -3t-65 -4zM411 328q0 49 -29 71t-92 22q-13 0 -17 -3.5t-5 -13.5q-4 -108 -4 -162q19 -5 41 -8.5t35 -3.5q71 14 71 98z" />
    <glyph glyph-name="germandbls" unicode="&#xdf;" horiz-adv-x="661" 
d="M465.5 359q19.5 -16 61.5 -38q40 -21 67 -40t46 -49t19 -72q0 -48 -27.5 -87.5t-75.5 -62t-107 -22.5q-52 0 -92.5 17.5t-48.5 43.5q2 25 16 63.5t30 58.5l23 -2q2 -37 24.5 -61t55.5 -24q23 0 37 14.5t14 36.5q0 24 -20 41t-62 39q-39 20 -64 37.5t-42.5 45t-17.5 66.5
q0 32 15 56t44 54q24 26 36 44.5t12 40.5q0 34 -25 55.5t-64 21.5q-34 0 -53 -13t-27.5 -43.5t-8.5 -84.5l-3 -375q-1 -21 7 -32t23 -11q14 0 22.5 1t10.5 1l4 -5l-11 -78q-13 1 -48.5 2.5t-69.5 1.5q-32 0 -87 -2.5t-55 -4.5l8 73q31 3 42.5 16t11.5 44v212q-2 23 -14 30.5
t-51 9.5l-4 6l7 59l62 10q0 136 69.5 212.5t192.5 76.5q92 0 148 -41t56 -109q0 -34 -15 -58.5t-45 -57.5q-23 -24 -34.5 -41t-11.5 -37q0 -23 19.5 -39z" />
    <glyph glyph-name="agrave" unicode="&#xe0;" horiz-adv-x="485" 
d="M313 7q-27 19 -31 56l-10 4q-31 -31 -61.5 -53t-49.5 -22q-39 0 -71.5 20.5t-51 56.5t-18.5 79q0 32 17 55.5t44 29.5l194 41v14q0 39 -22 60.5t-62 21.5q-26 0 -58 -13.5t-58 -31.5l-10 5l-21 69q55 30 112 54.5t82 24.5q94 0 137.5 -39t43.5 -101q0 -14 -10 -92
q-1 -12 -6 -49t-5 -52q0 -17 9 -27.5t24 -10.5q19 0 42 13l16 -23q-20 -37 -49 -70t-53 -39q-47 0 -74 19zM239.5 107.5q17.5 5.5 31.5 13.5l2 90l-91 -23q-12 -3 -17 -9.5t-5 -18.5q0 -25 13.5 -41.5t35.5 -16.5q13 0 30.5 5.5zM170 602q-60 36 -77 46l-2 16l62 82l14 1
q15 -15 68.5 -66.5t107.5 -101.5l-34 -49l-18 -5q-61 41 -121 77z" />
    <glyph glyph-name="aacute" unicode="&#xe1;" horiz-adv-x="485" 
d="M313 7q-27 19 -31 56l-10 4q-31 -31 -61.5 -53t-49.5 -22q-39 0 -71.5 20.5t-51 56.5t-18.5 79q0 32 17 55.5t44 29.5l194 41v14q0 39 -22 60.5t-62 21.5q-26 0 -58 -13.5t-58 -31.5l-10 5l-21 69q55 30 112 54.5t82 24.5q94 0 137.5 -39t43.5 -101q0 -14 -10 -92
q-1 -12 -6 -49t-5 -52q0 -17 9 -27.5t24 -10.5q19 0 42 13l16 -23q-20 -37 -49 -70t-53 -39q-47 0 -74 19zM239.5 107.5q17.5 5.5 31.5 13.5l2 90l-91 -23q-12 -3 -17 -9.5t-5 -18.5q0 -25 13.5 -41.5t35.5 -16.5q13 0 30.5 5.5zM178 527l-37 47q52 52 103.5 105.5
t66.5 69.5h14l66 -80l-1 -15q-17 -11 -76 -49.5t-118 -82.5z" />
    <glyph glyph-name="acircumflex" unicode="&#xe2;" horiz-adv-x="485" 
d="M313 7q-27 19 -31 56l-10 4q-31 -31 -61.5 -53t-49.5 -22q-39 0 -71.5 20.5t-51 56.5t-18.5 79q0 32 17 55.5t44 29.5l194 41v14q0 39 -22 60.5t-62 21.5q-26 0 -58 -13.5t-58 -31.5l-10 5l-21 69q55 30 112 54.5t82 24.5q94 0 137.5 -39t43.5 -101q0 -14 -10 -92
q-1 -12 -6 -49t-5 -52q0 -17 9 -27.5t24 -10.5q19 0 42 13l16 -23q-20 -37 -49 -70t-53 -39q-47 0 -74 19zM239.5 107.5q17.5 5.5 31.5 13.5l2 90l-91 -23q-12 -3 -17 -9.5t-5 -18.5q0 -25 13.5 -41.5t35.5 -16.5q13 0 30.5 5.5zM100 539l-36 50q47 42 95.5 91t62.5 64h23
q14 -15 63 -64t95 -91l-36 -50l-19 -5q-36 27 -115 77q-85 -55 -114 -77z" />
    <glyph glyph-name="atilde" unicode="&#xe3;" horiz-adv-x="485" 
d="M313 7q-27 19 -31 56l-10 4q-31 -31 -61.5 -53t-49.5 -22q-39 0 -71.5 20.5t-51 56.5t-18.5 79q0 32 17 55.5t44 29.5l194 41v14q0 39 -22 60.5t-62 21.5q-26 0 -58 -13.5t-58 -31.5l-10 5l-21 69q55 30 112 54.5t82 24.5q94 0 137.5 -39t43.5 -101q0 -14 -10 -92
q-1 -12 -6 -49t-5 -52q0 -17 9 -27.5t24 -10.5q19 0 42 13l16 -23q-20 -37 -49 -70t-53 -39q-47 0 -74 19zM239.5 107.5q17.5 5.5 31.5 13.5l2 90l-91 -23q-12 -3 -17 -9.5t-5 -18.5q0 -25 13.5 -41.5t35.5 -16.5q13 0 30.5 5.5zM55 578v13l77 107l17 4q17 0 71 -18
q48 -16 59 -16t25 12.5t25 26.5t14 18h13l47 -44v-13l-77 -107l-17 -4q-17 0 -69 18q-50 16 -61 16t-25 -12.5t-24.5 -26.5l-13.5 -18h-13z" />
    <glyph glyph-name="adieresis" unicode="&#xe4;" horiz-adv-x="485" 
d="M313 7q-27 19 -31 56l-10 4q-31 -31 -61.5 -53t-49.5 -22q-39 0 -71.5 20.5t-51 56.5t-18.5 79q0 32 17 55.5t44 29.5l194 41v14q0 39 -22 60.5t-62 21.5q-26 0 -58 -13.5t-58 -31.5l-10 5l-21 69q55 30 112 54.5t82 24.5q94 0 137.5 -39t43.5 -101q0 -14 -10 -92
q-1 -12 -6 -49t-5 -52q0 -17 9 -27.5t24 -10.5q19 0 42 13l16 -23q-20 -37 -49 -70t-53 -39q-47 0 -74 19zM239.5 107.5q17.5 5.5 31.5 13.5l2 90l-91 -23q-12 -3 -17 -9.5t-5 -18.5q0 -25 13.5 -41.5t35.5 -16.5q13 0 30.5 5.5zM85.5 574q-17.5 18 -17.5 51q0 34 20.5 55
t54.5 21q32 0 50 -18.5t18 -50.5q0 -34 -20.5 -55t-54.5 -21q-33 0 -50.5 18zM269.5 574q-17.5 18 -17.5 51q0 34 20.5 55t54.5 21q32 0 50 -18.5t18 -50.5q0 -34 -20.5 -55t-54.5 -21q-33 0 -50.5 18z" />
    <glyph glyph-name="aring" unicode="&#xe5;" horiz-adv-x="485" 
d="M313 7q-27 19 -31 56l-10 4q-31 -31 -61.5 -53t-49.5 -22q-39 0 -71.5 20.5t-51 56.5t-18.5 79q0 32 17 55.5t44 29.5l194 41v14q0 39 -22 60.5t-62 21.5q-26 0 -58 -13.5t-58 -31.5l-10 5l-21 69q55 30 112 54.5t82 24.5q94 0 137.5 -39t43.5 -101q0 -14 -10 -92
q-1 -12 -6 -49t-5 -52q0 -17 9 -27.5t24 -10.5q19 0 42 13l16 -23q-20 -37 -49 -70t-53 -39q-47 0 -74 19zM239.5 107.5q17.5 5.5 31.5 13.5l2 90l-91 -23q-12 -3 -17 -9.5t-5 -18.5q0 -25 13.5 -41.5t35.5 -16.5q13 0 30.5 5.5zM161 569.5q-25 25.5 -25 70.5q0 44 28.5 72
t73.5 28q44 0 69 -24.5t25 -67.5q0 -45 -29.5 -74.5t-73.5 -29.5q-43 0 -68 25.5zM263.5 613.5q10.5 9.5 10.5 25.5q0 18 -11.5 28.5t-31.5 10.5q-18 0 -28 -9t-10 -25q0 -17 12 -28.5t31 -11.5q17 0 27.5 9.5z" />
    <glyph glyph-name="ae" unicode="&#xe6;" horiz-adv-x="678" 
d="M373 12q-50 24 -78 70q-43 -40 -80 -64t-60 -26q-39 0 -71.5 20.5t-51.5 55.5t-19 77q0 35 19 60t51 31l177 32v21q0 39 -21.5 60.5t-61.5 21.5q-25 0 -51 -10t-43.5 -21t-22.5 -15l-10 5l-21 69q11 6 48.5 25t80.5 36.5t65 17.5q78 0 124 -58q58 58 149 58
q76 0 119 -47.5t43 -132.5q0 -13 -1 -21.5t-1 -11.5l-11 -11l-248 -35q8 -61 36.5 -90.5t82.5 -29.5q28 0 54.5 6.5t43.5 14t21 9.5l9 -4l18 -60q0 -1 -31.5 -22t-70 -38t-70.5 -17q-67 0 -117 24zM499 304q16 3 16 13q0 29 -14 47t-37 18q-34 0 -52.5 -21t-19.5 -59v-22z
M235.5 108.5q19.5 7.5 37.5 20.5q-13 37 -13 78l-80 -19q-15 -2 -21.5 -10t-6.5 -22q0 -25 13.5 -40t35.5 -15q15 0 34.5 7.5z" />
    <glyph glyph-name="ccedilla" unicode="&#xe7;" horiz-adv-x="435" 
d="M80.5 51q-59.5 63 -59.5 173q0 75 31 132.5t87.5 89.5t130.5 32q36 0 65 -4.5t46 -9.5t21 -7l4 -10q-3 -13 -10.5 -61t-11.5 -102l-76 -4v34q0 65 -53 65q-78 0 -78 -115q0 -160 97 -160q24 0 47 6t37.5 13t18.5 9l9 -4l18 -62q0 -1 -29 -22t-64.5 -38.5t-64.5 -17.5
q-106 0 -165.5 63zM167 -226q-26 13 -26 34q0 10 13 29t29 37h9q1 -27 14.5 -42t36.5 -15q16 0 26 7.5t10 20.5q0 15 -23 31t-63 38l32 117h55l-19 -73q101 -53 101 -100q0 -26 -19 -48.5t-51 -35.5t-69 -13q-30 0 -56 13z" />
    <glyph glyph-name="egrave" unicode="&#xe8;" horiz-adv-x="470" 
d="M82.5 50.5q-61.5 62.5 -61.5 173.5q0 73 31 131t86.5 90.5t126.5 32.5q178 0 178 -183q0 -31 -7 -61l-12 -11h-249q2 -60 32.5 -91.5t83.5 -31.5t117 29l9 -4l18 -60q-38 -29 -89 -53t-91 -24q-111 0 -172.5 62.5zM286 294q10 2 13 5.5t3 15.5q0 70 -54 70q-71 0 -75 -98
zM192 601q-60 36 -77 46l-2 16l62 82l14 1q15 -15 68.5 -66.5t107.5 -101.5l-34 -49l-18 -5q-61 41 -121 77z" />
    <glyph glyph-name="eacute" unicode="&#xe9;" horiz-adv-x="470" 
d="M82.5 50.5q-61.5 62.5 -61.5 173.5q0 73 31 131t86.5 90.5t126.5 32.5q178 0 178 -183q0 -31 -7 -61l-12 -11h-249q2 -60 32.5 -91.5t83.5 -31.5t117 29l9 -4l18 -60q-38 -29 -89 -53t-91 -24q-111 0 -172.5 62.5zM286 294q10 2 13 5.5t3 15.5q0 70 -54 70q-71 0 -75 -98
zM199 526l-37 47q52 52 103.5 105.5t66.5 69.5h14l66 -80l-1 -15q-17 -11 -76 -49.5t-118 -82.5z" />
    <glyph glyph-name="ecircumflex" unicode="&#xea;" horiz-adv-x="470" 
d="M82.5 50.5q-61.5 62.5 -61.5 173.5q0 73 31 131t86.5 90.5t126.5 32.5q178 0 178 -183q0 -31 -7 -61l-12 -11h-249q2 -60 32.5 -91.5t83.5 -31.5t117 29l9 -4l18 -60q-38 -29 -89 -53t-91 -24q-111 0 -172.5 62.5zM286 294q10 2 13 5.5t3 15.5q0 70 -54 70q-71 0 -75 -98
zM121 537l-36 50q47 42 95.5 91t62.5 64h23q14 -15 63 -64t95 -91l-36 -50l-19 -5q-36 27 -115 77q-85 -55 -114 -77z" />
    <glyph glyph-name="edieresis" unicode="&#xeb;" horiz-adv-x="470" 
d="M82.5 50.5q-61.5 62.5 -61.5 173.5q0 73 31 131t86.5 90.5t126.5 32.5q178 0 178 -183q0 -31 -7 -61l-12 -11h-249q2 -60 32.5 -91.5t83.5 -31.5t117 29l9 -4l18 -60q-38 -29 -89 -53t-91 -24q-111 0 -172.5 62.5zM286 294q10 2 13 5.5t3 15.5q0 70 -54 70q-71 0 -75 -98
zM106.5 573q-17.5 18 -17.5 51q0 34 20.5 55t54.5 21q32 0 50 -18.5t18 -50.5q0 -34 -20.5 -55t-54.5 -21q-33 0 -50.5 18zM290.5 573q-17.5 18 -17.5 51q0 34 20.5 55t54.5 21q32 0 50 -18.5t18 -50.5q0 -34 -20.5 -55t-54.5 -21q-33 0 -50.5 18z" />
    <glyph glyph-name="igrave" unicode="&#xec;" horiz-adv-x="298" 
d="M28 64q29 4 43 18.5t14 42.5v196q0 33 -9.5 45t-35.5 12q-7 0 -14 -1.5t-9 -2.5l7 69q65 8 130 19.5t84 15.5l11 -19q-11 -22 -17.5 -115.5t-6.5 -234.5q0 -21 6 -29.5t22 -8.5q8 0 16 1t11 1l2 -4l-10 -73q-13 1 -48.5 2.5t-73.5 1.5q-33 0 -76 -4.5t-56 -6.5zM91 601
q-60 36 -77 46l-2 16l62 82l14 1q15 -15 68.5 -66.5t107.5 -101.5l-34 -49l-18 -5q-61 41 -121 77z" />
    <glyph glyph-name="iacute" unicode="&#xed;" horiz-adv-x="298" 
d="M28 64q29 4 43 18.5t14 42.5v196q0 33 -9.5 45t-35.5 12q-7 0 -14 -1.5t-9 -2.5l7 69q65 8 130 19.5t84 15.5l11 -19q-11 -22 -17.5 -115.5t-6.5 -234.5q0 -21 6 -29.5t22 -8.5q8 0 16 1t11 1l2 -4l-10 -73q-13 1 -48.5 2.5t-73.5 1.5q-33 0 -76 -4.5t-56 -6.5zM61 526
l-37 47q52 52 103.5 105.5t66.5 69.5h14l66 -80l-1 -15q-17 -11 -76 -49.5t-118 -82.5z" />
    <glyph glyph-name="icircumflex" unicode="&#xee;" horiz-adv-x="298" 
d="M28 64q29 4 43 18.5t14 42.5v196q0 33 -9.5 45t-35.5 12q-7 0 -14 -1.5t-9 -2.5l7 69q65 8 130 19.5t84 15.5l11 -19q-11 -22 -17.5 -115.5t-6.5 -234.5q0 -21 6 -29.5t22 -8.5q8 0 16 1t11 1l2 -4l-10 -73q-13 1 -48.5 2.5t-73.5 1.5q-33 0 -76 -4.5t-56 -6.5zM24 537
l-36 50q47 42 95.5 91t62.5 64h23q14 -15 63 -64t95 -91l-36 -50l-19 -5q-36 27 -115 77q-85 -55 -114 -77z" />
    <glyph glyph-name="eth" unicode="&#xf0;" horiz-adv-x="508" 
d="M81 49.5q-59 61.5 -59 175.5q0 65 24 118.5t68.5 85t102.5 31.5q12 -2 28.5 -8t22.5 -8l3 7q-25 48 -69 90l-127 -64l-10 2l-22 75l90 46q-41 33 -104 69l40 66l15 7q82 -35 158 -87l142 72l9 -4l23 -74l-100 -50q82 -74 126 -162.5t44 -183.5q0 -80 -29.5 -140
t-84.5 -92.5t-128 -32.5q-104 0 -163 61.5zM311 107.5q15 30.5 15 95.5q0 77 -14 142q-23 19 -60 19q-28 0 -43.5 -11.5t-22.5 -40t-7 -80.5q0 -80 21 -117.5t64 -37.5q32 0 47 30.5z" />
    <glyph glyph-name="ntilde" unicode="&#xf1;" horiz-adv-x="574" 
d="M346.5 83.5q9.5 11.5 10.5 35.5l2 158q1 42 -12.5 60.5t-42.5 18.5q-28 0 -69 -30l-3 -62q-8 -130 -8 -152t6 -30.5t22 -8.5l22 1l2 -5l-11 -73q-12 1 -45 2.5t-67 1.5q-36 0 -76.5 -2t-52.5 -3l10 73q29 2 40 14t11 40v194q0 35 -9.5 47t-38.5 12h-15l-4 6l7 63
q63 9 125.5 20t80.5 14l11 -11q-2 -6 -6 -27.5t-6 -42.5l5 -4q33 31 69 58t51 27q76 0 116.5 -34t40.5 -96q0 -28 -9 -111q-10 -100 -10 -124q0 -23 6.5 -32.5t22.5 -9.5l28 1l2 -4l-10 -72q-13 1 -47.5 2.5t-69.5 1.5q-24 0 -64 -2.5t-53 -3.5l7 73q22 5 31.5 16.5z
M127 577v13l77 107l17 4q17 0 71 -18q48 -16 59 -16t25 12.5t25 26.5t14 18h13l47 -44v-13l-77 -107l-17 -4q-17 0 -69 18q-50 16 -61 16t-25 -12.5t-24.5 -26.5l-13.5 -18h-13z" />
    <glyph glyph-name="ograve" unicode="&#xf2;" horiz-adv-x="506" 
d="M89.5 51q-59.5 63 -59.5 169q0 78 30.5 136.5t86 90t129.5 31.5q103 0 161 -61t58 -171q0 -78 -30 -136.5t-86 -90t-130 -31.5q-100 0 -159.5 63zM318.5 105q16.5 28 16.5 91q0 95 -19.5 138.5t-59.5 43.5q-36 0 -52.5 -28t-16.5 -89q0 -97 19.5 -140.5t59.5 -43.5
q36 0 52.5 28zM200 601q-60 36 -77 46l-2 16l62 82l14 1q15 -15 68.5 -66.5t107.5 -101.5l-34 -49l-18 -5q-61 41 -121 77z" />
    <glyph glyph-name="oacute" unicode="&#xf3;" horiz-adv-x="506" 
d="M89.5 51q-59.5 63 -59.5 169q0 78 30.5 136.5t86 90t129.5 31.5q103 0 161 -61t58 -171q0 -78 -30 -136.5t-86 -90t-130 -31.5q-100 0 -159.5 63zM318.5 105q16.5 28 16.5 91q0 95 -19.5 138.5t-59.5 43.5q-36 0 -52.5 -28t-16.5 -89q0 -97 19.5 -140.5t59.5 -43.5
q36 0 52.5 28zM208 526l-37 47q52 52 103.5 105.5t66.5 69.5h14l66 -80l-1 -15q-17 -11 -76 -49.5t-118 -82.5z" />
    <glyph glyph-name="ocircumflex" unicode="&#xf4;" horiz-adv-x="506" 
d="M89.5 51q-59.5 63 -59.5 169q0 78 30.5 136.5t86 90t129.5 31.5q103 0 161 -61t58 -171q0 -78 -30 -136.5t-86 -90t-130 -31.5q-100 0 -159.5 63zM318.5 105q16.5 28 16.5 91q0 95 -19.5 138.5t-59.5 43.5q-36 0 -52.5 -28t-16.5 -89q0 -97 19.5 -140.5t59.5 -43.5
q36 0 52.5 28zM130 537l-36 50q47 42 95.5 91t62.5 64h23q14 -15 63 -64t95 -91l-36 -50l-19 -5q-36 27 -115 77q-85 -55 -114 -77z" />
    <glyph glyph-name="otilde" unicode="&#xf5;" horiz-adv-x="506" 
d="M89.5 51q-59.5 63 -59.5 169q0 78 30.5 136.5t86 90t129.5 31.5q103 0 161 -61t58 -171q0 -78 -30 -136.5t-86 -90t-130 -31.5q-100 0 -159.5 63zM318.5 105q16.5 28 16.5 91q0 95 -19.5 138.5t-59.5 43.5q-36 0 -52.5 -28t-16.5 -89q0 -97 19.5 -140.5t59.5 -43.5
q36 0 52.5 28zM84 577v13l77 107l17 4q17 0 71 -18q48 -16 59 -16t25 12.5t25 26.5t14 18h13l47 -44v-13l-77 -107l-17 -4q-17 0 -69 18q-50 16 -61 16t-25 -12.5t-24.5 -26.5l-13.5 -18h-13z" />
    <glyph glyph-name="divide" unicode="&#xf7;" horiz-adv-x="506" 
d="M191 374q-19 20 -19 54q0 37 21.5 59.5t58.5 22.5q34 0 53.5 -20t19.5 -54q0 -37 -21.5 -59.5t-58.5 -22.5q-35 0 -54 20zM16 205l16 109l232 -1q50 0 123 2.5t96 3.5l6 -13l-11 -110l-227 -1l-227 -1zM191 17q-19 20 -19 54q0 37 21.5 59t58.5 22q34 0 53.5 -20
t19.5 -54q0 -37 -21.5 -59t-58.5 -22q-35 0 -54 20z" />
    <glyph glyph-name="oslash" unicode="&#xf8;" horiz-adv-x="532" 
d="M501 246q0 -78 -30 -136.5t-86 -90t-130 -31.5q-46 0 -85 14l-81 -128l-74 40l-4 10l83 129q-58 63 -58 167q0 78 30.5 136.5t86 90t129.5 31.5q38 0 71 -9l73 117l76 -39l2 -13l-69 -109q66 -61 66 -179zM324.5 105q16.5 28 16.5 91q0 95 -19.5 138.5t-59.5 43.5
q-36 0 -52.5 -28t-16.5 -89q0 -97 19.5 -140.5t59.5 -43.5q36 0 52.5 28z" />
    <glyph glyph-name="ugrave" unicode="&#xf9;" horiz-adv-x="549" 
d="M59 367q-7 10 -24 10q-9 0 -16.5 -1t-9.5 -1l7 69q59 8 121 19t80 15l11 -19q-11 -24 -19 -104.5t-8 -170.5q0 -73 54 -73q15 0 31 7t38 21v191q0 28 -7.5 36.5t-32.5 9.5h-14l10 68q59 7 121.5 17.5t80.5 13.5l12 -19q-13 -23 -21.5 -112.5t-8.5 -198.5q0 -17 9 -27.5
t24 -10.5q13 0 27 6t14 7l16 -23q-4 -7 -21 -30t-42 -47t-49 -32q-96 0 -108 75l-9 5q-35 -36 -62 -57.5t-37 -21.5q-82 0 -124.5 33.5t-42.5 96.5l7 213q0 25 -7 35zM207 601q-60 36 -77 46l-2 16l62 82l14 1q15 -15 68.5 -66.5t107.5 -101.5l-34 -49l-18 -5
q-61 41 -121 77z" />
    <glyph glyph-name="uacute" unicode="&#xfa;" horiz-adv-x="549" 
d="M59 367q-7 10 -24 10q-9 0 -16.5 -1t-9.5 -1l7 69q59 8 121 19t80 15l11 -19q-11 -24 -19 -104.5t-8 -170.5q0 -73 54 -73q15 0 31 7t38 21v191q0 28 -7.5 36.5t-32.5 9.5h-14l10 68q59 7 121.5 17.5t80.5 13.5l12 -19q-13 -23 -21.5 -112.5t-8.5 -198.5q0 -17 9 -27.5
t24 -10.5q13 0 27 6t14 7l16 -23q-4 -7 -21 -30t-42 -47t-49 -32q-96 0 -108 75l-9 5q-35 -36 -62 -57.5t-37 -21.5q-82 0 -124.5 33.5t-42.5 96.5l7 213q0 25 -7 35zM215 526l-37 47q52 52 103.5 105.5t66.5 69.5h14l66 -80l-1 -15q-17 -11 -76 -49.5t-118 -82.5z" />
    <glyph glyph-name="ucircumflex" unicode="&#xfb;" horiz-adv-x="549" 
d="M59 367q-7 10 -24 10q-9 0 -16.5 -1t-9.5 -1l7 69q59 8 121 19t80 15l11 -19q-11 -24 -19 -104.5t-8 -170.5q0 -73 54 -73q15 0 31 7t38 21v191q0 28 -7.5 36.5t-32.5 9.5h-14l10 68q59 7 121.5 17.5t80.5 13.5l12 -19q-13 -23 -21.5 -112.5t-8.5 -198.5q0 -17 9 -27.5
t24 -10.5q13 0 27 6t14 7l16 -23q-4 -7 -21 -30t-42 -47t-49 -32q-96 0 -108 75l-9 5q-35 -36 -62 -57.5t-37 -21.5q-82 0 -124.5 33.5t-42.5 96.5l7 213q0 25 -7 35zM137 537l-36 50q47 42 95.5 91t62.5 64h23q14 -15 63 -64t95 -91l-36 -50l-19 -5q-36 27 -115 77
q-85 -55 -114 -77z" />
    <glyph glyph-name="udieresis" unicode="&#xfc;" horiz-adv-x="549" 
d="M59 367q-7 10 -24 10q-9 0 -16.5 -1t-9.5 -1l7 69q59 8 121 19t80 15l11 -19q-11 -24 -19 -104.5t-8 -170.5q0 -73 54 -73q15 0 31 7t38 21v191q0 28 -7.5 36.5t-32.5 9.5h-14l10 68q59 7 121.5 17.5t80.5 13.5l12 -19q-13 -23 -21.5 -112.5t-8.5 -198.5q0 -17 9 -27.5
t24 -10.5q13 0 27 6t14 7l16 -23q-4 -7 -21 -30t-42 -47t-49 -32q-96 0 -108 75l-9 5q-35 -36 -62 -57.5t-37 -21.5q-82 0 -124.5 33.5t-42.5 96.5l7 213q0 25 -7 35zM121.5 573q-17.5 18 -17.5 51q0 34 20.5 55t54.5 21q32 0 50 -18.5t18 -50.5q0 -34 -20.5 -55t-54.5 -21
q-33 0 -50.5 18zM305.5 573q-17.5 18 -17.5 51q0 34 20.5 55t54.5 21q32 0 50 -18.5t18 -50.5q0 -34 -20.5 -55t-54.5 -21q-33 0 -50.5 18z" />
    <glyph glyph-name="thorn" unicode="&#xfe;" horiz-adv-x="514" 
d="M7 -163q30 2 38.5 15t10.5 52l5 163v519q0 33 -10 44t-41 11q-14 0 -23 -1l7 68q160 22 232 34l8 -22q-21 -23 -29 -308q87 62 103 62q88 0 138.5 -59.5t50.5 -163.5q0 -77 -32 -136t-89.5 -91.5t-132.5 -32.5l-44 2v-94q0 -34 8.5 -45.5t37.5 -11.5q8 0 36 2l2 -4
l-12 -73q-63 3 -130 3q-71 0 -144 -6zM322 119q21 32 21 92q0 74 -21.5 114.5t-60.5 40.5q-14 0 -30.5 -6.5t-28.5 -16.5l-1 -243l62 -13q38 0 59 32z" />
    <glyph glyph-name="ydieresis" unicode="&#xff;" horiz-adv-x="474" 
d="M27 -224q-22 18 -39.5 40.5t-17.5 34.5l9 15q67 8 118.5 39t84.5 82l-22 61q-31 84 -66 176t-52 128q-10 22 -23 30.5t-33 10.5l-2 5l7 68h76q47 0 107 3t60 4l2 -5l-9 -71q-26 -1 -34.5 -6.5t-8.5 -17.5q0 -19 24.5 -105.5t33.5 -116.5h14q78 205 78 225q0 10 -5.5 14
t-20.5 4h-25l-4 6l10 69q11 -1 42 -2t66 -1h96l-8 -72q-22 -5 -31 -13.5t-17 -31.5l-127 -311q-116 -280 -249 -280q-12 0 -34 18zM111.5 573q-17.5 18 -17.5 51q0 34 20.5 55t54.5 21q32 0 50 -18.5t18 -50.5q0 -34 -20.5 -55t-54.5 -21q-33 0 -50.5 18zM295.5 573
q-17.5 18 -17.5 51q0 34 20.5 55t54.5 21q32 0 50 -18.5t18 -50.5q0 -34 -20.5 -55t-54.5 -21q-33 0 -50.5 18z" />
    <glyph glyph-name="Amacron" unicode="&#x100;" horiz-adv-x="648" 
d="M332 1l5 71q34 3 48 6t19 9t5 20q0 3 -4 27l-15 60q-52 2 -85 2q-23 0 -67 -4l-22 -2l-18 -62q-5 -22 -5 -28q0 -15 8.5 -20.5t31.5 -5.5h36l6 -8l-8 -71q-15 1 -62.5 2.5t-86.5 1.5l-126 -1l7 75q21 4 35 18.5t24 42.5l170 505l203 16l13 -8q15 -59 61.5 -238t73.5 -268
q10 -35 25.5 -50.5t44.5 -17.5l6 -9l-8 -67q-14 0 -51.5 1t-78.5 1q-56 0 -110 -2.5t-69 -3.5zM306 292q5 0 65 3l-48 202h-17l-62 -205h62zM179 715l16 89l154 -1q31 0 72 2.5t54 3.5l9 -15l-14 -90l-141 -1l-137 -1z" />
    <glyph glyph-name="amacron" unicode="&#x101;" horiz-adv-x="485" 
d="M313 7q-27 19 -31 56l-10 4q-31 -31 -61.5 -53t-49.5 -22q-39 0 -71.5 20.5t-51 56.5t-18.5 79q0 32 17 55.5t44 29.5l194 41v14q0 39 -22 60.5t-62 21.5q-26 0 -58 -13.5t-58 -31.5l-10 5l-21 69q55 30 112 54.5t82 24.5q94 0 137.5 -39t43.5 -101q0 -14 -10 -92
q-1 -12 -6 -49t-5 -52q0 -17 9 -27.5t24 -10.5q19 0 42 13l16 -23q-20 -37 -49 -70t-53 -39q-47 0 -74 19zM239.5 107.5q17.5 5.5 31.5 13.5l2 90l-91 -23q-12 -3 -17 -9.5t-5 -18.5q0 -25 13.5 -41.5t35.5 -16.5q13 0 30.5 5.5zM81 581l16 90l154 -1q31 0 72 2.5t54 3.5
l9 -16l-14 -90l-141 -1l-137 -1z" />
    <glyph glyph-name="Abreve" unicode="&#x102;" horiz-adv-x="648" 
d="M332 1l5 71q34 3 48 6t19 9t5 20q0 3 -4 27l-15 60q-52 2 -85 2q-23 0 -67 -4l-22 -2l-18 -62q-5 -22 -5 -28q0 -15 8.5 -20.5t31.5 -5.5h36l6 -8l-8 -71q-15 1 -62.5 2.5t-86.5 1.5l-126 -1l7 75q21 4 35 18.5t24 42.5l170 505l203 16l13 -8q15 -59 61.5 -238t73.5 -268
q10 -35 25.5 -50.5t44.5 -17.5l6 -9l-8 -67q-14 0 -51.5 1t-78.5 1q-56 0 -110 -2.5t-69 -3.5zM306 292q5 0 65 3l-48 202h-17l-62 -205h62zM222 721.5q-40 35.5 -56 88.5l32 46l22 5q14 -31 42 -47.5t64 -16.5t64 16.5t42 47.5l22 -5l32 -46q-15 -52 -55.5 -88t-104.5 -36
t-104 35.5z" />
    <glyph glyph-name="abreve" unicode="&#x103;" horiz-adv-x="485" 
d="M313 7q-27 19 -31 56l-10 4q-31 -31 -61.5 -53t-49.5 -22q-39 0 -71.5 20.5t-51 56.5t-18.5 79q0 32 17 55.5t44 29.5l194 41v14q0 39 -22 60.5t-62 21.5q-26 0 -58 -13.5t-58 -31.5l-10 5l-21 69q55 30 112 54.5t82 24.5q94 0 137.5 -39t43.5 -101q0 -14 -10 -92
q-1 -12 -6 -49t-5 -52q0 -17 9 -27.5t24 -10.5q19 0 42 13l16 -23q-20 -37 -49 -70t-53 -39q-47 0 -74 19zM239.5 107.5q17.5 5.5 31.5 13.5l2 90l-91 -23q-12 -3 -17 -9.5t-5 -18.5q0 -25 13.5 -41.5t35.5 -16.5q13 0 30.5 5.5zM127 561.5q-40 37.5 -56 92.5l32 46l22 5
q14 -34 42 -51.5t64 -17.5t64 17.5t42 51.5l22 -5l32 -46q-15 -55 -55.5 -92.5t-104.5 -37.5t-104 37.5z" />
    <glyph glyph-name="Aogonek" unicode="&#x104;" horiz-adv-x="648" 
d="M332 1l5 71q34 3 48 6t19 9t5 20q0 3 -4 27l-15 60q-52 2 -85 2q-23 0 -67 -4l-22 -2l-18 -62q-5 -22 -5 -28q0 -15 8.5 -20.5t31.5 -5.5h36l6 -8l-8 -71q-15 1 -62.5 2.5t-86.5 1.5l-126 -1l7 75q21 4 35 18.5t24 42.5l170 505l203 16l13 -8q15 -59 61.5 -238t73.5 -268
q10 -35 25.5 -50.5t44.5 -17.5l6 -9l-8 -67q-14 0 -51.5 1t-78.5 1q-56 0 -110 -2.5t-69 -3.5zM306 292q5 0 65 3l-48 202h-17l-62 -205h62zM458 -214q-34 28 -34 72q0 21 9 41t34 51.5t80 91.5h70q-52 -73 -70 -106t-18 -55q0 -15 8.5 -23.5t24.5 -8.5q14 0 31.5 6.5
t33.5 16.5l27 -42q-64 -63 -109 -72q-53 0 -87 28z" />
    <glyph glyph-name="aogonek" unicode="&#x105;" horiz-adv-x="485" 
d="M293.5 -214q-33.5 28 -33.5 73q0 26 16 53.5t64 82.5q-26 7 -41 24.5t-17 43.5l-10 4q-31 -31 -61.5 -53t-49.5 -22q-39 0 -71.5 20.5t-51 56.5t-18.5 79q0 32 17 55.5t44 29.5l194 41v14q0 39 -22 60.5t-62 21.5q-30 0 -61 -14.5t-55 -30.5l-10 5l-21 69
q53 28 110.5 53.5t83.5 25.5q91 0 136 -38.5t45 -101.5q0 -15 -10 -95q-11 -75 -11 -98q0 -17 9 -27.5t24 -10.5q14 0 26.5 6t15.5 7l17 -24q-55 -74 -90 -129t-35 -87q0 -14 9 -22.5t24 -8.5q16 0 34 7t31 16l27 -42q-63 -62 -109 -72q-54 0 -87.5 28zM239.5 107.5
q17.5 5.5 31.5 13.5l2 90l-91 -23q-12 -3 -17 -9.5t-5 -18.5q0 -25 13.5 -41.5t35.5 -16.5q13 0 30.5 5.5z" />
    <glyph glyph-name="Cacute" unicode="&#x106;" horiz-adv-x="610" 
d="M160.5 27q-66.5 38 -102 109.5t-35.5 170.5q0 108 42 186.5t120.5 120.5t187.5 42q38 0 82 -5.5t76 -11.5t41 -8l7 -16q-2 -7 -7 -34t-11 -71.5t-9 -94.5l-122 -7q0 4 1 19t1 35q0 42 -22 61t-70 19q-68 0 -99.5 -47.5t-31.5 -152.5q0 -118 35 -179t102 -61q47 0 72 30
t34 99l122 8q-3 -18 -9.5 -80t-7.5 -118l-11 -14q0 -1 -35 -11t-85.5 -18.5t-106.5 -8.5q-92 0 -158.5 38zM262 705l-17 57q72 29 143 61t91 42l14 -6l30 -89l-6 -15q-21 -5 -93.5 -22t-146.5 -38z" />
    <glyph glyph-name="cacute" unicode="&#x107;" horiz-adv-x="435" 
d="M80.5 51q-59.5 63 -59.5 173q0 75 31 132.5t87.5 89.5t130.5 32q36 0 65 -4.5t46 -9.5t21 -7l4 -10q-3 -13 -10.5 -61t-11.5 -102l-76 -4v34q0 65 -53 65q-78 0 -78 -115q0 -160 97 -160q24 0 47 6t37.5 13t18.5 9l9 -4l18 -62q0 -1 -29 -22t-64.5 -38.5t-64.5 -17.5
q-106 0 -165.5 63zM204 526l-37 47q52 52 103.5 105.5t66.5 69.5h14l66 -80l-1 -15q-17 -11 -76 -49.5t-118 -82.5z" />
    <glyph glyph-name="Ccircumflex" unicode="&#x108;" horiz-adv-x="610" 
d="M160.5 27q-66.5 38 -102 109.5t-35.5 170.5q0 108 42 186.5t120.5 120.5t187.5 42q38 0 82 -5.5t76 -11.5t41 -8l7 -16q-2 -7 -7 -34t-11 -71.5t-9 -94.5l-122 -7q0 4 1 19t1 35q0 42 -22 61t-70 19q-68 0 -99.5 -47.5t-31.5 -152.5q0 -118 35 -179t102 -61q47 0 72 30
t34 99l122 8q-3 -18 -9.5 -80t-7.5 -118l-11 -14q0 -1 -35 -11t-85.5 -18.5t-106.5 -8.5q-92 0 -158.5 38zM207 712l-36 50q47 42 95.5 91t62.5 64h23q14 -15 63 -64t95 -91l-36 -50l-19 -5q-36 27 -115 77q-85 -55 -114 -77z" />
    <glyph glyph-name="ccircumflex" unicode="&#x109;" horiz-adv-x="435" 
d="M80.5 51q-59.5 63 -59.5 173q0 75 31 132.5t87.5 89.5t130.5 32q36 0 65 -4.5t46 -9.5t21 -7l4 -10q-3 -13 -10.5 -61t-11.5 -102l-76 -4v34q0 65 -53 65q-78 0 -78 -115q0 -160 97 -160q24 0 47 6t37.5 13t18.5 9l9 -4l18 -62q0 -1 -29 -22t-64.5 -38.5t-64.5 -17.5
q-106 0 -165.5 63zM132 537l-36 50q47 42 95.5 91t62.5 64h23q14 -15 63 -64t95 -91l-36 -50l-19 -5q-36 27 -115 77q-85 -55 -114 -77z" />
    <glyph glyph-name="Cdotaccent" unicode="&#x10a;" horiz-adv-x="610" 
d="M160.5 27q-66.5 38 -102 109.5t-35.5 170.5q0 108 42 186.5t120.5 120.5t187.5 42q38 0 82 -5.5t76 -11.5t41 -8l7 -16q-2 -7 -7 -34t-11 -71.5t-9 -94.5l-122 -7q0 4 1 19t1 35q0 42 -22 61t-70 19q-68 0 -99.5 -47.5t-31.5 -152.5q0 -118 35 -179t102 -61q47 0 72 30
t34 99l122 8q-3 -18 -9.5 -80t-7.5 -118l-11 -14q0 -1 -35 -11t-85.5 -18.5t-106.5 -8.5q-92 0 -158.5 38zM280 711.5q-21 21.5 -21 59.5q0 41 24.5 65.5t64.5 24.5q38 0 59 -21.5t21 -59.5q0 -41 -24 -65.5t-64 -24.5q-39 0 -60 21.5z" />
    <glyph glyph-name="cdotaccent" unicode="&#x10b;" horiz-adv-x="435" 
d="M80.5 51q-59.5 63 -59.5 173q0 75 31 132.5t87.5 89.5t130.5 32q36 0 65 -4.5t46 -9.5t21 -7l4 -10q-3 -13 -10.5 -61t-11.5 -102l-76 -4v34q0 65 -53 65q-78 0 -78 -115q0 -160 97 -160q24 0 47 6t37.5 13t18.5 9l9 -4l18 -62q0 -1 -29 -22t-64.5 -38.5t-64.5 -17.5
q-106 0 -165.5 63zM193 567.5q-21 21.5 -21 59.5q0 41 24.5 66t64.5 25q38 0 59 -22t21 -60q0 -41 -24 -65.5t-64 -24.5q-39 0 -60 21.5z" />
    <glyph glyph-name="Ccaron" unicode="&#x10c;" horiz-adv-x="610" 
d="M160.5 27q-66.5 38 -102 109.5t-35.5 170.5q0 108 42 186.5t120.5 120.5t187.5 42q38 0 82 -5.5t76 -11.5t41 -8l7 -16q-2 -7 -7 -34t-11 -71.5t-9 -94.5l-122 -7q0 4 1 19t1 35q0 42 -22 61t-70 19q-68 0 -99.5 -47.5t-31.5 -152.5q0 -118 35 -179t102 -61q47 0 72 30
t34 99l122 8q-3 -18 -9.5 -80t-7.5 -118l-11 -14q0 -1 -35 -11t-85.5 -18.5t-106.5 -8.5q-92 0 -158.5 38zM264.5 746q-50.5 41 -98.5 77l28 50l19 5q41 -19 129 -56q72 30 128 56l19 -5l29 -50q-49 -36 -99.5 -77t-65.5 -53h-23q-15 12 -65.5 53z" />
    <glyph glyph-name="ccaron" unicode="&#x10d;" horiz-adv-x="435" 
d="M80.5 51q-59.5 63 -59.5 173q0 75 31 132.5t87.5 89.5t130.5 32q36 0 65 -4.5t46 -9.5t21 -7l4 -10q-3 -13 -10.5 -61t-11.5 -102l-76 -4v34q0 65 -53 65q-78 0 -78 -115q0 -160 97 -160q24 0 47 6t37.5 13t18.5 9l9 -4l18 -62q0 -1 -29 -22t-64.5 -38.5t-64.5 -17.5
q-106 0 -165.5 63zM182 582.5q-49 49.5 -96 93.5l36 50l18 5q47 -35 117 -79q71 45 116 79l19 -5l37 -50q-48 -44 -97.5 -93.5t-63.5 -64.5h-23q-14 15 -63 64.5z" />
    <glyph glyph-name="Dcaron" unicode="&#x10e;" horiz-adv-x="688" 
d="M251.5 -5q-50.5 5 -87.5 5q-34 0 -78 -3.5t-57 -5.5l8 79q41 7 55 24t14 59v361q0 32 -6 43t-23 11q-11 0 -20 -1t-12 -1l-8 11l9 70q16 0 57.5 -1.5t79.5 -1.5q45 0 94 2t68 3q155 0 238 -77.5t83 -222.5q0 -107 -43.5 -189t-122.5 -127t-182 -45q-16 2 -66.5 7z
M280 540.5q-5 -5.5 -6 -19.5q-12 -210 -12 -368q0 -37 12.5 -49.5t50.5 -12.5q78 0 116 54.5t38 169.5q0 124 -42.5 177.5t-137.5 53.5q-14 0 -19 -5.5zM264.5 746q-50.5 41 -98.5 77l28 50l19 5q41 -19 129 -56q72 30 128 56l19 -5l29 -50q-49 -36 -99.5 -77t-65.5 -53h-23
q-15 12 -65.5 53z" />
    <glyph glyph-name="dcaron" unicode="&#x10f;" horiz-adv-x="635" 
d="M360 6.5q-27 18.5 -32 53.5l-7 3q-94 -71 -111 -71q-88 0 -138.5 59.5t-50.5 163.5q0 77 32 135.5t89.5 91t132.5 32.5q28 0 41 -1v108q0 33 -9 45t-35 12q-7 0 -14 -1t-10 -1l8 71q67 8 135.5 19.5t88.5 15.5l10 -19q-14 -20 -23.5 -186t-9.5 -392q0 -17 7.5 -27.5
t20.5 -10.5t24.5 5.5t14.5 7.5l16 -23q0 -2 -16.5 -26.5t-40 -49t-50.5 -33.5q-46 0 -73 18.5zM527 452l1 42q0 63 -3.5 119t-5.5 71l115 14l8 -11q-3 -19 -13.5 -84.5t-26.5 -133.5l-58 -22zM284 105q13 5 21.5 10.5t10.5 7.5v241q-2 1 -10 4.5t-21.5 6.5t-29.5 3
q-38 0 -59 -32t-21 -92q0 -74 21.5 -114t60.5 -40q14 0 27 5z" />
    <glyph glyph-name="Dcroat" unicode="&#x110;" horiz-adv-x="707" 
d="M270 -5q-51 5 -88 5q-34 0 -77.5 -3.5t-56.5 -5.5l7 79q29 5 43.5 14t20 27.5t5.5 53.5v113h-107l-9 7l11 72h105v157q0 32 -5.5 43t-22.5 11q-11 0 -20.5 -1t-12.5 -1l-8 11l9 70q16 0 57.5 -1.5t80.5 -1.5q41 0 91 2t70 3q154 0 237.5 -78.5t83.5 -221.5
q0 -107 -43.5 -189t-122.5 -127t-181 -45q-16 2 -67 7zM388 360l7 -9l-7 -73h-106l-2 -125q0 -37 13 -49.5t51 -12.5q78 0 115.5 54.5t37.5 169.5q0 124 -42.5 177.5t-137.5 53.5q-14 0 -19 -5.5t-6 -19.5l-8 -163z" />
    <glyph glyph-name="dcroat" unicode="&#x111;" horiz-adv-x="536" 
d="M465 518q-8 -163 -8 -373q0 -17 7.5 -27.5t20.5 -10.5t24.5 5.5t14.5 7.5l16 -23q0 -2 -16.5 -26.5t-40 -49t-50.5 -33.5q-46 0 -73 18.5t-32 53.5l-7 3q-94 -71 -111 -71q-88 0 -138.5 59.5t-50.5 163.5q0 77 32 135.5t89.5 91t132.5 32.5q28 0 41 -1v44l-100 -1l-11 10
l8 52l103 -1v4q0 33 -9 45t-35 12q-7 0 -14 -1t-10 -1l8 71q67 8 135.5 19.5t88.5 15.5l10 -19q-11 -17 -21 -143l64 2l15 -14l-5 -50h-78zM316 364q-2 1 -10 4.5t-21.5 6.5t-29.5 3q-38 0 -59 -32t-21 -92q0 -74 21.5 -114t60.5 -40q14 0 27 5t21.5 10.5t10.5 7.5v241z" />
    <glyph glyph-name="Emacron" unicode="&#x112;" horiz-adv-x="599" 
d="M571 200q-18 -95 -28 -194l-12 -13q-180 7 -315 7q-91 0 -189 -10l8 78q40 6 54.5 24.5t14.5 62.5l1 361q0 32 -6 43t-24 11q-15 0 -29 -2l-9 11l9 68h22q159 -3 182 -3q218 0 306 12l10 -13q-8 -39 -14.5 -93t-8.5 -96l-110 -7l2 38q0 27 -8.5 39t-32 16.5t-74.5 4.5
q-29 0 -37 -5t-8 -25l-7 -138l89 -1q24 0 113 7l10 -11l-14 -98q-99 3 -126 3q-21 0 -45 -2.5t-31 -3.5l-2 -117q0 -28 4 -40t15.5 -16t38.5 -4q56 0 82.5 8t38 30.5t18.5 72.5l103 7zM172 715l16 89l154 -1q31 0 72 2.5t54 3.5l9 -15l-14 -90l-141 -1l-137 -1z" />
    <glyph glyph-name="emacron" unicode="&#x113;" horiz-adv-x="470" 
d="M82.5 50.5q-61.5 62.5 -61.5 173.5q0 73 31 131t86.5 90.5t126.5 32.5q178 0 178 -183q0 -31 -7 -61l-12 -11h-249q2 -60 32.5 -91.5t83.5 -31.5t117 29l9 -4l18 -60q-38 -29 -89 -53t-91 -24q-111 0 -172.5 62.5zM286 294q10 2 13 5.5t3 15.5q0 70 -54 70q-71 0 -75 -98
zM102 580l16 90l154 -1q31 0 72 2.5t54 3.5l9 -16l-14 -90l-141 -1l-137 -1z" />
    <glyph glyph-name="Ebreve" unicode="&#x114;" horiz-adv-x="599" 
d="M571 200q-18 -95 -28 -194l-12 -13q-180 7 -315 7q-91 0 -189 -10l8 78q40 6 54.5 24.5t14.5 62.5l1 361q0 32 -6 43t-24 11q-15 0 -29 -2l-9 11l9 68h22q159 -3 182 -3q218 0 306 12l10 -13q-8 -39 -14.5 -93t-8.5 -96l-110 -7l2 38q0 27 -8.5 39t-32 16.5t-74.5 4.5
q-29 0 -37 -5t-8 -25l-7 -138l89 -1q24 0 113 7l10 -11l-14 -98q-99 3 -126 3q-21 0 -45 -2.5t-31 -3.5l-2 -117q0 -28 4 -40t15.5 -16t38.5 -4q56 0 82.5 8t38 30.5t18.5 72.5l103 7zM223 728.5q-40 37.5 -56 92.5l32 46l22 5q14 -34 42 -51.5t64 -17.5t64 17.5t42 51.5
l22 -5l32 -46q-15 -55 -55.5 -92.5t-104.5 -37.5t-104 37.5z" />
    <glyph glyph-name="ebreve" unicode="&#x115;" horiz-adv-x="470" 
d="M82.5 50.5q-61.5 62.5 -61.5 173.5q0 73 31 131t86.5 90.5t126.5 32.5q178 0 178 -183q0 -31 -7 -61l-12 -11h-249q2 -60 32.5 -91.5t83.5 -31.5t117 29l9 -4l18 -60q-38 -29 -89 -53t-91 -24q-111 0 -172.5 62.5zM286 294q10 2 13 5.5t3 15.5q0 70 -54 70q-71 0 -75 -98
zM152 560.5q-40 37.5 -56 92.5l32 46l22 5q14 -34 42 -51.5t64 -17.5t64 17.5t42 51.5l22 -5l32 -46q-15 -55 -55.5 -92.5t-104.5 -37.5t-104 37.5z" />
    <glyph glyph-name="Edotaccent" unicode="&#x116;" horiz-adv-x="599" 
d="M571 200q-18 -95 -28 -194l-12 -13q-180 7 -315 7q-91 0 -189 -10l8 78q40 6 54.5 24.5t14.5 62.5l1 361q0 32 -6 43t-24 11q-15 0 -29 -2l-9 11l9 68h22q159 -3 182 -3q218 0 306 12l10 -13q-8 -39 -14.5 -93t-8.5 -96l-110 -7l2 38q0 27 -8.5 39t-32 16.5t-74.5 4.5
q-29 0 -37 -5t-8 -25l-7 -138l89 -1q24 0 113 7l10 -11l-14 -98q-99 3 -126 3q-21 0 -45 -2.5t-31 -3.5l-2 -117q0 -28 4 -40t15.5 -16t38.5 -4q56 0 82.5 8t38 30.5t18.5 72.5l103 7zM259 711.5q-21 21.5 -21 59.5q0 41 24.5 65.5t64.5 24.5q38 0 59 -21.5t21 -59.5
q0 -41 -24 -65.5t-64 -24.5q-39 0 -60 21.5z" />
    <glyph glyph-name="edotaccent" unicode="&#x117;" horiz-adv-x="470" 
d="M82.5 50.5q-61.5 62.5 -61.5 173.5q0 73 31 131t86.5 90.5t126.5 32.5q178 0 178 -183q0 -31 -7 -61l-12 -11h-249q2 -60 32.5 -91.5t83.5 -31.5t117 29l9 -4l18 -60q-38 -29 -89 -53t-91 -24q-111 0 -172.5 62.5zM286 294q10 2 13 5.5t3 15.5q0 70 -54 70q-71 0 -75 -98
zM188 567.5q-21 21.5 -21 59.5q0 41 24.5 66t64.5 25q38 0 59 -22t21 -60q0 -41 -24 -65.5t-64 -24.5q-39 0 -60 21.5z" />
    <glyph glyph-name="Eogonek" unicode="&#x118;" horiz-adv-x="599" 
d="M571 200q-18 -95 -28 -194l-12 -13q-180 7 -315 7q-91 0 -189 -10l8 78q40 6 54.5 24.5t14.5 62.5l1 361q0 32 -6 43t-24 11q-15 0 -29 -2l-9 11l9 68h22q159 -3 182 -3q218 0 306 12l10 -13q-8 -39 -14.5 -93t-8.5 -96l-110 -7l2 38q0 27 -8.5 39t-32 16.5t-74.5 4.5
q-29 0 -37 -5t-8 -25l-7 -138l89 -1q24 0 113 7l10 -11l-14 -98q-99 3 -126 3q-21 0 -45 -2.5t-31 -3.5l-2 -117q0 -28 4 -40t15.5 -16t38.5 -4q56 0 82.5 8t38 30.5t18.5 72.5l103 7zM361 -214q-34 28 -34 72q0 21 9 41t34 51.5t80 91.5h70q-52 -73 -70 -106t-18 -55
q0 -15 8.5 -23.5t24.5 -8.5q14 0 31.5 6.5t33.5 16.5l27 -42q-64 -63 -109 -72q-53 0 -87 28z" />
    <glyph glyph-name="eogonek" unicode="&#x119;" horiz-adv-x="470" 
d="M453 -170q-63 -62 -109 -72q-53 0 -87 28t-34 73q0 27 18 55.5t66 82.5q-32 -9 -52 -9q-111 0 -172.5 62.5t-61.5 173.5q0 73 31 131t86.5 90.5t126.5 32.5q178 0 178 -183q0 -19 -3 -37.5t-4 -23.5l-12 -11h-249v-6q4 -58 33.5 -87.5t80.5 -29.5q28 0 54.5 6.5
t43.5 13.5t21 9l9 -4l18 -58q-61 -81 -84 -121t-23 -66q0 -14 9 -22.5t24 -8.5q16 0 34 7t31 16zM173 287l113 7q10 2 13 5.5t3 15.5q0 70 -54 70q-71 0 -75 -98z" />
    <glyph glyph-name="Ecaron" unicode="&#x11a;" horiz-adv-x="599" 
d="M571 200q-18 -95 -28 -194l-12 -13q-180 7 -315 7q-91 0 -189 -10l8 78q40 6 54.5 24.5t14.5 62.5l1 361q0 32 -6 43t-24 11q-15 0 -29 -2l-9 11l9 68h22q159 -3 182 -3q218 0 306 12l10 -13q-8 -39 -14.5 -93t-8.5 -96l-110 -7l2 38q0 27 -8.5 39t-32 16.5t-74.5 4.5
q-29 0 -37 -5t-8 -25l-7 -138l89 -1q24 0 113 7l10 -11l-14 -98q-99 3 -126 3q-21 0 -45 -2.5t-31 -3.5l-2 -117q0 -28 4 -40t15.5 -16t38.5 -4q56 0 82.5 8t38 30.5t18.5 72.5l103 7zM243.5 746q-50.5 41 -98.5 77l28 50l19 5q41 -19 129 -56q72 30 128 56l19 -5l29 -50
q-49 -36 -99.5 -77t-65.5 -53h-23q-15 12 -65.5 53z" />
    <glyph glyph-name="ecaron" unicode="&#x11b;" horiz-adv-x="470" 
d="M82.5 50.5q-61.5 62.5 -61.5 173.5q0 73 31 131t86.5 90.5t126.5 32.5q178 0 178 -183q0 -31 -7 -61l-12 -11h-249q2 -60 32.5 -91.5t83.5 -31.5t117 29l9 -4l18 -60q-38 -29 -89 -53t-91 -24q-111 0 -172.5 62.5zM286 294q10 2 13 5.5t3 15.5q0 70 -54 70q-71 0 -75 -98
zM177 582.5q-49 49.5 -96 93.5l36 50l18 5q47 -35 117 -79q71 45 116 79l19 -5l37 -50q-48 -44 -97.5 -93.5t-63.5 -64.5h-23q-14 15 -63 64.5z" />
    <glyph glyph-name="Gcircumflex" unicode="&#x11c;" horiz-adv-x="648" 
d="M163 27q-68 38 -104 109.5t-36 170.5q0 166 93.5 257.5t264.5 91.5q40 0 84.5 -5.5t75.5 -11.5t40 -8l9 -16q-2 -7 -7.5 -32.5t-11.5 -68t-9 -91.5l-121 -7q0 4 1 18.5t1 36.5q0 40 -19.5 55.5t-67.5 15.5q-78 0 -113 -47t-35 -153q0 -119 36 -179.5t105 -60.5
q22 0 39.5 4.5t27 9t11.5 6.5v81q0 27 -8 36t-31 9l-44 -1l-7 11l12 81l145 -1q32 0 65.5 2t43.5 3l8 -47q-21 -12 -30.5 -28.5t-12.5 -47t-3 -94.5q0 -59 7 -86l-10 -14q0 -1 -32.5 -11t-85.5 -18t-120 -8q-93 0 -161 38zM243 709l-36 50q47 42 95.5 91t62.5 64h23
q14 -15 63 -64t95 -91l-36 -50l-19 -5q-36 27 -115 77q-85 -55 -114 -77z" />
    <glyph glyph-name="gcircumflex" unicode="&#x11d;" horiz-adv-x="516" 
d="M432 408l-4 -6q39 -42 39 -98q0 -51 -28.5 -91.5t-79.5 -63.5t-116 -23q-38 0 -67 7q-16 -16 -16 -26q0 -18 29 -25.5t89 -13.5q67 -6 112 -15.5t77.5 -34t32.5 -69.5q0 -49 -39 -93t-102.5 -71t-132.5 -27q-85 0 -137.5 40t-52.5 105q24 23 100 65v6q-45 9 -70.5 36
t-29.5 69q33 36 82 69v8q-36 21 -56 56.5t-20 80.5q0 54 27.5 96.5t77 66t112.5 23.5q17 0 62 -5q30 -4 43 -4q41 2 143 35l6 -5l-13 -87q-43 -5 -68 -5zM321 294q0 46 -18 72.5t-53 26.5q-29 0 -44.5 -21.5t-15.5 -70.5q0 -45 16.5 -71t51.5 -26q63 0 63 90zM190.5 -68
q-7.5 -16 -7.5 -31q0 -27 21.5 -41.5t61.5 -14.5q43 0 70 17t27 45q0 14 -10.5 21t-41 13.5t-102.5 17.5q-11 -11 -18.5 -27zM143 537l-36 50q47 42 95.5 91t62.5 64h23q14 -15 63 -64t95 -91l-36 -50l-19 -5q-36 27 -115 77q-85 -55 -114 -77z" />
    <glyph glyph-name="Gbreve" unicode="&#x11e;" horiz-adv-x="648" 
d="M163 27q-68 38 -104 109.5t-36 170.5q0 166 93.5 257.5t264.5 91.5q40 0 84.5 -5.5t75.5 -11.5t40 -8l9 -16q-2 -7 -7.5 -32.5t-11.5 -68t-9 -91.5l-121 -7q0 4 1 18.5t1 36.5q0 40 -19.5 55.5t-67.5 15.5q-78 0 -113 -47t-35 -153q0 -119 36 -179.5t105 -60.5
q22 0 39.5 4.5t27 9t11.5 6.5v81q0 27 -8 36t-31 9l-44 -1l-7 11l12 81l145 -1q32 0 65.5 2t43.5 3l8 -47q-21 -12 -30.5 -28.5t-12.5 -47t-3 -94.5q0 -59 7 -86l-10 -14q0 -1 -32.5 -11t-85.5 -18t-120 -8q-93 0 -161 38zM267 718.5q-40 35.5 -56 88.5l32 46l22 5
q14 -31 42 -47.5t64 -16.5t64 16.5t42 47.5l22 -5l32 -46q-15 -52 -55.5 -88t-104.5 -36t-104 35.5z" />
    <glyph glyph-name="gbreve" unicode="&#x11f;" horiz-adv-x="516" 
d="M432 408l-4 -6q39 -42 39 -98q0 -51 -28.5 -91.5t-79.5 -63.5t-116 -23q-38 0 -67 7q-16 -16 -16 -26q0 -18 29 -25.5t89 -13.5q67 -6 112 -15.5t77.5 -34t32.5 -69.5q0 -49 -39 -93t-102.5 -71t-132.5 -27q-85 0 -137.5 40t-52.5 105q24 23 100 65v6q-45 9 -70.5 36
t-29.5 69q33 36 82 69v8q-36 21 -56 56.5t-20 80.5q0 54 27.5 96.5t77 66t112.5 23.5q17 0 62 -5q30 -4 43 -4q41 2 143 35l6 -5l-13 -87q-43 -5 -68 -5zM321 294q0 46 -18 72.5t-53 26.5q-29 0 -44.5 -21.5t-15.5 -70.5q0 -45 16.5 -71t51.5 -26q63 0 63 90zM190.5 -68
q-7.5 -16 -7.5 -31q0 -27 21.5 -41.5t61.5 -14.5q43 0 70 17t27 45q0 14 -10.5 21t-41 13.5t-102.5 17.5q-11 -11 -18.5 -27zM166 560.5q-40 37.5 -56 92.5l32 46l22 5q14 -34 42 -51.5t64 -17.5t64 17.5t42 51.5l22 -5l32 -46q-15 -55 -55.5 -92.5t-104.5 -37.5t-104 37.5z
" />
    <glyph glyph-name="Gdotaccent" unicode="&#x120;" horiz-adv-x="648" 
d="M163 27q-68 38 -104 109.5t-36 170.5q0 166 93.5 257.5t264.5 91.5q40 0 84.5 -5.5t75.5 -11.5t40 -8l9 -16q-2 -7 -7.5 -32.5t-11.5 -68t-9 -91.5l-121 -7q0 4 1 18.5t1 36.5q0 40 -19.5 55.5t-67.5 15.5q-78 0 -113 -47t-35 -153q0 -119 36 -179.5t105 -60.5
q22 0 39.5 4.5t27 9t11.5 6.5v81q0 27 -8 36t-31 9l-44 -1l-7 11l12 81l145 -1q32 0 65.5 2t43.5 3l8 -47q-21 -12 -30.5 -28.5t-12.5 -47t-3 -94.5q0 -59 7 -86l-10 -14q0 -1 -32.5 -11t-85.5 -18t-120 -8q-93 0 -161 38zM307 711.5q-21 21.5 -21 59.5q0 41 24.5 65.5
t64.5 24.5q38 0 59 -21.5t21 -59.5q0 -41 -24 -65.5t-64 -24.5q-39 0 -60 21.5z" />
    <glyph glyph-name="gdotaccent" unicode="&#x121;" horiz-adv-x="516" 
d="M432 408l-4 -6q39 -42 39 -98q0 -51 -28.5 -91.5t-79.5 -63.5t-116 -23q-38 0 -67 7q-16 -16 -16 -26q0 -18 29 -25.5t89 -13.5q67 -6 112 -15.5t77.5 -34t32.5 -69.5q0 -49 -39 -93t-102.5 -71t-132.5 -27q-85 0 -137.5 40t-52.5 105q24 23 100 65v6q-45 9 -70.5 36
t-29.5 69q33 36 82 69v8q-36 21 -56 56.5t-20 80.5q0 54 27.5 96.5t77 66t112.5 23.5q17 0 62 -5q30 -4 43 -4q41 2 143 35l6 -5l-13 -87q-43 -5 -68 -5zM321 294q0 46 -18 72.5t-53 26.5q-29 0 -44.5 -21.5t-15.5 -70.5q0 -45 16.5 -71t51.5 -26q63 0 63 90zM190.5 -68
q-7.5 -16 -7.5 -31q0 -27 21.5 -41.5t61.5 -14.5q43 0 70 17t27 45q0 14 -10.5 21t-41 13.5t-102.5 17.5q-11 -11 -18.5 -27zM199 567.5q-21 21.5 -21 59.5q0 41 24.5 66t64.5 25q38 0 59 -22t21 -60q0 -41 -24 -65.5t-64 -24.5q-39 0 -60 21.5z" />
    <glyph glyph-name="Gcommaaccent" unicode="&#x122;" horiz-adv-x="648" 
d="M163 27q-68 38 -104 109.5t-36 170.5q0 166 93.5 257.5t264.5 91.5q40 0 84.5 -5.5t75.5 -11.5t40 -8l9 -16q-2 -7 -7.5 -32.5t-11.5 -68t-9 -91.5l-121 -7q0 4 1 18.5t1 36.5q0 40 -19.5 55.5t-67.5 15.5q-78 0 -113 -47t-35 -153q0 -119 36 -179.5t105 -60.5
q22 0 39.5 4.5t27 9t11.5 6.5v81q0 27 -8 36t-31 9l-44 -1l-7 11l12 81l145 -1q32 0 65.5 2t43.5 3l8 -47q-21 -12 -30.5 -28.5t-12.5 -47t-3 -94.5q0 -59 7 -86l-10 -14q0 -1 -32.5 -11t-85.5 -18t-120 -8q-93 0 -161 38zM202 -293v21q30 20 48.5 48.5t18.5 55.5
q0 20 -9 39t-24 32l3 14q22 18 46 28.5t43 10.5q33 0 54 -25t21 -67q0 -51 -42.5 -102.5t-112.5 -90.5z" />
    <glyph glyph-name="gcommaaccent" unicode="&#x123;" horiz-adv-x="516" 
d="M432 408l-4 -6q39 -42 39 -98q0 -51 -28.5 -91.5t-79.5 -63.5t-116 -23q-38 0 -67 7q-16 -16 -16 -26q0 -18 29 -25.5t89 -13.5q67 -6 112 -15.5t77.5 -34t32.5 -69.5q0 -49 -39 -93t-102.5 -71t-132.5 -27q-85 0 -137.5 40t-52.5 105q24 23 100 65v6q-45 9 -70.5 36
t-29.5 69q33 36 82 69v8q-36 21 -56 56.5t-20 80.5q0 54 27.5 96.5t77 66t112.5 23.5q17 0 62 -5q30 -4 43 -4q41 2 143 35l6 -5l-13 -87q-43 -5 -68 -5zM321 294q0 46 -18 72.5t-53 26.5q-29 0 -44.5 -21.5t-15.5 -70.5q0 -45 16.5 -71t51.5 -26q63 0 63 90zM190.5 -68
q-7.5 -16 -7.5 -31q0 -27 21.5 -41.5t61.5 -14.5q43 0 70 17t27 45q0 14 -10.5 21t-41 13.5t-102.5 17.5q-11 -11 -18.5 -27zM209 542.5q-23 30.5 -23 73.5t31 94.5t84 98.5l52 -26l4 -20q-20 -20 -32.5 -47t-12.5 -50q0 -24 13.5 -46t35.5 -36v-14q-24 -28 -48.5 -43
t-47.5 -15q-33 0 -56 30.5z" />
    <glyph glyph-name="Hcircumflex" unicode="&#x124;" horiz-adv-x="744" 
d="M35 66q42 8 55.5 24.5t13.5 58.5l1 369q0 31 -7 41.5t-29 10.5q-14 0 -28 -2l-7 11l8 66l123 -1q11 0 113 4q18 0 58 2l-6 -76q-25 -4 -36 -10t-15.5 -17.5t-5.5 -36.5l-6 -133l110 -3q49 0 104 6v138q0 31 -7 41.5t-29 10.5q-13 0 -29 -2l-7 11l8 66l142 -1q24 0 84 3
l75 3l-6 -75q-36 -5 -47.5 -15.5t-13.5 -39.5q-5 -74 -8.5 -179.5t-3.5 -188.5q0 -44 8.5 -60.5t32.5 -16.5q12 0 33 3l6 -9l-9 -71q-80 2 -156 2l-151 -1l9 74q39 1 54 19t15 66v117l-88 1q-34 0 -129 -9l-1 -124q0 -42 7 -55.5t29 -13.5q20 0 32 3l6 -8l-9 -73
q-72 4 -138 4q-48 0 -162 -7zM225 710l-29 49q49 36 99.5 77t65.5 53h23q0 2 54 -42q94 -75 110 -88l-28 -49l-19 -6q-41 19 -129 56q-72 -30 -128 -56z" />
    <glyph glyph-name="hcircumflex" unicode="&#x125;" horiz-adv-x="548" 
d="M55.5 82.5q9.5 11.5 9.5 38.5v463q0 33 -9 44.5t-35 11.5h-24l-5 6l7 62q160 22 232 34l8 -22q-11 -12 -19 -97.5t-12 -234.5q38 38 73.5 64t51.5 26q77 0 117.5 -33.5t40.5 -96.5q0 -19 -10 -111q-2 -17 -6.5 -61.5t-4.5 -62.5q0 -23 6.5 -32.5t23.5 -9.5l28 1l2 -4
l-10 -72q-70 4 -118 4q-42 0 -116 -6l7 73q22 4 31 16.5t10 35.5l3 158q1 42 -12.5 60.5t-42.5 18.5q-14 0 -34 -9t-41 -25q-1 -50 -1 -211q0 -22 6 -31t21 -9l20 2l3 -7l-11 -70q-68 4 -116 4q-42 0 -118 -4l9 72q26 3 35.5 14.5zM14 762l-36 50q47 42 95.5 91t62.5 64h23
q14 -15 63 -64t95 -91l-36 -50l-19 -5q-36 27 -115 77q-85 -55 -114 -77z" />
    <glyph glyph-name="Hbar" unicode="&#x126;" horiz-adv-x="742" 
d="M645 442q-7 -163 -7 -290q0 -44 8.5 -60.5t32.5 -16.5q12 0 33 3l6 -9l-9 -71q-80 2 -156 2l-151 -1l9 74q39 1 54 19t15 66v117l-88 1q-34 0 -129 -9l-1 -124q0 -42 7 -55.5t29 -13.5q20 0 32 3l6 -8l-9 -73q-72 4 -138 4q-48 0 -162 -7l7 73q42 8 55.5 24.5t13.5 58.5
l1 291h-84l-11 9l8 53h87v16q0 31 -7 41.5t-29 10.5q-14 0 -28 -2l-7 11l8 66l123 -1q11 0 113 4q18 0 58 2l-6 -76q-25 -4 -36 -10t-15.5 -17.5t-5.5 -36.5v-9h128h80v17q0 31 -7 41.5t-29 10.5q-13 0 -29 -2l-7 11l8 66l142 -1q24 0 84 3l75 3l-6 -75q-36 -5 -47.5 -15.5
t-13.5 -39.5l-1 -16l72 2l15 -15l-5 -49h-86zM480 441h-105h-106l-3 -64l110 -3q48 0 104 6v61z" />
    <glyph glyph-name="hbar" unicode="&#x127;" horiz-adv-x="551" 
d="M533 68l-10 -72q-70 4 -118 4q-42 0 -116 -6l7 73q22 4 31 16.5t10 35.5l3 158q1 42 -12.5 60.5t-42.5 18.5q-14 0 -34 -9t-41 -25q-1 -50 -1 -211q0 -22 6 -31t21 -9l20 2l3 -7l-11 -70q-68 4 -116 4q-42 0 -118 -4l9 72q26 3 35.5 14.5t9.5 38.5v392l-80 -1l-10 10
l8 52l82 -1v11q0 33 -9 44.5t-35 11.5h-24l-5 6l7 62q160 22 232 34l8 -22q-14 -15 -23 -146l108 3l14 -14l-4 -50h-122l-4 -125q38 38 73.5 64t51.5 26q77 0 117.5 -33.5t40.5 -96.5q0 -19 -10 -111q-2 -17 -6.5 -61.5t-4.5 -62.5q0 -23 6.5 -32.5t23.5 -9.5l28 1z" />
    <glyph glyph-name="Imacron" unicode="&#x12a;" horiz-adv-x="367" 
d="M35 66q42 9 55.5 25t13.5 58l1 369q0 31 -7.5 41.5t-28.5 10.5q-15 0 -31 -2l-7 11l8 66l148 -1q28 0 89 3l66 3l-6 -76q-37 -5 -48.5 -15t-13.5 -39q-11 -213 -11 -377q0 -42 7 -55.5t29 -13.5q23 0 38 3l6 -8l-9 -73q-98 4 -156 4q-48 0 -151 -7zM31 715l16 89l154 -1
q31 0 72 2.5t54 3.5l9 -15l-14 -90l-141 -1l-137 -1z" />
    <glyph glyph-name="imacron" unicode="&#x12b;" horiz-adv-x="298" 
d="M28 64q29 4 43 18.5t14 42.5v196q0 33 -9.5 45t-35.5 12q-7 0 -14 -1.5t-9 -2.5l7 69q65 8 130 19.5t84 15.5l11 -19q-11 -22 -17.5 -115.5t-6.5 -234.5q0 -21 6 -29.5t22 -8.5q8 0 16 1t11 1l2 -4l-10 -73q-13 1 -48.5 2.5t-73.5 1.5q-33 0 -76 -4.5t-56 -6.5z
M9.57812 580l15.5137 90l149.318 -1q30.0576 0 69.8115 2.5t52.3584 3.5l8.72656 -16l-13.5742 -90l-136.714 -1l-132.836 -1z" />
    <glyph glyph-name="Ibreve" unicode="&#x12c;" horiz-adv-x="367" 
d="M35 66q42 9 55.5 25t13.5 58l1 369q0 31 -7.5 41.5t-28.5 10.5q-15 0 -31 -2l-7 11l8 66l148 -1q28 0 89 3l66 3l-6 -76q-37 -5 -48.5 -15t-13.5 -39q-11 -213 -11 -377q0 -42 7 -55.5t29 -13.5q23 0 38 3l6 -8l-9 -73q-98 4 -156 4q-48 0 -151 -7zM80 738.5
q-40 37.5 -56 92.5l32 46l22 5q14 -34 42 -51.5t64 -17.5t64 17.5t42 51.5l22 -5l32 -46q-15 -55 -55.5 -92.5t-104.5 -37.5t-104 37.5z" />
    <glyph glyph-name="ibreve" unicode="&#x12d;" horiz-adv-x="298" 
d="M28 64q29 4 43 18.5t14 42.5v196q0 33 -9.5 45t-35.5 12q-7 0 -14 -1.5t-9 -2.5l7 69q65 8 130 19.5t84 15.5l11 -19q-11 -22 -17.5 -115.5t-6.5 -234.5q0 -21 6 -29.5t22 -8.5q8 0 16 1t11 1l2 -4l-10 -73q-13 1 -48.5 2.5t-73.5 1.5q-33 0 -76 -4.5t-56 -6.5zM49 560.5
q-40 37.5 -56 92.5l32 46l22 5q14 -34 42 -51.5t64 -17.5t64 17.5t42 51.5l22 -5l32 -46q-15 -55 -55.5 -92.5t-104.5 -37.5t-104 37.5z" />
    <glyph glyph-name="Iogonek" unicode="&#x12e;" horiz-adv-x="367" 
d="M35 66q42 9 55.5 25t13.5 58l1 369q0 31 -7.5 41.5t-28.5 10.5q-15 0 -31 -2l-7 11l8 66l148 -1q28 0 89 3l66 3l-6 -76q-37 -5 -48.5 -15t-13.5 -39q-11 -213 -11 -377q0 -42 7 -55.5t29 -13.5q23 0 38 3l6 -8l-9 -73q-98 4 -156 4q-48 0 -151 -7zM149 -214
q-34 28 -34 72q0 21 9 41t34 51.5t80 91.5h70q-52 -73 -70 -106t-18 -55q0 -15 8.5 -23.5t24.5 -8.5q14 0 31.5 6.5t33.5 16.5l27 -42q-64 -63 -109 -72q-53 0 -87 28z" />
    <glyph glyph-name="iogonek" unicode="&#x12f;" horiz-adv-x="298" 
d="M93 -208q-34 28 -34 72q0 21 9 41t34 51.5t80 91.5h70q-52 -73 -70 -106t-18 -55q0 -15 8.5 -23.5t24.5 -8.5q14 0 31.5 6.5t33.5 16.5l27 -42q-64 -63 -109 -72q-53 0 -87 28zM28 64q29 4 43 18.5t14 42.5v196q0 33 -9.5 45t-35.5 12q-7 0 -14 -1.5t-9 -2.5l7 69
q65 8 130 19.5t84 15.5l11 -19q-11 -22 -17.5 -115.5t-6.5 -234.5q0 -21 6 -29.5t22 -8.5q8 0 16 1t11 1l2 -4l-10 -73q-13 1 -48.5 2.5t-73.5 1.5q-33 0 -76 -4.5t-56 -6.5zM86 567.5q-21 21.5 -21 59.5q0 41 24.5 66t64.5 25q38 0 59 -22t21 -60q0 -41 -24 -65.5
t-64 -24.5q-39 0 -60 21.5z" />
    <glyph glyph-name="Idotaccent" unicode="&#x130;" horiz-adv-x="367" 
d="M35 66q42 9 55.5 25t13.5 58l1 369q0 31 -7.5 41.5t-28.5 10.5q-15 0 -31 -2l-7 11l8 66l148 -1q28 0 89 3l66 3l-6 -76q-37 -5 -48.5 -15t-13.5 -39q-11 -213 -11 -377q0 -42 7 -55.5t29 -13.5q23 0 38 3l6 -8l-9 -73q-98 4 -156 4q-48 0 -151 -7zM120 711.5
q-21 21.5 -21 59.5q0 41 24.5 65.5t64.5 24.5q38 0 59 -21.5t21 -59.5q0 -41 -24 -65.5t-64 -24.5q-39 0 -60 21.5z" />
    <glyph glyph-name="dotlessi" unicode="&#x131;" horiz-adv-x="298" 
d="M28 64q29 4 43 18.5t14 42.5v196q0 33 -9.5 45t-35.5 12q-7 0 -14 -1.5t-9 -2.5l7 69q65 8 130 19.5t84 15.5l11 -19q-11 -22 -17.5 -115.5t-6.5 -234.5q0 -21 6 -29.5t22 -8.5q8 0 16 1t11 1l2 -4l-10 -73q-13 1 -48.5 2.5t-73.5 1.5q-33 0 -76 -4.5t-56 -6.5z" />
    <glyph glyph-name="IJ" unicode="&#x132;" horiz-adv-x="702" 
d="M35 66q42 9 55.5 25t13.5 58l1 369q0 31 -7.5 41.5t-28.5 10.5q-15 0 -31 -2l-7 11l8 66l148 -1q28 0 89 3l66 3l-6 -76q-37 -5 -48.5 -15t-13.5 -39q-11 -213 -11 -377q0 -42 7 -55.5t29 -13.5q23 0 38 3l6 -8l-9 -73q-98 4 -156 4q-48 0 -151 -7zM371 -114l2 12
q37 30 56 58t26.5 67t7.5 104v391q0 31 -6.5 41t-27.5 10q-12 0 -23.5 -1t-15.5 -1l-7 11l8 66l131 1q50 0 101 3t66 4l-7 -78q-31 -7 -39.5 -16t-10.5 -38q-4 -75 -8 -208t-4 -218q0 -98 -51.5 -158t-164.5 -94z" />
    <glyph glyph-name="ij" unicode="&#x133;" horiz-adv-x="584" 
d="M28 64q29 4 43 18.5t14 42.5v196q0 33 -9.5 45t-35.5 12q-7 0 -14 -1.5t-9 -2.5l7 69q65 8 130 19.5t84 15.5l11 -19q-11 -22 -17.5 -115.5t-6.5 -234.5q0 -21 6 -29.5t22 -8.5q8 0 16 1t11 1l2 -4l-10 -73q-13 1 -48.5 2.5t-73.5 1.5q-33 0 -76 -4.5t-56 -6.5zM86 567.5
q-21 21.5 -21 59.5q0 41 24.5 66t64.5 25q38 0 59 -22t21 -60q0 -41 -24 -65.5t-64 -24.5q-39 0 -60 21.5zM388 582.5q-21 21.5 -21 60.5q0 41 24.5 65.5t64.5 24.5q37 0 58.5 -22t21.5 -60q0 -41 -24 -65.5t-64 -24.5q-39 0 -60 21.5zM301 -210l2 13q43 42 58 90t15 142
v286q0 32 -7.5 44.5t-27.5 12.5q-11 0 -19 -1t-11 -2l7 67q56 8 124 20t88 16l10 -19q-11 -26 -17.5 -146.5t-6.5 -326.5q0 -70 -47.5 -132t-129.5 -100z" />
    <glyph glyph-name="Jcircumflex" unicode="&#x134;" horiz-adv-x="335" 
d="M4 -114l2 12q37 30 56 58t26.5 67t7.5 104v391q0 31 -6.5 41t-27.5 10q-12 0 -23.5 -1t-15.5 -1l-7 11l8 66l131 1q50 0 101 3t66 4l-7 -78q-31 -7 -39.5 -16t-10.5 -38q-4 -75 -8 -208t-4 -218q0 -98 -51.5 -158t-164.5 -94zM40 712l-36 50q47 42 95.5 91t62.5 64h23
q14 -15 63 -64t95 -91l-36 -50l-19 -5q-36 27 -115 77q-85 -55 -114 -77z" />
    <glyph glyph-name="jcircumflex" unicode="&#x135;" horiz-adv-x="286" 
d="M3 -210l2 13q43 42 58 90t15 142v286q0 32 -7.5 44.5t-27.5 12.5q-11 0 -19 -1t-11 -2l7 67q56 8 124 20t88 16l10 -19q-11 -26 -17.5 -146.5t-6.5 -326.5q0 -70 -47.5 -132t-129.5 -100zM10 538l-36 50q47 42 95.5 91t62.5 64h23q14 -15 63 -64t95 -91l-36 -50l-19 -5
q-36 27 -115 77q-85 -55 -114 -77z" />
    <glyph glyph-name="Kcommaaccent" unicode="&#x136;" horiz-adv-x="673" 
d="M98 559.5q-7 10.5 -29 10.5q-9 0 -17 -1t-11 -1l-7 11l8 67l145 -2q27 0 81 2.5t72 3.5l-7 -76q-37 -8 -48.5 -19t-12.5 -38l-9 -374q-1 -42 6.5 -55.5t29.5 -13.5q14 0 23.5 1t12.5 2l6 -8l-9 -73q-18 1 -65 2.5t-89 1.5q-37 0 -86 -1.5t-64 -2.5l8 73q29 5 43 13
t19.5 23t5.5 44l1 369q0 31 -7 41.5zM414 491q12 11 18 23.5t6 23.5q0 16 -11 23.5t-36 8.5l-5 8l8 70q15 -1 54.5 -2.5t78.5 -1.5q36 0 74.5 2t53.5 3l8 -13l-8 -65q-33 -16 -64.5 -45t-73.5 -82l-78 -93l117 -193q27 -45 50.5 -65t56.5 -24l8 -11l-10 -62
q-18 -2 -68.5 -6.5t-62.5 -4.5q-35 0 -60 18.5t-51 63.5l-141 249l4 26zM250 -293v21q30 20 48.5 48.5t18.5 55.5q0 20 -9 39t-24 32l3 14q22 18 46 28.5t43 10.5q33 0 54 -25t21 -67q0 -51 -42.5 -102.5t-112.5 -90.5z" />
    <glyph glyph-name="kcommaaccent" unicode="&#x137;" horiz-adv-x="528" 
d="M56.5 84.5q8.5 13.5 8.5 49.5v450q0 25 -5 37.5t-18 16.5q-10 2 -26 2h-20q-1 2 -1.5 5t-1.5 5l6 58q64 8 137 19t95 15l8 -22q-16 -16 -24.5 -180.5t-8.5 -430.5q0 -22 6 -30.5t21 -8.5l22 1l2 -6l-12 -70q-12 1 -51.5 3t-64.5 2q-33 0 -70 -2t-48 -3l9 72
q28 4 36.5 17.5zM220 260l84 90q11 11 15 18.5t4 14.5q0 11 -11.5 15.5t-39.5 4.5l-3 5l9 60q12 0 49 -1t82 -1q31 0 66.5 1.5t46.5 2.5l3 -5l-9 -69q-35 -15 -68 -43t-76 -72l-16 -16l75 -128q19 -33 41.5 -49.5t50.5 -20.5l5 -10l-8 -60q-7 -1 -31 -5t-41 -5l-24 -1
q-13 0 -25 2q-30 5 -49.5 22t-41.5 57l-91 166zM155 -293v21q30 20 48.5 48.5t18.5 55.5q0 20 -9 39t-24 32l3 14q22 18 46 28.5t43 10.5q33 0 54 -25t21 -67q0 -51 -42.5 -102.5t-112.5 -90.5z" />
    <glyph glyph-name="kgreenlandic" unicode="&#x138;" horiz-adv-x="548" 
d="M73.5 85.5q11.5 14.5 11.5 48.5v195q0 23 -4.5 34.5t-18 16.5t-40.5 5l-5 7l7 63q59 4 123 12t83 11l10 -12q-6 -23 -10 -97.5t-4 -259.5q0 -22 6 -30.5t21 -8.5l21 1l3 -6l-12 -70q-12 1 -51.5 3t-64.5 2q-34 0 -73.5 -2t-51.5 -3l9 72q29 4 40.5 18.5zM239 261l86 89
q11 11 15 18.5t4 14.5q0 11 -11.5 15.5t-39.5 4.5l-3 5l9 60q12 0 49 -1t81 -1q31 0 66.5 1.5t46.5 2.5l3 -5l-9 -69q-35 -15 -68 -43t-76 -72l-16 -16l75 -128q19 -33 41.5 -49.5t50.5 -20.5l5 -10l-8 -60q-7 -1 -31 -5t-42 -5l-23 -1q-13 0 -25 2q-30 5 -50 22t-41 57
l-91 168z" />
    <glyph glyph-name="Lacute" unicode="&#x139;" horiz-adv-x="542" 
d="M38 68q38 6 52 24.5t14 62.5v363q0 31 -7 41.5t-29 10.5q-9 0 -17 -1t-11 -1l-7 11l8 66l146 -1q29 0 92.5 2.5t84.5 3.5l-9 -82q-35 -4 -51.5 -10t-22.5 -18t-8 -36q-10 -144 -10 -357q0 -32 10 -42.5t41 -10.5q44 0 66 12t32.5 44.5t16.5 99.5l103 11l9 -12
q-3 -20 -11 -92.5t-14 -151.5l-12 -13q-27 1 -116.5 4.5t-170.5 3.5q-59 0 -115 -4t-72 -6zM74 708l-17 57q72 29 143 61t91 42l14 -6l30 -89l-6 -15q-21 -5 -93.5 -22t-146.5 -38z" />
    <glyph glyph-name="lacute" unicode="&#x13a;" horiz-adv-x="274" 
d="M19 65q29 6 37.5 19.5t8.5 49.5v450q0 27 -4.5 38.5t-18 15t-45.5 2.5l-5 6l7 62q133 17 232 34l8 -22q-33 -87 -33 -611q0 -22 6 -30.5t20 -8.5l33 1l3 -6l-11 -69q-86 4 -128 4q-45 0 -119 -7zM88 769l-37 47q52 52 103.5 105.5t66.5 69.5h14l66 -80l-1 -15
q-17 -11 -76 -49.5t-118 -82.5z" />
    <glyph glyph-name="Lcommaaccent" unicode="&#x13b;" horiz-adv-x="542" 
d="M38 68q38 6 52 24.5t14 62.5v363q0 31 -7 41.5t-29 10.5q-9 0 -17 -1t-11 -1l-7 11l8 66l146 -1q29 0 92.5 2.5t84.5 3.5l-9 -82q-35 -4 -51.5 -10t-22.5 -18t-8 -36q-10 -144 -10 -357q0 -32 10 -42.5t41 -10.5q44 0 66 12t32.5 44.5t16.5 99.5l103 11l9 -12
q-3 -20 -11 -92.5t-14 -151.5l-12 -13q-27 1 -116.5 4.5t-170.5 3.5q-59 0 -115 -4t-72 -6zM170 -293v21q30 20 48.5 48.5t18.5 55.5q0 20 -9 39t-24 32l3 14q22 18 46 28.5t43 10.5q33 0 54 -25t21 -67q0 -51 -42.5 -102.5t-112.5 -90.5z" />
    <glyph glyph-name="lcommaaccent" unicode="&#x13c;" horiz-adv-x="274" 
d="M19 65q29 6 37.5 19.5t8.5 49.5v450q0 27 -4.5 38.5t-18 15t-45.5 2.5l-5 6l7 62q133 17 232 34l8 -22q-33 -87 -33 -611q0 -22 6 -30.5t20 -8.5l33 1l3 -6l-11 -69q-86 4 -128 4q-45 0 -119 -7zM15 -293v21q30 20 48.5 48.5t18.5 55.5q0 20 -9 39t-24 32l3 14
q22 18 46 28.5t43 10.5q33 0 54 -25t21 -67q0 -51 -42.5 -102.5t-112.5 -90.5z" />
    <glyph glyph-name="Lcaron" unicode="&#x13d;" horiz-adv-x="551" 
d="M38 68q38 6 52 24.5t14 62.5v363q0 31 -7 41.5t-29 10.5q-9 0 -17 -1t-11 -1l-7 11l8 66l146 -1q29 0 92.5 2.5t84.5 3.5l-9 -82q-35 -4 -51.5 -10t-22.5 -18t-8 -36q-10 -144 -10 -357q0 -32 10 -42.5t41 -10.5q44 0 66 12t32.5 44.5t16.5 99.5l103 11l9 -12
q-3 -20 -11 -92.5t-14 -151.5l-12 -13q-27 1 -116.5 4.5t-170.5 3.5q-59 0 -115 -4t-72 -6zM433 397v32q0 66 -3.5 125t-4.5 75l114 14l9 -11q-3 -19 -14 -84.5t-26 -133.5l-59 -22z" />
    <glyph glyph-name="lcaron" unicode="&#x13e;" horiz-adv-x="383" 
d="M19 65q29 6 37.5 19.5t8.5 49.5v450q0 27 -4.5 38.5t-18 15t-45.5 2.5l-5 6l7 62q133 17 232 34l8 -22q-33 -87 -33 -611q0 -22 6 -30.5t20 -8.5l33 1l3 -6l-11 -69q-86 4 -128 4q-45 0 -119 -7zM275 443l1 42q0 63 -3.5 119t-5.5 71l115 14l8 -11q-3 -19 -13.5 -84.5
t-26.5 -133.5l-58 -21z" />
    <glyph glyph-name="Ldot" unicode="&#x13f;" horiz-adv-x="564" 
d="M38 68q38 6 52 24.5t14 62.5v363q0 31 -7 41.5t-29 10.5q-9 0 -17 -1t-11 -1l-7 11l8 66l146 -1q29 0 92.5 2.5t84.5 3.5l-9 -82q-35 -4 -51.5 -10t-22.5 -18t-8 -36q-10 -144 -10 -357q0 -32 10 -42.5t41 -10.5q44 0 66 12t32.5 44.5t16.5 99.5l103 11l9 -12
q-3 -20 -11 -92.5t-14 -151.5l-12 -13q-27 1 -116.5 4.5t-170.5 3.5q-59 0 -115 -4t-72 -6zM399 401q-21 22 -21 62q0 42 24 66.5t66 24.5q39 0 60.5 -22.5t21.5 -61.5q0 -41 -24.5 -66t-65.5 -25q-40 0 -61 22z" />
    <glyph glyph-name="ldot" unicode="&#x140;" horiz-adv-x="422" 
d="M19 65q29 6 37.5 19.5t8.5 49.5v450q0 27 -4.5 38.5t-18 15t-45.5 2.5l-5 6l7 62q133 17 232 34l8 -22q-33 -87 -33 -611q0 -22 6 -30.5t20 -8.5l33 1l3 -6l-11 -69q-86 4 -128 4q-45 0 -119 -7zM270 231q-21 22 -21 62q0 42 24 66.5t66 24.5q39 0 60.5 -22.5t21.5 -61.5
q0 -41 -24.5 -66t-65.5 -25q-40 0 -61 22z" />
    <glyph glyph-name="Lslash" unicode="&#x141;" horiz-adv-x="573" 
d="M558 249q-3 -20 -11 -92.5t-14 -151.5l-12 -13q-27 1 -116.5 4.5t-170.5 3.5q-59 0 -115 -4t-72 -6l8 78q38 6 52 24.5t14 62.5v99l-59 -29l-10 2l-23 75l92 46v170q0 31 -7 41.5t-29 10.5q-9 0 -17 -1t-11 -1l-7 11l8 66l146 -1q29 0 92.5 2.5t84.5 3.5l-9 -82
q-35 -4 -51.5 -10t-22.5 -18t-8 -36q-4 -57 -5 -91l112 56l9 -5l23 -74l-147 -74q-2 -106 -2 -169q0 -32 10 -42.5t41 -10.5q44 0 66 12t32.5 44.5t16.5 99.5l103 11z" />
    <glyph glyph-name="lslash" unicode="&#x142;" horiz-adv-x="323" 
d="M290 71l3 -6l-11 -69q-86 4 -128 4q-45 0 -119 -7l9 72q29 6 37.5 19.5t8.5 49.5v157l-56 -29l-10 2l-23 75l89 46v199q0 27 -4.5 38.5t-18 15t-45.5 2.5l-5 6l7 62q133 17 232 34l8 -22q-20 -57 -28 -276l55 28l9 -4l23 -74l-90 -46q-2 -142 -2 -239q0 -22 6 -30.5
t20 -8.5z" />
    <glyph glyph-name="Nacute" unicode="&#x143;" horiz-adv-x="733" 
d="M343.5 231q-74.5 113 -95.5 144h-12l1 -254q0 -27 8 -37.5t28 -10.5q11 0 23 1.5t16 1.5l7 -7l-10 -73q-16 1 -57.5 2.5t-81.5 1.5q-38 0 -80.5 -3.5t-55.5 -4.5l9 77q30 4 43.5 18.5t14.5 44.5l12 375q0 23 -6 35t-22.5 18t-49.5 10l-10 11l7 68q12 -1 52 -3t77 -2
q30 0 65 1.5t45 2.5q71 -119 153 -246.5t82 -125.5h12l-2 250q-1 25 -8.5 34t-24.5 9h-33l-5 9l7 70q16 -1 58.5 -2.5t85.5 -1.5q33 0 73.5 1.5t53.5 2.5l-5 -76q-33 -4 -46.5 -18.5t-14.5 -44.5l-13 -517l-140 -13q-86 139 -160.5 252zM299 705l-17 57q72 29 143 61t91 42
l14 -6l30 -89l-6 -15q-21 -5 -93.5 -22t-146.5 -38z" />
    <glyph glyph-name="nacute" unicode="&#x144;" horiz-adv-x="574" 
d="M346.5 83.5q9.5 11.5 10.5 35.5l2 158q1 42 -12.5 60.5t-42.5 18.5q-28 0 -69 -30l-3 -62q-8 -130 -8 -152t6 -30.5t22 -8.5l22 1l2 -5l-11 -73q-12 1 -45 2.5t-67 1.5q-36 0 -76.5 -2t-52.5 -3l10 73q29 2 40 14t11 40v194q0 35 -9.5 47t-38.5 12h-15l-4 6l7 63
q63 9 125.5 20t80.5 14l11 -11q-2 -6 -6 -27.5t-6 -42.5l5 -4q33 31 69 58t51 27q76 0 116.5 -34t40.5 -96q0 -28 -9 -111q-10 -100 -10 -124q0 -23 6.5 -32.5t22.5 -9.5l28 1l2 -4l-10 -72q-13 1 -47.5 2.5t-69.5 1.5q-24 0 -64 -2.5t-53 -3.5l7 73q22 5 31.5 16.5z
M250 526l-37 47q52 52 103.5 105.5t66.5 69.5h14l66 -80l-1 -15q-17 -11 -76 -49.5t-118 -82.5z" />
    <glyph glyph-name="Ncommaaccent" unicode="&#x145;" horiz-adv-x="733" 
d="M343.5 231q-74.5 113 -95.5 144h-12l1 -254q0 -27 8 -37.5t28 -10.5q11 0 23 1.5t16 1.5l7 -7l-10 -73q-16 1 -57.5 2.5t-81.5 1.5q-38 0 -80.5 -3.5t-55.5 -4.5l9 77q30 4 43.5 18.5t14.5 44.5l12 375q0 23 -6 35t-22.5 18t-49.5 10l-10 11l7 68q12 -1 52 -3t77 -2
q30 0 65 1.5t45 2.5q71 -119 153 -246.5t82 -125.5h12l-2 250q-1 25 -8.5 34t-24.5 9h-33l-5 9l7 70q16 -1 58.5 -2.5t85.5 -1.5q33 0 73.5 1.5t53.5 2.5l-5 -76q-33 -4 -46.5 -18.5t-14.5 -44.5l-13 -517l-140 -13q-86 139 -160.5 252zM257 -293v21q30 20 48.5 48.5
t18.5 55.5q0 20 -9 39t-24 32l3 14q22 18 46 28.5t43 10.5q33 0 54 -25t21 -67q0 -51 -42.5 -102.5t-112.5 -90.5z" />
    <glyph glyph-name="ncommaaccent" unicode="&#x146;" horiz-adv-x="574" 
d="M346.5 83.5q9.5 11.5 10.5 35.5l2 158q1 42 -12.5 60.5t-42.5 18.5q-28 0 -69 -30l-3 -62q-8 -130 -8 -152t6 -30.5t22 -8.5l22 1l2 -5l-11 -73q-12 1 -45 2.5t-67 1.5q-36 0 -76.5 -2t-52.5 -3l10 73q29 2 40 14t11 40v194q0 35 -9.5 47t-38.5 12h-15l-4 6l7 63
q63 9 125.5 20t80.5 14l11 -11q-2 -6 -6 -27.5t-6 -42.5l5 -4q33 31 69 58t51 27q76 0 116.5 -34t40.5 -96q0 -28 -9 -111q-10 -100 -10 -124q0 -23 6.5 -32.5t22.5 -9.5l28 1l2 -4l-10 -72q-13 1 -47.5 2.5t-69.5 1.5q-24 0 -64 -2.5t-53 -3.5l7 73q22 5 31.5 16.5z
M167 -293v21q30 20 48.5 48.5t18.5 55.5q0 20 -9 39t-24 32l3 14q22 18 46 28.5t43 10.5q33 0 54 -25t21 -67q0 -51 -42.5 -102.5t-112.5 -90.5z" />
    <glyph glyph-name="Ncaron" unicode="&#x147;" horiz-adv-x="733" 
d="M343.5 231q-74.5 113 -95.5 144h-12l1 -254q0 -27 8 -37.5t28 -10.5q11 0 23 1.5t16 1.5l7 -7l-10 -73q-16 1 -57.5 2.5t-81.5 1.5q-38 0 -80.5 -3.5t-55.5 -4.5l9 77q30 4 43.5 18.5t14.5 44.5l12 375q0 23 -6 35t-22.5 18t-49.5 10l-10 11l7 68q12 -1 52 -3t77 -2
q30 0 65 1.5t45 2.5q71 -119 153 -246.5t82 -125.5h12l-2 250q-1 25 -8.5 34t-24.5 9h-33l-5 9l7 70q16 -1 58.5 -2.5t85.5 -1.5q33 0 73.5 1.5t53.5 2.5l-5 -76q-33 -4 -46.5 -18.5t-14.5 -44.5l-13 -517l-140 -13q-86 139 -160.5 252zM302.5 746q-50.5 41 -98.5 77l28 50
l19 5q41 -19 129 -56q72 30 128 56l19 -5l29 -50q-49 -36 -99.5 -77t-65.5 -53h-23q-15 12 -65.5 53z" />
    <glyph glyph-name="ncaron" unicode="&#x148;" horiz-adv-x="574" 
d="M346.5 83.5q9.5 11.5 10.5 35.5l2 158q1 42 -12.5 60.5t-42.5 18.5q-28 0 -69 -30l-3 -62q-8 -130 -8 -152t6 -30.5t22 -8.5l22 1l2 -5l-11 -73q-12 1 -45 2.5t-67 1.5q-36 0 -76.5 -2t-52.5 -3l10 73q29 2 40 14t11 40v194q0 35 -9.5 47t-38.5 12h-15l-4 6l7 63
q63 9 125.5 20t80.5 14l11 -11q-2 -6 -6 -27.5t-6 -42.5l5 -4q33 31 69 58t51 27q76 0 116.5 -34t40.5 -96q0 -28 -9 -111q-10 -100 -10 -124q0 -23 6.5 -32.5t22.5 -9.5l28 1l2 -4l-10 -72q-13 1 -47.5 2.5t-69.5 1.5q-24 0 -64 -2.5t-53 -3.5l7 73q22 5 31.5 16.5z
M228 582.5q-49 49.5 -96 93.5l36 50l18 5q47 -35 117 -79q71 45 116 79l19 -5l37 -50q-48 -44 -97.5 -93.5t-63.5 -64.5h-23q-14 15 -63 64.5z" />
    <glyph glyph-name="Eng" unicode="&#x14a;" horiz-adv-x="731" 
d="M400 -124l2 12q40 27 61 53t31 61q-84 136 -156.5 245.5t-92.5 138.5h-12v-268q1 -26 9 -36.5t28 -10.5q11 0 22.5 1.5t16.5 1.5l7 -7l-10 -71q-15 1 -65.5 2.5t-93.5 1.5q-25 0 -61.5 -3.5t-48.5 -4.5l8 74q31 4 44.5 19.5t14.5 51.5l12 374q0 21 -6 33t-23 18.5
t-50 10.5l-9 11l7 65q13 -1 55 -3t70 -2q34 0 65 1.5t42 2.5q48 -82 102 -167t92.5 -142.5t49.5 -73.5h11l-3 264q0 24 -7.5 33.5t-25.5 9.5l-33 -1l-4 8l6 69q18 -1 63 -2.5t80 -1.5q38 1 74 2.5t49 2.5l-5 -74q-34 -4 -47.5 -18.5t-14.5 -44.5l-10 -427q-3 -99 -53 -158.5
t-160 -93.5z" />
    <glyph glyph-name="eng" unicode="&#x14b;" horiz-adv-x="555" 
d="M246 -114l2 12q45 30 68 57t32 64t10 100l1 158q0 42 -13.5 60.5t-42.5 18.5t-68 -30q-11 -189 -11 -214q0 -23 5.5 -31t21.5 -8l22 1l3 -5l-11 -73q-12 1 -45 2.5t-68 1.5q-36 0 -76.5 -2t-52.5 -3l10 73q29 2 40.5 14t11.5 40v194q0 35 -10 47t-39 12h-14l-5 6l7 63
q64 9 126.5 20t80.5 14l10 -11q-2 -6 -6 -27.5t-6 -42.5l6 -4q33 34 68.5 59.5t51.5 25.5q75 0 116 -34t41 -96l-18 -257q-6 -72 -28.5 -119t-67 -78t-119.5 -52z" />
    <glyph glyph-name="Omacron" unicode="&#x14c;" horiz-adv-x="666" 
d="M99.5 72q-76.5 84 -76.5 235q0 108 39 186.5t113 120.5t175 42q142 0 218 -82t76 -234q0 -108 -40 -187.5t-114.5 -122t-175.5 -42.5q-138 0 -214.5 84zM426.5 139.5q30.5 48.5 30.5 144.5q0 132 -32.5 195t-99.5 63q-117 0 -117 -191q0 -132 32.5 -196t96.5 -64
q59 0 89.5 48.5zM180 715l16 89l154 -1q31 0 72 2.5t54 3.5l9 -15l-14 -90l-141 -1l-137 -1z" />
    <glyph glyph-name="omacron" unicode="&#x14d;" horiz-adv-x="506" 
d="M89.5 51q-59.5 63 -59.5 169q0 78 30.5 136.5t86 90t129.5 31.5q103 0 161 -61t58 -171q0 -78 -30 -136.5t-86 -90t-130 -31.5q-100 0 -159.5 63zM318.5 105q16.5 28 16.5 91q0 95 -19.5 138.5t-59.5 43.5q-36 0 -52.5 -28t-16.5 -89q0 -97 19.5 -140.5t59.5 -43.5
q36 0 52.5 28zM110 580l16 90l154 -1q31 0 72 2.5t54 3.5l9 -16l-14 -90l-141 -1l-137 -1z" />
    <glyph glyph-name="Obreve" unicode="&#x14e;" horiz-adv-x="666" 
d="M99.5 72q-76.5 84 -76.5 235q0 108 39 186.5t113 120.5t175 42q142 0 218 -82t76 -234q0 -108 -40 -187.5t-114.5 -122t-175.5 -42.5q-138 0 -214.5 84zM426.5 139.5q30.5 48.5 30.5 144.5q0 132 -32.5 195t-99.5 63q-117 0 -117 -191q0 -132 32.5 -196t96.5 -64
q59 0 89.5 48.5zM221 728.5q-40 37.5 -56 92.5l32 46l22 5q14 -34 42 -51.5t64 -17.5t64 17.5t42 51.5l22 -5l32 -46q-15 -55 -55.5 -92.5t-104.5 -37.5t-104 37.5z" />
    <glyph glyph-name="obreve" unicode="&#x14f;" horiz-adv-x="506" 
d="M89.5 51q-59.5 63 -59.5 169q0 78 30.5 136.5t86 90t129.5 31.5q103 0 161 -61t58 -171q0 -78 -30 -136.5t-86 -90t-130 -31.5q-100 0 -159.5 63zM318.5 105q16.5 28 16.5 91q0 95 -19.5 138.5t-59.5 43.5q-36 0 -52.5 -28t-16.5 -89q0 -97 19.5 -140.5t59.5 -43.5
q36 0 52.5 28zM160 560.5q-40 37.5 -56 92.5l32 46l22 5q14 -34 42 -51.5t64 -17.5t64 17.5t42 51.5l22 -5l32 -46q-15 -55 -55.5 -92.5t-104.5 -37.5t-104 37.5z" />
    <glyph glyph-name="Ohungarumlaut" unicode="&#x150;" horiz-adv-x="666" 
d="M99.5 72q-76.5 84 -76.5 235q0 108 39 186.5t113 120.5t175 42q142 0 218 -82t76 -234q0 -108 -40 -187.5t-114.5 -122t-175.5 -42.5q-138 0 -214.5 84zM426.5 139.5q30.5 48.5 30.5 144.5q0 132 -32.5 195t-99.5 63q-117 0 -117 -191q0 -132 32.5 -196t96.5 -64
q59 0 89.5 48.5zM199 682l-29 40q47 42 92 85t58 56h14l52 -70l-1 -13q-15 -8 -66 -38.5t-104 -64.5zM380 679l-29 40q55 51 96 90t54 52l13 -1l53 -69l-1 -14q-15 -8 -67 -38.5t-104 -64.5z" />
    <glyph glyph-name="ohungarumlaut" unicode="&#x151;" horiz-adv-x="526" 
d="M89.5 51q-59.5 63 -59.5 169q0 78 30.5 136.5t86 90t129.5 31.5q103 0 161 -61t58 -171q0 -78 -30 -136.5t-86 -90t-130 -31.5q-100 0 -159.5 63zM318.5 105q16.5 28 16.5 91q0 95 -19.5 138.5t-59.5 43.5q-36 0 -52.5 -28t-16.5 -89q0 -97 19.5 -140.5t59.5 -43.5
q36 0 52.5 28zM266 617q-44 -41 -88 -87h-16l-39 32q37 52 72.5 105.5t45.5 68.5l12 2l69 -55l1 -13q-13 -12 -57 -53zM419 617q-44 -41 -88 -87h-16l-39 32q43 62 75 110.5t42 63.5l13 2l68 -55l2 -13q-13 -12 -57 -53z" />
    <glyph glyph-name="OE" unicode="&#x152;" horiz-adv-x="930" 
d="M101 73q-78 84 -78 234q0 163 85 253t237 90q29 0 97 -6q91 -7 129 -7q89 0 174 6t141 13l10 -13q-1 -8 -5.5 -34t-10 -70t-7.5 -85l-111 -7q0 4 1 15.5t1 22.5q0 27 -8 39t-31.5 16.5t-75.5 4.5q-29 0 -36.5 -5t-8.5 -25l-6 -138l88 -1q20 0 60.5 3t53.5 4l10 -11
l-14 -98q-13 1 -49.5 2t-76.5 1l-76 -6l-2 -117q0 -28 3.5 -40t15 -16t38.5 -4q57 0 83.5 8t38 30.5t18.5 72.5l102 7l10 -12q-3 -16 -12.5 -73t-15.5 -121l-12 -13q-31 2 -132 5.5t-186 3.5q-36 0 -132 -7q-70 -6 -95 -6q-137 0 -215 84zM414 114q25 27 25 86l1 248
q0 56 -26 77.5t-87 21.5q-120 0 -120 -195q0 -135 32 -200t96 -65q54 0 79 27z" />
    <glyph glyph-name="oe" unicode="&#x153;" horiz-adv-x="770" 
d="M79.5 50.5q-58.5 62.5 -58.5 169.5q0 78 30 136.5t85 90t129 31.5q34 0 65.5 -13t53.5 -30t28 -27q9 11 32.5 28t56 29.5t65.5 12.5q93 0 135.5 -47.5t42.5 -132.5q0 -21 -3.5 -40t-5.5 -24l-11 -11h-248v-7q12 -116 114 -116q28 0 54.5 6.5t43.5 13.5t21 9l9 -4l18 -60
q0 -1 -32.5 -22t-72.5 -38t-75 -17q-38 0 -71.5 13t-56.5 30t-31 29q-8 -11 -32.5 -28t-58 -30.5t-68.5 -13.5q-100 0 -158.5 62.5zM587 294q10 1 13 5t3 16q0 70 -54 70q-71 0 -75 -99zM306.5 105.5q16.5 28.5 16.5 90.5q0 95 -19 138.5t-59 43.5q-35 0 -51.5 -28
t-16.5 -89q0 -97 19 -140.5t59 -43.5q35 0 51.5 28.5z" />
    <glyph glyph-name="Racute" unicode="&#x154;" horiz-adv-x="658" 
d="M451.5 6.5q-26.5 22.5 -47.5 69.5l-76 166h-64l-1 -93q0 -35 4.5 -49.5t18.5 -19.5t48 -6l5 -7l-10 -71l-147 4q-41 0 -90.5 -3t-64.5 -4l9 77q40 6 54 23.5t14 59.5l1 370q0 27 -6.5 37t-23.5 10q-11 0 -21 -1t-13 -1l-8 9l10 69q15 0 54.5 -1t77.5 -1q45 0 96 2t71 3
q124 0 188.5 -45t64.5 -133q0 -59 -33 -107.5t-95 -82.5l76 -125q27 -45 52.5 -66t52.5 -21l9 -13l-8 -61l-134 -11q-37 0 -63.5 22.5zM404.5 376q21.5 25 21.5 75t-33 74t-101 24q-10 0 -13 -4t-4 -18q-6 -86 -8 -181l84 -10q32 15 53.5 40zM203 705l-17 57q72 29 143 61
t91 42l14 -6l30 -89l-6 -15q-21 -5 -93.5 -22t-146.5 -38z" />
    <glyph glyph-name="racute" unicode="&#x155;" horiz-adv-x="426" 
d="M76 83q11 13 11 46v188q0 35 -9 47t-36 12l-18 -1l-5 7l7 61q62 9 124.5 20.5t80.5 14.5l11 -10q-2 -8 -6.5 -35.5t-5.5 -53.5l7 -4q32 46 68 70.5t73 24.5q11 0 22 -1.5t14 -2.5l4 -9q-3 -19 -11 -82t-11 -120l-77 -5q0 51 -6 68t-23 17q-13 0 -27 -8.5t-27 -23.5
q-2 -27 -5.5 -89t-4.5 -98q0 -22 8 -31t27 -9q17 0 32.5 1.5t20.5 2.5l4 -7l-12 -78q-15 1 -63.5 3t-80.5 2q-39 0 -81 -2t-55 -3l10 73q29 2 40 15zM105 526l-37 47q52 52 103.5 105.5t66.5 69.5h14l66 -80l-1 -15q-17 -11 -76 -49.5t-118 -82.5z" />
    <glyph glyph-name="Rcommaaccent" unicode="&#x156;" horiz-adv-x="658" 
d="M451.5 6.5q-26.5 22.5 -47.5 69.5l-76 166h-64l-1 -93q0 -35 4.5 -49.5t18.5 -19.5t48 -6l5 -7l-10 -71l-147 4q-41 0 -90.5 -3t-64.5 -4l9 77q40 6 54 23.5t14 59.5l1 370q0 27 -6.5 37t-23.5 10q-11 0 -21 -1t-13 -1l-8 9l10 69q15 0 54.5 -1t77.5 -1q45 0 96 2t71 3
q124 0 188.5 -45t64.5 -133q0 -59 -33 -107.5t-95 -82.5l76 -125q27 -45 52.5 -66t52.5 -21l9 -13l-8 -61l-134 -11q-37 0 -63.5 22.5zM404.5 376q21.5 25 21.5 75t-33 74t-101 24q-10 0 -13 -4t-4 -18q-6 -86 -8 -181l84 -10q32 15 53.5 40zM219 -293v21q30 20 48.5 48.5
t18.5 55.5q0 20 -9 39t-24 32l3 14q22 18 46 28.5t43 10.5q33 0 54 -25t21 -67q0 -51 -42.5 -102.5t-112.5 -90.5z" />
    <glyph glyph-name="rcommaaccent" unicode="&#x157;" horiz-adv-x="426" 
d="M76 83q11 13 11 46v188q0 35 -9 47t-36 12l-18 -1l-5 7l7 61q62 9 124.5 20.5t80.5 14.5l11 -10q-2 -8 -6.5 -35.5t-5.5 -53.5l7 -4q32 46 68 70.5t73 24.5q11 0 22 -1.5t14 -2.5l4 -9q-3 -19 -11 -82t-11 -120l-77 -5q0 51 -6 68t-23 17q-13 0 -27 -8.5t-27 -23.5
q-2 -27 -5.5 -89t-4.5 -98q0 -22 8 -31t27 -9q17 0 32.5 1.5t20.5 2.5l4 -7l-12 -78q-15 1 -63.5 3t-80.5 2q-39 0 -81 -2t-55 -3l10 73q29 2 40 15zM39 -293v21q30 20 48.5 48.5t18.5 55.5q0 20 -9 39t-24 32l3 14q22 18 46 28.5t43 10.5q33 0 54 -25t21 -67
q0 -51 -42.5 -102.5t-112.5 -90.5z" />
    <glyph glyph-name="Rcaron" unicode="&#x158;" horiz-adv-x="658" 
d="M451.5 6.5q-26.5 22.5 -47.5 69.5l-76 166h-64l-1 -93q0 -35 4.5 -49.5t18.5 -19.5t48 -6l5 -7l-10 -71l-147 4q-41 0 -90.5 -3t-64.5 -4l9 77q40 6 54 23.5t14 59.5l1 370q0 27 -6.5 37t-23.5 10q-11 0 -21 -1t-13 -1l-8 9l10 69q15 0 54.5 -1t77.5 -1q45 0 96 2t71 3
q124 0 188.5 -45t64.5 -133q0 -59 -33 -107.5t-95 -82.5l76 -125q27 -45 52.5 -66t52.5 -21l9 -13l-8 -61l-134 -11q-37 0 -63.5 22.5zM404.5 376q21.5 25 21.5 75t-33 74t-101 24q-10 0 -13 -4t-4 -18q-6 -86 -8 -181l84 -10q32 15 53.5 40zM241.5 746q-50.5 41 -98.5 77
l28 50l19 5q41 -19 129 -56q72 30 128 56l19 -5l29 -50q-49 -36 -99.5 -77t-65.5 -53h-23q-15 12 -65.5 53z" />
    <glyph glyph-name="rcaron" unicode="&#x159;" horiz-adv-x="426" 
d="M76 83q11 13 11 46v188q0 35 -9 47t-36 12l-18 -1l-5 7l7 61q62 9 124.5 20.5t80.5 14.5l11 -10q-2 -8 -6.5 -35.5t-5.5 -53.5l7 -4q32 46 68 70.5t73 24.5q11 0 22 -1.5t14 -2.5l4 -9q-3 -19 -11 -82t-11 -120l-77 -5q0 51 -6 68t-23 17q-13 0 -27 -8.5t-27 -23.5
q-2 -27 -5.5 -89t-4.5 -98q0 -22 8 -31t27 -9q17 0 32.5 1.5t20.5 2.5l4 -7l-12 -78q-15 1 -63.5 3t-80.5 2q-39 0 -81 -2t-55 -3l10 73q29 2 40 15zM162 582.5q-49 49.5 -96 93.5l36 50l18 5q47 -35 117 -79q71 45 116 79l19 -5l37 -50q-48 -44 -97.5 -93.5t-63.5 -64.5
h-23q-14 15 -63 64.5z" />
    <glyph glyph-name="Sacute" unicode="&#x15a;" horiz-adv-x="545" 
d="M131 -3q-41 9 -68 19.5t-27 11.5l-10 16q1 7 5 31t8.5 63.5t5.5 73.5l101 7q0 -70 23 -97t78 -27q40 0 64 16.5t24 45.5q0 30 -28.5 50t-88.5 47q-8 4 -15.5 7.5t-13.5 6.5q-72 34 -114 75t-42 107q0 60 36 107t100.5 73t147.5 26q46 0 86 -6t64 -12.5t30 -8.5l9 -17
q-1 -6 -5.5 -29t-10.5 -63.5t-9 -80.5l-93 -7l-10 8l1 27q0 40 -21 58t-66 18q-36 0 -59 -16.5t-23 -43.5q0 -22 17 -39t40 -29.5t72 -34.5q54 -24 90 -46t60.5 -57t24.5 -84q0 -62 -36 -108.5t-102 -71.5t-155 -25q-49 0 -90 9zM167 705l-17 57q72 29 143 61t91 42l14 -6
l30 -89l-6 -15q-21 -5 -93.5 -22t-146.5 -38z" />
    <glyph glyph-name="sacute" unicode="&#x15b;" horiz-adv-x="412" 
d="M100.5 -5.5q-31.5 6.5 -49.5 14t-23 9.5l-8 12q5 33 15 130l66 6q1 -43 23 -67t61 -24q24 0 39.5 10t15.5 26q0 18 -18 31.5t-74 39.5q-61 26 -88.5 59t-27.5 78q0 47 27.5 83t77 56t113.5 20q31 0 57.5 -4t41.5 -8.5t19 -6.5l7 -13q-2 -11 -8.5 -51t-10.5 -82l-67 -4
l1 12q-1 34 -16 50.5t-47 16.5q-23 0 -37.5 -10t-14.5 -27t14 -30.5t45 -27.5q61 -27 93 -49.5t45 -46t13 -56.5q0 -43 -28 -78t-77.5 -55t-110.5 -20q-37 0 -68.5 6.5zM166 526l-37 47q52 52 103.5 105.5t66.5 69.5h14l66 -80l-1 -15q-17 -11 -76 -49.5t-118 -82.5z" />
    <glyph glyph-name="Scircumflex" unicode="&#x15c;" horiz-adv-x="545" 
d="M131 -3q-41 9 -68 19.5t-27 11.5l-10 16q1 7 5 31t8.5 63.5t5.5 73.5l101 7q0 -70 23 -97t78 -27q40 0 64 16.5t24 45.5q0 30 -28.5 50t-88.5 47q-8 4 -15.5 7.5t-13.5 6.5q-72 34 -114 75t-42 107q0 60 36 107t100.5 73t147.5 26q46 0 86 -6t64 -12.5t30 -8.5l9 -17
q-1 -6 -5.5 -29t-10.5 -63.5t-9 -80.5l-93 -7l-10 8l1 27q0 40 -21 58t-66 18q-36 0 -59 -16.5t-23 -43.5q0 -22 17 -39t40 -29.5t72 -34.5q54 -24 90 -46t60.5 -57t24.5 -84q0 -62 -36 -108.5t-102 -71.5t-155 -25q-49 0 -90 9zM136 710l-29 49q49 36 99.5 77t65.5 53h23
q0 2 54 -42q94 -75 110 -88l-28 -49l-19 -6q-41 19 -129 56q-72 -30 -128 -56z" />
    <glyph glyph-name="scircumflex" unicode="&#x15d;" horiz-adv-x="412" 
d="M100.5 -5.5q-31.5 6.5 -49.5 14t-23 9.5l-8 12q5 33 15 130l66 6q1 -43 23 -67t61 -24q24 0 39.5 10t15.5 26q0 18 -18 31.5t-74 39.5q-61 26 -88.5 59t-27.5 78q0 47 27.5 83t77 56t113.5 20q31 0 57.5 -4t41.5 -8.5t19 -6.5l7 -13q-2 -11 -8.5 -51t-10.5 -82l-67 -4
l1 12q-1 34 -16 50.5t-47 16.5q-23 0 -37.5 -10t-14.5 -27t14 -30.5t45 -27.5q61 -27 93 -49.5t45 -46t13 -56.5q0 -43 -28 -78t-77.5 -55t-110.5 -20q-37 0 -68.5 6.5zM80 538l-36 50q47 42 95.5 91t62.5 64h23q14 -15 63 -64t95 -91l-36 -50l-19 -5q-36 27 -115 77
q-85 -55 -114 -77z" />
    <glyph glyph-name="Scedilla" unicode="&#x15e;" horiz-adv-x="545" 
d="M131 -3q-41 9 -68 19.5t-27 11.5l-10 16q1 7 5 31t8.5 63.5t5.5 73.5l101 7q0 -70 23 -97t78 -27q40 0 64 16.5t24 45.5q0 30 -28.5 50t-88.5 47q-8 4 -15.5 7.5t-13.5 6.5q-72 34 -114 75t-42 107q0 60 36 107t100.5 73t147.5 26q46 0 86 -6t64 -12.5t30 -8.5l9 -17
q-1 -6 -5.5 -29t-10.5 -63.5t-9 -80.5l-93 -7l-10 8l1 27q0 40 -21 58t-66 18q-36 0 -59 -16.5t-23 -43.5q0 -22 17 -39t40 -29.5t72 -34.5q54 -24 90 -46t60.5 -57t24.5 -84q0 -62 -36 -108.5t-102 -71.5t-155 -25q-49 0 -90 9zM178 -226q-26 13 -26 34q0 10 13 29t29 37h9
q1 -27 14.5 -42t36.5 -15q16 0 26 7.5t10 20.5q0 15 -23 31t-63 38l32 117h55l-19 -73q101 -53 101 -100q0 -26 -19 -48.5t-51 -35.5t-69 -13q-30 0 -56 13z" />
    <glyph glyph-name="scedilla" unicode="&#x15f;" horiz-adv-x="412" 
d="M100.5 -5.5q-31.5 6.5 -49.5 14t-23 9.5l-8 12q5 33 15 130l66 6q1 -43 23 -67t61 -24q24 0 39.5 10t15.5 26q0 18 -18 31.5t-74 39.5q-61 26 -88.5 59t-27.5 78q0 47 27.5 83t77 56t113.5 20q31 0 57.5 -4t41.5 -8.5t19 -6.5l7 -13q-2 -11 -8.5 -51t-10.5 -82l-67 -4
l1 12q-1 34 -16 50.5t-47 16.5q-23 0 -37.5 -10t-14.5 -27t14 -30.5t45 -27.5q61 -27 93 -49.5t45 -46t13 -56.5q0 -43 -28 -78t-77.5 -55t-110.5 -20q-37 0 -68.5 6.5zM109 -226q-26 13 -26 34q0 10 13 29t29 37h9q1 -27 14.5 -42t36.5 -15q16 0 26 7.5t10 20.5
q0 15 -23 31t-63 38l32 117h55l-19 -73q101 -53 101 -100q0 -26 -19 -48.5t-51 -35.5t-69 -13q-30 0 -56 13z" />
    <glyph glyph-name="Scaron" unicode="&#x160;" horiz-adv-x="545" 
d="M131 -3q-41 9 -68 19.5t-27 11.5l-10 16q1 7 5 31t8.5 63.5t5.5 73.5l101 7q0 -70 23 -97t78 -27q40 0 64 16.5t24 45.5q0 30 -28.5 50t-88.5 47q-8 4 -15.5 7.5t-13.5 6.5q-72 34 -114 75t-42 107q0 60 36 107t100.5 73t147.5 26q46 0 86 -6t64 -12.5t30 -8.5l9 -17
q-1 -6 -5.5 -29t-10.5 -63.5t-9 -80.5l-93 -7l-10 8l1 27q0 40 -21 58t-66 18q-36 0 -59 -16.5t-23 -43.5q0 -22 17 -39t40 -29.5t72 -34.5q54 -24 90 -46t60.5 -57t24.5 -84q0 -62 -36 -108.5t-102 -71.5t-155 -25q-49 0 -90 9zM155.5 746q-50.5 41 -98.5 77l28 50l19 5
q41 -19 129 -56q72 30 128 56l19 -5l29 -50q-49 -36 -99.5 -77t-65.5 -53h-23q-15 12 -65.5 53z" />
    <glyph glyph-name="scaron" unicode="&#x161;" horiz-adv-x="412" 
d="M100.5 -5.5q-31.5 6.5 -49.5 14t-23 9.5l-8 12q5 33 15 130l66 6q1 -43 23 -67t61 -24q24 0 39.5 10t15.5 26q0 18 -18 31.5t-74 39.5q-61 26 -88.5 59t-27.5 78q0 47 27.5 83t77 56t113.5 20q31 0 57.5 -4t41.5 -8.5t19 -6.5l7 -13q-2 -11 -8.5 -51t-10.5 -82l-67 -4
l1 12q-1 34 -16 50.5t-47 16.5q-23 0 -37.5 -10t-14.5 -27t14 -30.5t45 -27.5q61 -27 93 -49.5t45 -46t13 -56.5q0 -43 -28 -78t-77.5 -55t-110.5 -20q-37 0 -68.5 6.5zM144 582.5q-49 49.5 -96 93.5l36 50l18 5q47 -35 117 -79q71 45 116 79l19 -5l37 -50
q-48 -44 -97.5 -93.5t-63.5 -64.5h-23q-14 15 -63 64.5z" />
    <glyph glyph-name="uni0162" unicode="&#x162;" horiz-adv-x="579" 
d="M109 70q44 4 64 12t27.5 26.5t7.5 57.5v382q-44 -1 -63 -10t-27.5 -34.5t-14.5 -88.5l-100 -7q8 117 10 235l12 12l108 -11h312l111 11l11 -12q4 -155 8 -228l-100 -7q-7 69 -14.5 95.5t-25 35t-60.5 9.5q-8 -200 -8 -403q0 -37 12.5 -52.5t41.5 -15.5q21 0 52 3l4 -6
l-9 -79q-147 5 -186 5q-69 0 -181 -7zM209 -226q-26 13 -26 34q0 10 13 29t29 37h9q1 -27 14.5 -42t36.5 -15q16 0 26 7.5t10 20.5q0 15 -23 31t-63 38l32 117h55l-19 -73q101 -53 101 -100q0 -26 -19 -48.5t-51 -35.5t-69 -13q-30 0 -56 13z" />
    <glyph glyph-name="uni0163" unicode="&#x163;" horiz-adv-x="333" 
d="M62 112v211q0 33 -10.5 44t-42.5 12l-12 8l7 58q43 20 85.5 46t70.5 45t35 25l32 -18q-1 -6 -5 -31.5t-8 -61.5l103 3l5 -5l-11 -76l-104 3q-5 -90 -5 -200q0 -38 13.5 -56t43.5 -18q16 0 33 5t22 7l14 -36q-7 -7 -30 -28t-50 -41t-43 -20q-143 0 -143 124zM112 -226
q-26 13 -26 34q0 10 13 29t29 37h9q1 -27 14.5 -42t36.5 -15q16 0 26 7.5t10 20.5q0 15 -23 31t-63 38l32 117h55l-19 -73q101 -53 101 -100q0 -26 -19 -48.5t-51 -35.5t-69 -13q-30 0 -56 13z" />
    <glyph glyph-name="Tcaron" unicode="&#x164;" horiz-adv-x="579" 
d="M109 70q44 4 64 12t27.5 26.5t7.5 57.5v382q-44 -1 -63 -10t-27.5 -34.5t-14.5 -88.5l-100 -7q8 117 10 235l12 12l108 -11h312l111 11l11 -12q4 -155 8 -228l-100 -7q-7 69 -14.5 95.5t-25 35t-60.5 9.5q-8 -200 -8 -403q0 -37 12.5 -52.5t41.5 -15.5q21 0 52 3l4 -6
l-9 -79q-147 5 -186 5q-69 0 -181 -7zM215.5 746q-50.5 41 -98.5 77l28 50l19 5q41 -19 129 -56q72 30 128 56l19 -5l29 -50q-49 -36 -99.5 -77t-65.5 -53h-23q-15 12 -65.5 53z" />
    <glyph glyph-name="tcaron" unicode="&#x165;" horiz-adv-x="379" 
d="M263 506l1 42q0 63 -3.5 119t-5.5 71l114 14l9 -11q-3 -19 -14 -84.5t-26 -133.5l-58 -22zM62 112v211q0 33 -10.5 44t-42.5 12l-12 8l7 58q43 20 85.5 46t70.5 45t35 25l32 -18q-1 -6 -5 -31.5t-8 -61.5l103 3l5 -5l-11 -76l-104 3q-5 -90 -5 -200q0 -38 13.5 -56
t43.5 -18q16 0 33 5t22 7l14 -36q-7 -7 -30 -28t-50 -41t-43 -20q-143 0 -143 124z" />
    <glyph glyph-name="Tbar" unicode="&#x166;" horiz-adv-x="579" 
d="M109 70q44 4 64 12t27.5 26.5t7.5 57.5v382q-44 -1 -63 -10t-27.5 -34.5t-14.5 -88.5l-100 -7q8 117 10 235l12 12l108 -11h312l111 11l11 -12q4 -155 8 -228l-100 -7q-7 69 -14.5 95.5t-25 35t-60.5 9.5q-8 -200 -8 -403q0 -37 12.5 -52.5t41.5 -15.5q21 0 52 3l4 -6
l-9 -79q-147 5 -186 5q-69 0 -181 -7zM89 259l9 66l218 -1q38 0 89.5 2t67.5 3l16 -18l-6 -62h-194l-188 -1z" />
    <glyph glyph-name="tbar" unicode="&#x167;" horiz-adv-x="351" 
d="M338 77q-7 -7 -30 -28t-50 -41t-43 -20q-143 0 -143 124v108l-63 -1l-10 10l7 52l66 -1v43q0 33 -10.5 44t-42.5 12l-12 8l7 58q43 20 85.5 46t70.5 45t35 25l32 -18q-1 -6 -5 -31.5t-8 -61.5l103 3l5 -5l-11 -76l-104 3q-2 -30 -4 -95q35 1 62 2t36 2l14 -14l-5 -49
l-108 -1v-45q0 -38 13.5 -56t43.5 -18q16 0 33 5t22 7z" />
    <glyph glyph-name="Umacron" unicode="&#x16a;" horiz-adv-x="643" 
d="M132.5 40.5q-58.5 52.5 -58.5 161.5v314q0 32 -6 43t-25 11q-9 0 -18 -1t-12 -1l-2 4l9 75q15 -1 60 -2t97 -1q25 0 68 2t57 3l-8 -78q-29 -3 -40 -14.5t-13 -36.5l-6 -291q0 -64 27 -99.5t77 -35.5q51 0 76 27.5t25 84.5l-2 310q-1 32 -7 43t-23 11q-9 0 -17.5 -1
t-11.5 -1l-2 4l9 75q13 0 48.5 -1.5t69.5 -1.5q35 0 76.5 2t53.5 3l-7 -77q-35 -9 -44.5 -17t-9.5 -30v-299q0 -116 -67 -177t-194 -61q-121 0 -179.5 52.5zM187 715l16 89l154 -1q31 0 72 2.5t54 3.5l9 -15l-14 -90l-141 -1l-137 -1z" />
    <glyph glyph-name="umacron" unicode="&#x16b;" horiz-adv-x="549" 
d="M59 367q-7 10 -24 10q-9 0 -16.5 -1t-9.5 -1l7 69q59 8 121 19t80 15l11 -19q-11 -24 -19 -104.5t-8 -170.5q0 -73 54 -73q15 0 31 7t38 21v191q0 28 -7.5 36.5t-32.5 9.5h-14l10 68q59 7 121.5 17.5t80.5 13.5l12 -19q-13 -23 -21.5 -112.5t-8.5 -198.5q0 -17 9 -27.5
t24 -10.5q13 0 27 6t14 7l16 -23q-4 -7 -21 -30t-42 -47t-49 -32q-96 0 -108 75l-9 5q-35 -36 -62 -57.5t-37 -21.5q-82 0 -124.5 33.5t-42.5 96.5l7 213q0 25 -7 35zM117 580l16 90l154 -1q31 0 72 2.5t54 3.5l9 -16l-14 -90l-141 -1l-137 -1z" />
    <glyph glyph-name="Ubreve" unicode="&#x16c;" horiz-adv-x="643" 
d="M132.5 40.5q-58.5 52.5 -58.5 161.5v314q0 32 -6 43t-25 11q-9 0 -18 -1t-12 -1l-2 4l9 75q15 -1 60 -2t97 -1q25 0 68 2t57 3l-8 -78q-29 -3 -40 -14.5t-13 -36.5l-6 -291q0 -64 27 -99.5t77 -35.5q51 0 76 27.5t25 84.5l-2 310q-1 32 -7 43t-23 11q-9 0 -17.5 -1
t-11.5 -1l-2 4l9 75q13 0 48.5 -1.5t69.5 -1.5q35 0 76.5 2t53.5 3l-7 -77q-35 -9 -44.5 -17t-9.5 -30v-299q0 -116 -67 -177t-194 -61q-121 0 -179.5 52.5zM229 735.5q-40 37.5 -56 92.5l32 46l22 5q14 -34 42 -51.5t64 -17.5t64 17.5t42 51.5l22 -5l32 -46
q-15 -55 -55.5 -92.5t-104.5 -37.5t-104 37.5z" />
    <glyph glyph-name="ubreve" unicode="&#x16d;" horiz-adv-x="549" 
d="M59 367q-7 10 -24 10q-9 0 -16.5 -1t-9.5 -1l7 69q59 8 121 19t80 15l11 -19q-11 -24 -19 -104.5t-8 -170.5q0 -73 54 -73q15 0 31 7t38 21v191q0 28 -7.5 36.5t-32.5 9.5h-14l10 68q59 7 121.5 17.5t80.5 13.5l12 -19q-13 -23 -21.5 -112.5t-8.5 -198.5q0 -17 9 -27.5
t24 -10.5q13 0 27 6t14 7l16 -23q-4 -7 -21 -30t-42 -47t-49 -32q-96 0 -108 75l-9 5q-35 -36 -62 -57.5t-37 -21.5q-82 0 -124.5 33.5t-42.5 96.5l7 213q0 25 -7 35zM168 560.5q-40 37.5 -56 92.5l32 46l22 5q14 -34 42 -51.5t64 -17.5t64 17.5t42 51.5l22 -5l32 -46
q-15 -55 -55.5 -92.5t-104.5 -37.5t-104 37.5z" />
    <glyph glyph-name="Uring" unicode="&#x16e;" horiz-adv-x="643" 
d="M132.5 40.5q-58.5 52.5 -58.5 161.5v314q0 32 -6 43t-25 11q-9 0 -18 -1t-12 -1l-2 4l9 75q15 -1 60 -2t97 -1q25 0 68 2t57 3l-8 -78q-29 -3 -40 -14.5t-13 -36.5l-6 -291q0 -64 27 -99.5t77 -35.5q51 0 76 27.5t25 84.5l-2 310q-1 32 -7 43t-23 11q-9 0 -17.5 -1
t-11.5 -1l-2 4l9 75q13 0 48.5 -1.5t69.5 -1.5q35 0 76.5 2t53.5 3l-7 -77q-35 -9 -44.5 -17t-9.5 -30v-299q0 -116 -67 -177t-194 -61q-121 0 -179.5 52.5zM263.5 706q-24.5 26 -24.5 70q0 43 28 71.5t74 28.5q48 0 71 -26.5t23 -65.5q0 -43 -28 -73.5t-75 -30.5
q-44 0 -68.5 26zM365.5 747.5q11.5 7.5 11.5 27.5q0 18 -11 28.5t-32 10.5q-18 0 -28 -9.5t-10 -25.5q0 -20 13 -29.5t30 -9.5q15 0 26.5 7.5z" />
    <glyph glyph-name="uring" unicode="&#x16f;" horiz-adv-x="549" 
d="M59 367q-7 10 -24 10q-9 0 -16.5 -1t-9.5 -1l7 69q59 8 121 19t80 15l11 -19q-11 -24 -19 -104.5t-8 -170.5q0 -73 54 -73q15 0 31 7t38 21v191q0 28 -7.5 36.5t-32.5 9.5h-14l10 68q59 7 121.5 17.5t80.5 13.5l12 -19q-13 -23 -21.5 -112.5t-8.5 -198.5q0 -17 9 -27.5
t24 -10.5q13 0 27 6t14 7l16 -23q-4 -7 -21 -30t-42 -47t-49 -32q-96 0 -108 75l-9 5q-35 -36 -62 -57.5t-37 -21.5q-82 0 -124.5 33.5t-42.5 96.5l7 213q0 25 -7 35zM198 568.5q-25 25.5 -25 70.5q0 44 28.5 72t73.5 28q44 0 69 -24.5t25 -67.5q0 -45 -29.5 -74.5
t-73.5 -29.5q-43 0 -68 25.5zM300.5 612.5q10.5 9.5 10.5 25.5q0 18 -11.5 28.5t-31.5 10.5q-18 0 -28 -9t-10 -25q0 -17 12 -28.5t31 -11.5q17 0 27.5 9.5z" />
    <glyph glyph-name="Uhungarumlaut" unicode="&#x170;" horiz-adv-x="643" 
d="M132.5 40.5q-58.5 52.5 -58.5 161.5v314q0 32 -6 43t-25 11q-9 0 -18 -1t-12 -1l-2 4l9 75q15 -1 60 -2t97 -1q25 0 68 2t57 3l-8 -78q-29 -3 -40 -14.5t-13 -36.5l-6 -291q0 -64 27 -99.5t77 -35.5q51 0 76 27.5t25 84.5l-2 310q-1 32 -7 43t-23 11q-9 0 -17.5 -1
t-11.5 -1l-2 4l9 75q13 0 48.5 -1.5t69.5 -1.5q35 0 76.5 2t53.5 3l-7 -77q-35 -9 -44.5 -17t-9.5 -30v-299q0 -116 -67 -177t-194 -61q-121 0 -179.5 52.5zM188 682l-29 40q47 42 92 85t58 56h14l52 -70l-1 -13q-15 -8 -66 -38.5t-104 -64.5zM369 679l-29 40q55 51 96 90
t54 52l13 -1l53 -69l-1 -14q-15 -8 -67 -38.5t-104 -64.5z" />
    <glyph glyph-name="uhungarumlaut" unicode="&#x171;" horiz-adv-x="549" 
d="M59 367q-7 10 -24 10q-9 0 -16.5 -1t-9.5 -1l7 69q59 8 121 19t80 15l11 -19q-11 -24 -19 -104.5t-8 -170.5q0 -73 54 -73q15 0 31 7t38 21v191q0 28 -7.5 36.5t-32.5 9.5h-14l10 68q59 7 121.5 17.5t80.5 13.5l12 -19q-13 -23 -21.5 -112.5t-8.5 -198.5q0 -17 9 -27.5
t24 -10.5q13 0 27 6t14 7l16 -23q-4 -7 -21 -30t-42 -47t-49 -32q-96 0 -108 75l-9 5q-35 -36 -62 -57.5t-37 -21.5q-82 0 -124.5 33.5t-42.5 96.5l7 213q0 25 -7 35zM274 617q-44 -41 -88 -87h-16l-39 32q37 52 72.5 105.5t45.5 68.5l12 2l69 -55l1 -13q-13 -12 -57 -53z
M427 617q-44 -41 -88 -87h-16l-39 32q43 62 75 110.5t42 63.5l13 2l68 -55l2 -13q-13 -12 -57 -53z" />
    <glyph glyph-name="Uogonek" unicode="&#x172;" horiz-adv-x="643" 
d="M344.5 -214q-33.5 28 -33.5 73q0 26 16.5 53.5t65.5 83.5q-33 -8 -81 -8q-121 0 -179.5 52.5t-58.5 161.5v314q0 32 -6 43t-25 11q-9 0 -18 -1t-12 -1l-2 4l9 75q15 -1 60 -2t97 -1q25 0 68 2t57 3l-8 -78q-29 -3 -40 -14.5t-13 -36.5l-6 -291q0 -64 27 -99.5t77 -35.5
q51 0 76 27.5t25 84.5l-2 310q-1 32 -7 43t-23 11q-9 0 -17.5 -1t-11.5 -1l-2 4l9 75q13 0 48.5 -1.5t69.5 -1.5q35 0 76.5 2t53.5 3l-7 -77q-35 -9 -44.5 -17.5t-9.5 -29.5v-299q0 -49 -15.5 -90.5t-45.5 -85.5q-53 -73 -74.5 -110.5t-21.5 -59.5q0 -14 9 -22.5t24 -8.5
q16 0 34 7t31 16l27 -42q-63 -62 -109 -72q-54 0 -87.5 28z" />
    <glyph glyph-name="uogonek" unicode="&#x173;" horiz-adv-x="549" 
d="M563 -170q-63 -62 -109 -72q-54 0 -87.5 28t-33.5 73q0 25 15.5 52.5t60.5 79.5q-64 10 -75 72l-9 5q-77 -79 -99 -79q-82 0 -124.5 33.5t-42.5 96.5l7 213q0 25 -7 35t-24 10q-9 0 -16.5 -1t-9.5 -1l7 69q59 8 121 19t80 15l11 -19q-11 -25 -19 -106t-8 -169
q0 -73 54 -73q26 0 69 28v191q0 28 -7.5 36.5t-32.5 9.5h-14l10 68q59 7 121.5 17.5t80.5 13.5l12 -19q-13 -23 -21.5 -112.5t-8.5 -198.5q0 -17 9 -27.5t24 -10.5q13 0 27 6t14 7l19 -26q-71 -100 -95 -142.5t-24 -70.5q0 -15 9 -23.5t24 -8.5q16 0 34 7t31 16z" />
    <glyph glyph-name="Wcircumflex" unicode="&#x174;" horiz-adv-x="978" 
d="M135 228q-44 182 -71 278q-9 32 -23.5 47t-40.5 17l-6 8l8 68q13 0 50 -1t76 -1q53 0 105 3t67 4l6 -9l-5 -70q-34 -4 -47.5 -7t-18 -9t-4.5 -20q0 -25 31 -180t43 -210h16q10 27 42.5 145.5t53.5 204.5q0 8 -3 35q-3 22 -17 30t-50 9l-5 8l8 68q16 0 59.5 -1t87.5 -1
q51 0 104 3t68 4l6 -9l-6 -70q-34 -4 -47.5 -7t-17.5 -9t-4 -20q0 -24 30.5 -179t42.5 -211h17q13 36 58.5 206.5t45.5 192.5q0 14 -8.5 19t-32.5 5h-33l-5 8l7 71q14 -1 61 -2.5t84 -1.5q40 0 72 1t43 1l-7 -75q-20 -5 -29 -15t-18 -38l-160 -514l-204 -18q-15 101 -68 327
h-12l-87 -309l-204 -18q-14 60 -58 242zM357 710l-29 49q49 36 99.5 77t65.5 53h23q0 2 54 -42q94 -75 110 -88l-28 -49l-19 -6q-41 19 -129 56q-72 -30 -128 -56z" />
    <glyph glyph-name="wcircumflex" unicode="&#x175;" horiz-adv-x="755" 
d="M98.5 166q-34.5 134 -47.5 178q-8 25 -22.5 37t-36.5 13l-2 5l7 69q10 0 39.5 -1t60.5 -1q42 0 86 3t57 4l2 -5l-9 -71q-29 -4 -36 -8t-7 -18q0 -17 20.5 -113.5t28.5 -130.5h13q10 25 34.5 109.5t35.5 126.5q-4 18 -13 24t-35 6l-3 6l9 69q10 0 39 -1t60 -1q43 0 85 2.5
t54 3.5l2 -5l-10 -70q-29 -5 -36 -9t-7 -17q0 -16 21 -113t29 -131h13q73 221 73 248q0 11 -5.5 14.5t-21.5 3.5h-23l-4 7l9 68q11 0 42.5 -1t67.5 -1l95 1l-8 -73q-23 -3 -31.5 -11.5t-18.5 -38.5l-115 -344l-160 -14q-5 32 -30 141l-19 86h-14l-58 -213l-164 -14
q-12 46 -46.5 180zM252 537l-36 50q47 42 95.5 91t62.5 64h23q14 -15 63 -64t95 -91l-36 -50l-19 -5q-36 27 -115 77q-85 -55 -114 -77z" />
    <glyph glyph-name="Ycircumflex" unicode="&#x176;" horiz-adv-x="625" 
d="M140 68q42 5 61.5 13t26.5 24.5t7 50.5v24q0 25 -6 46t-22 51l-102 195q-21 40 -44 61t-63 32l-4 5l9 76q16 0 58.5 -1.5t79.5 -1.5q31 0 90 3.5t78 4.5l6 -10l-7 -68q-28 -1 -40 -7.5t-12 -20.5q0 -13 25 -70t28 -65l20 -47h12l63 144q14 32 14 46q0 10 -10.5 14.5
t-35.5 5.5l-3 6l8 66q39 0 62 -1l81 -1q31 0 64 1.5t43 2.5l4 -7l-7 -72q-36 -15 -62 -44t-55 -83l-94 -181q-12 -24 -14.5 -47t-2.5 -77q0 -33 10.5 -46t37.5 -13q18 0 31.5 1t18.5 2l4 -6l-9 -79q-21 1 -76 3t-106 2q-37 0 -96.5 -4t-78.5 -6zM194 710l-29 49
q49 36 99.5 77t65.5 53h23q0 2 54 -42q94 -75 110 -88l-28 -49l-19 -6q-41 19 -129 56q-72 -30 -128 -56z" />
    <glyph glyph-name="ycircumflex" unicode="&#x177;" horiz-adv-x="474" 
d="M27 -224q-22 18 -39.5 40.5t-17.5 34.5l9 15q67 8 118.5 39t84.5 82l-22 61q-31 84 -66 176t-52 128q-10 22 -23 30.5t-33 10.5l-2 5l7 68h76q47 0 107 3t60 4l2 -5l-9 -71q-26 -1 -34.5 -6.5t-8.5 -17.5q0 -19 24.5 -105.5t33.5 -116.5h14q78 205 78 225q0 10 -5.5 14
t-20.5 4h-25l-4 6l10 69q11 -1 42 -2t66 -1h96l-8 -72q-22 -5 -31 -13.5t-17 -31.5l-127 -311q-116 -280 -249 -280q-12 0 -34 18zM126 537l-36 50q47 42 95.5 91t62.5 64h23q14 -15 63 -64t95 -91l-36 -50l-19 -5q-36 27 -115 77q-85 -55 -114 -77z" />
    <glyph glyph-name="Ydieresis" unicode="&#x178;" horiz-adv-x="625" 
d="M140 68q42 5 61.5 13t26.5 24.5t7 50.5v24q0 25 -6 46t-22 51l-102 195q-21 40 -44 61t-63 32l-4 5l9 76q16 0 58.5 -1.5t79.5 -1.5q31 0 90 3.5t78 4.5l6 -10l-7 -68q-28 -1 -40 -7.5t-12 -20.5q0 -13 25 -70t28 -65l20 -47h12l63 144q14 32 14 46q0 10 -10.5 14.5
t-35.5 5.5l-3 6l8 66q39 0 62 -1l81 -1q31 0 64 1.5t43 2.5l4 -7l-7 -72q-36 -15 -62 -44t-55 -83l-94 -181q-12 -24 -14.5 -47t-2.5 -77q0 -33 10.5 -46t37.5 -13q18 0 31.5 1t18.5 2l4 -6l-9 -79q-21 1 -76 3t-106 2q-37 0 -96.5 -4t-78.5 -6zM194.5 712
q-17.5 18 -17.5 51q0 34 20.5 55t54.5 21q32 0 50 -18.5t18 -50.5q0 -34 -20.5 -55t-54.5 -21q-33 0 -50.5 18zM378.5 712q-17.5 18 -17.5 51q0 34 20.5 55t54.5 21q32 0 50 -18.5t18 -50.5q0 -34 -20.5 -55t-54.5 -21q-33 0 -50.5 18z" />
    <glyph glyph-name="Zacute" unicode="&#x179;" horiz-adv-x="586" 
d="M12 44l341 514l-106 -9q-43 -6 -64 -17.5t-30 -34.5t-12 -70l-102 -7q2 22 8.5 95.5t7.5 130.5l11 11l179 -11l309 -2l21 -47q-165 -220 -349 -509l134 13q49 6 74.5 40.5t35.5 108.5l102 8q-2 -11 -6.5 -47t-10.5 -93t-7 -101l-19 -20l-409 6l-78 -9zM238 705l-17 57
q72 29 143 61t91 42l14 -6l30 -89l-6 -15q-21 -5 -93.5 -22t-146.5 -38z" />
    <glyph glyph-name="zacute" unicode="&#x17a;" horiz-adv-x="457" 
d="M255 390l-74 -7q-37 -4 -56 -12t-27 -25t-10 -50l-57 -5q2 18 6 76.5t5 99.5l7 8l131 -8l243 -2l15 -34q-74 -100 -142 -198t-106 -157l86 9q44 6 66 32t31 84l58 5q-3 -20 -10 -84t-7 -111l-16 -16l-307 6l-58 -6l-21 36zM190 526l-37 47q52 52 103.5 105.5t66.5 69.5
h14l66 -80l-1 -15q-17 -11 -76 -49.5t-118 -82.5z" />
    <glyph glyph-name="Zdotaccent" unicode="&#x17b;" horiz-adv-x="586" 
d="M12 44l341 514l-106 -9q-43 -6 -64 -17.5t-30 -34.5t-12 -70l-102 -7q2 22 8.5 95.5t7.5 130.5l11 11l179 -11l309 -2l21 -47q-165 -220 -349 -509l134 13q49 6 74.5 40.5t35.5 108.5l102 8q-2 -11 -6.5 -47t-10.5 -93t-7 -101l-19 -20l-409 6l-78 -9zM257 711.5
q-21 21.5 -21 59.5q0 41 24.5 65.5t64.5 24.5q38 0 59 -21.5t21 -59.5q0 -41 -24 -65.5t-64 -24.5q-39 0 -60 21.5z" />
    <glyph glyph-name="zdotaccent" unicode="&#x17c;" horiz-adv-x="457" 
d="M255 390l-74 -7q-37 -4 -56 -12t-27 -25t-10 -50l-57 -5q2 18 6 76.5t5 99.5l7 8l131 -8l243 -2l15 -34q-74 -100 -142 -198t-106 -157l86 9q44 6 66 32t31 84l58 5q-3 -20 -10 -84t-7 -111l-16 -16l-307 6l-58 -6l-21 36zM179 567.5q-21 21.5 -21 59.5q0 41 24.5 66
t64.5 25q38 0 59 -22t21 -60q0 -41 -24 -65.5t-64 -24.5q-39 0 -60 21.5z" />
    <glyph glyph-name="Zcaron" unicode="&#x17d;" horiz-adv-x="586" 
d="M12 44l341 514l-106 -9q-43 -6 -64 -17.5t-30 -34.5t-12 -70l-102 -7q2 22 8.5 95.5t7.5 130.5l11 11l179 -11l309 -2l21 -47q-165 -220 -349 -509l134 13q49 6 74.5 40.5t35.5 108.5l102 8q-2 -11 -6.5 -47t-10.5 -93t-7 -101l-19 -20l-409 6l-78 -9zM241.5 746
q-50.5 41 -98.5 77l28 50l19 5q41 -19 129 -56q72 30 128 56l19 -5l29 -50q-49 -36 -99.5 -77t-65.5 -53h-23q-15 12 -65.5 53z" />
    <glyph glyph-name="zcaron" unicode="&#x17e;" horiz-adv-x="457" 
d="M255 390l-74 -7q-37 -4 -56 -12t-27 -25t-10 -50l-57 -5q2 18 6 76.5t5 99.5l7 8l131 -8l243 -2l15 -34q-74 -100 -142 -198t-106 -157l86 9q44 6 66 32t31 84l58 5q-3 -20 -10 -84t-7 -111l-16 -16l-307 6l-58 -6l-21 36zM168 582.5q-49 49.5 -96 93.5l36 50l18 5
q47 -35 117 -79q71 45 116 79l19 -5l37 -50q-48 -44 -97.5 -93.5t-63.5 -64.5h-23q-14 15 -63 64.5z" />
    <glyph glyph-name="uni018F" unicode="&#x18f;" horiz-adv-x="651" 
d="M481 614q71 -41 110 -115.5t39 -171.5q0 -100 -41 -177t-116 -119.5t-173 -42.5q-138 0 -214 82.5t-77 235.5l11 21h424q-5 104 -49 153t-130 49q-42 0 -92.5 -11.5t-91.5 -29.5l-11 4l-20 63q83 55 143 77.5t125 22.5q92 0 163 -41zM407 132.5q31 41.5 37 122.5l-243 -7
q22 -157 122 -157q53 0 84 41.5z" />
    <glyph glyph-name="florin" unicode="&#x192;" horiz-adv-x="431" 
d="M-3 -147.5q-30 14.5 -30 30.5q0 19 12 54.5t24 49.5h16q6 -28 24 -45.5t42 -17.5q25 0 37 22t13 73q4 80 5 120l5 120q-1 16 -7.5 24t-22.5 11t-49 3l-4 6l8 52l79 12l1 19q2 41 22 78q26 57 86 95.5t126 38.5q37 0 66 -8t29 -19q0 -15 -12 -54.5t-21 -52.5l-17 -2
q-23 25 -42 36.5t-39 11.5q-31 0 -43.5 -23t-15.5 -71l-5 -51l119 1l4 -6l-10 -64q-71 0 -118 1l-12 -195q-5 -76 -32 -140q-23 -56 -71.5 -90t-104.5 -34q-32 0 -62 14.5z" />
    <glyph glyph-name="Ohorn" unicode="&#x1a0;" horiz-adv-x="690" 
d="M99.5 72q-76.5 84 -76.5 235q0 108 39 186.5t113 120.5t175 42q40 0 68 -5.5t57 -14.5q4 -1 19.5 -5.5t29.5 -4.5q22 0 35.5 12.5t13.5 33.5q0 15 -8 31.5t-22 28.5l3 14q21 18 43 28t39 10q34 0 54 -23.5t20 -63.5q0 -32 -19.5 -62t-50 -49t-61.5 -19q73 -84 73 -227
q0 -108 -40 -187.5t-114.5 -122t-175.5 -42.5q-138 0 -214.5 84zM426.5 139.5q30.5 48.5 30.5 144.5q0 132 -32.5 195t-99.5 63q-117 0 -117 -191q0 -132 32.5 -196t96.5 -64q59 0 89.5 48.5z" />
    <glyph glyph-name="ohorn" unicode="&#x1a1;" horiz-adv-x="540" 
d="M80 51q-59 63 -59 169q0 78 30 136t85 90t127 32q24 0 44.5 -4.5t49.5 -13.5q33 -11 48 -11q20 0 31 11.5t11 33.5q0 15 -8 31.5t-22 28.5l2 14q41 34 73 36l13 1q11 0 20 -3q24 -7 37.5 -29t13.5 -54q0 -31 -19 -61t-48.5 -49t-60.5 -20q37 -59 37 -143
q0 -78 -30 -136.5t-85.5 -90t-129.5 -31.5q-101 0 -160 63zM309.5 105.5q16.5 28.5 16.5 90.5q0 96 -19.5 139t-60.5 43q-36 0 -52.5 -28t-16.5 -89q0 -97 19.5 -140.5t60.5 -43.5q36 0 52.5 28.5z" />
    <glyph glyph-name="Uhorn" unicode="&#x1af;" horiz-adv-x="674" 
d="M132.5 40.5q-58.5 52.5 -58.5 161.5v314q0 32 -6 43t-25 11q-9 0 -18 -1t-12 -1l-2 4l9 75q15 -1 60 -2t97 -1q25 0 68 2t57 3l-8 -78q-29 -4 -40 -15t-13 -36l-6 -291q0 -64 27 -99.5t77 -35.5q51 0 76 27.5t25 84.5l-2 310q-1 32 -7 43t-23 11q-9 0 -17.5 -1t-11.5 -1
l-2 4l9 75q14 -1 53 -2t80 -1q27 0 39.5 11.5t12.5 34.5q0 17 -8 33.5t-22 28.5l3 14q21 18 42.5 28t38.5 10q34 0 54 -22t20 -59q0 -43 -16 -69.5t-49 -47.5q-39 -23 -50 -37.5t-11 -43.5v-299q0 -116 -67 -177t-194 -61q-121 0 -179.5 52.5z" />
    <glyph glyph-name="uhorn" unicode="&#x1b0;" horiz-adv-x="566" 
d="M59 367q-7 10 -24 10q-9 0 -16.5 -1t-9.5 -1l7 69q59 8 121 19t80 15l11 -19q-11 -24 -19 -104.5t-8 -170.5q0 -38 13 -55.5t41 -17.5q15 0 31 7t38 21v191q0 28 -7.5 36.5t-32.5 9.5h-14l10 68l117 18q25 3 37.5 13.5t12.5 31.5q0 16 -8 32t-22 28l2 14q40 35 73 37h10
q9 0 23 -2q24 -7 37.5 -29t13.5 -54q0 -39 -27.5 -74t-67.5 -49q-17 -90 -17 -265q0 -17 9 -27.5t24 -10.5q13 0 27 6t14 7l16 -23q-4 -7 -21 -30t-42 -47t-49 -32q-96 0 -108 75l-9 5q-34 -36 -61 -57.5t-38 -21.5q-82 0 -124.5 33.5t-42.5 96.5l7 213q0 25 -7 35z" />
    <glyph glyph-name="uni01C4" unicode="&#x1c4;" horiz-adv-x="1274" 
d="M251.5 -5q-50.5 5 -87.5 5q-34 0 -78 -3.5t-57 -5.5l8 79q41 7 55 24t14 59v361q0 32 -6 43t-23 11q-11 0 -20 -1t-12 -1l-8 11l9 70q16 0 57.5 -1.5t79.5 -1.5q45 0 94 2t68 3q155 0 238 -77.5t83 -222.5q0 -107 -43.5 -189t-122.5 -127t-182 -45q-16 2 -66.5 7z
M280 540.5q-5 -5.5 -6 -19.5q-12 -210 -12 -368q0 -37 12.5 -49.5t50.5 -12.5q78 0 116 54.5t38 169.5q0 124 -42.5 177.5t-137.5 53.5q-14 0 -19 -5.5zM700 44l341 514l-106 -9q-43 -6 -64 -17.5t-30 -34.5t-12 -70l-102 -7q2 22 8.5 95.5t7.5 130.5l11 11l179 -11l309 -2
l21 -47q-165 -220 -349 -509l134 13q49 6 74.5 40.5t35.5 108.5l102 8q-2 -11 -6.5 -47t-10.5 -93t-7 -101l-19 -20l-409 6l-78 -9zM929.5 746q-50.5 41 -98.5 77l28 50l19 5q41 -19 129 -56q72 30 128 56l19 -5l29 -50q-49 -36 -99.5 -77t-65.5 -53h-23q-15 12 -65.5 53z
" />
    <glyph glyph-name="uni01C5" unicode="&#x1c5;" horiz-adv-x="1145" 
d="M251.5 -5q-50.5 5 -87.5 5q-34 0 -78 -3.5t-57 -5.5l8 79q41 7 55 24t14 59v361q0 32 -6 43t-23 11q-11 0 -20 -1t-12 -1l-8 11l9 70q16 0 57.5 -1.5t79.5 -1.5q45 0 94 2t68 3q155 0 238 -77.5t83 -222.5q0 -107 -43.5 -189t-122.5 -127t-182 -45q-16 2 -66.5 7z
M280 540.5q-5 -5.5 -6 -19.5q-12 -210 -12 -368q0 -37 12.5 -49.5t50.5 -12.5q78 0 116 54.5t38 169.5q0 124 -42.5 177.5t-137.5 53.5q-14 0 -19 -5.5zM943 390l-74 -7q-37 -4 -56 -12t-27 -25t-10 -50l-57 -5q2 18 6 76.5t5 99.5l7 8l131 -8l243 -2l15 -34
q-74 -100 -142 -198t-106 -157l86 9q44 6 66 32t31 84l58 5q-3 -20 -10 -84t-7 -111l-16 -16l-307 6l-58 -6l-21 36zM856 582.5q-49 49.5 -96 93.5l36 50l18 5q47 -35 117 -79q71 45 116 79l19 -5l37 -50q-48 -44 -97.5 -93.5t-63.5 -64.5h-23q-14 15 -63 64.5z" />
    <glyph glyph-name="uni01C6" unicode="&#x1c6;" horiz-adv-x="993" 
d="M360 6.5q-27 18.5 -32 53.5l-7 3q-94 -71 -111 -71q-88 0 -138.5 59.5t-50.5 163.5q0 77 32 135.5t89.5 91t132.5 32.5q28 0 41 -1v108q0 33 -9 45t-35 12q-7 0 -14 -1t-10 -1l8 71q67 8 135.5 19.5t88.5 15.5l10 -19q-14 -20 -23.5 -186t-9.5 -392q0 -17 7.5 -27.5
t20.5 -10.5t24.5 5.5t14.5 7.5l16 -23q0 -2 -16.5 -26.5t-40 -49t-50.5 -33.5q-46 0 -73 18.5zM284 105q13 5 21.5 10.5t10.5 7.5v241q-2 1 -10 4.5t-21.5 6.5t-29.5 3q-38 0 -59 -32t-21 -92q0 -74 21.5 -114t60.5 -40q14 0 27 5zM791 390l-74 -7q-37 -4 -56 -12t-27 -25
t-10 -50l-57 -5q2 18 6 76.5t5 99.5l7 8l131 -8l243 -2l15 -34q-74 -100 -142 -198t-106 -157l86 9q44 6 66 32t31 84l58 5q-3 -20 -10 -84t-7 -111l-16 -16l-307 6l-58 -6l-21 36zM704 582.5q-49 49.5 -96 93.5l36 50l18 5q47 -35 117 -79q71 45 116 79l19 -5l37 -50
q-48 -44 -97.5 -93.5t-63.5 -64.5h-23q-14 15 -63 64.5z" />
    <glyph glyph-name="uni01C7" unicode="&#x1c7;" horiz-adv-x="877" 
d="M38 68q38 6 52 24.5t14 62.5v363q0 31 -7 41.5t-29 10.5q-9 0 -17 -1t-11 -1l-7 11l8 66l146 -1q29 0 92.5 2.5t84.5 3.5l-9 -82q-35 -4 -51.5 -10t-22.5 -18t-8 -36q-10 -144 -10 -357q0 -32 10 -42.5t41 -10.5q44 0 66 12t32.5 44.5t16.5 99.5l103 11l9 -12
q-3 -20 -11 -92.5t-14 -151.5l-12 -13q-27 1 -116.5 4.5t-170.5 3.5q-59 0 -115 -4t-72 -6zM546 -114l2 12q37 30 56 58t26.5 67t7.5 104v391q0 31 -6.5 41t-27.5 10q-12 0 -23.5 -1t-15.5 -1l-7 11l8 66l131 1q50 0 101 3t66 4l-7 -78q-31 -7 -39.5 -16t-10.5 -38
q-4 -75 -8 -208t-4 -218q0 -98 -51.5 -158t-164.5 -94z" />
    <glyph glyph-name="uni01C8" unicode="&#x1c8;" horiz-adv-x="828" 
d="M38 68q38 6 52 24.5t14 62.5v363q0 31 -7 41.5t-29 10.5q-9 0 -17 -1t-11 -1l-7 11l8 66l146 -1q29 0 92.5 2.5t84.5 3.5l-9 -82q-35 -4 -51.5 -10t-22.5 -18t-8 -36q-10 -144 -10 -357q0 -32 10 -42.5t41 -10.5q44 0 66 12t32.5 44.5t16.5 99.5l103 11l9 -12
q-3 -20 -11 -92.5t-14 -151.5l-12 -13q-27 1 -116.5 4.5t-170.5 3.5q-59 0 -115 -4t-72 -6zM632 582.5q-21 21.5 -21 60.5q0 41 24.5 65.5t64.5 24.5q37 0 58.5 -22t21.5 -60q0 -41 -24 -65.5t-64 -24.5q-39 0 -60 21.5zM545 -210l2 13q43 42 58 90t15 142v286
q0 32 -7.5 44.5t-27.5 12.5q-11 0 -19 -1t-11 -2l7 67q56 8 124 20t88 16l10 -19q-11 -26 -17.5 -146.5t-6.5 -326.5q0 -70 -47.5 -132t-129.5 -100z" />
    <glyph glyph-name="uni01C9" unicode="&#x1c9;" horiz-adv-x="560" 
d="M19 65q29 6 37.5 19.5t8.5 49.5v450q0 27 -4.5 38.5t-18 15t-45.5 2.5l-5 6l7 62q133 17 232 34l8 -22q-33 -87 -33 -611q0 -22 6 -30.5t20 -8.5l33 1l3 -6l-11 -69q-86 4 -128 4q-45 0 -119 -7zM364 582.5q-21 21.5 -21 60.5q0 41 24.5 65.5t64.5 24.5q37 0 58.5 -22
t21.5 -60q0 -41 -24 -65.5t-64 -24.5q-39 0 -60 21.5zM277 -210l2 13q43 42 58 90t15 142v286q0 32 -7.5 44.5t-27.5 12.5q-11 0 -19 -1t-11 -2l7 67q56 8 124 20t88 16l10 -19q-11 -26 -17.5 -146.5t-6.5 -326.5q0 -70 -47.5 -132t-129.5 -100z" />
    <glyph glyph-name="uni01CA" unicode="&#x1ca;" horiz-adv-x="1068" 
d="M343.5 231q-74.5 113 -95.5 144h-12l1 -254q0 -27 8 -37.5t28 -10.5q11 0 23 1.5t16 1.5l7 -7l-10 -73q-16 1 -57.5 2.5t-81.5 1.5q-38 0 -80.5 -3.5t-55.5 -4.5l9 77q30 4 43.5 18.5t14.5 44.5l12 375q0 23 -6 35t-22.5 18t-49.5 10l-10 11l7 68q12 -1 52 -3t77 -2
q30 0 65 1.5t45 2.5q71 -119 153 -246.5t82 -125.5h12l-2 250q-1 25 -8.5 34t-24.5 9h-33l-5 9l7 70q16 -1 58.5 -2.5t85.5 -1.5q33 0 73.5 1.5t53.5 2.5l-5 -76q-33 -4 -46.5 -18.5t-14.5 -44.5l-13 -517l-140 -13q-86 139 -160.5 252zM737 -114l2 12q37 30 56 58t26.5 67
t7.5 104v391q0 31 -6.5 41t-27.5 10q-12 0 -23.5 -1t-15.5 -1l-7 11l8 66l131 1q50 0 101 3t66 4l-7 -78q-31 -7 -39.5 -16t-10.5 -38q-4 -75 -8 -208t-4 -218q0 -98 -51.5 -158t-164.5 -94z" />
    <glyph glyph-name="uni01CB" unicode="&#x1cb;" horiz-adv-x="1019" 
d="M343.5 231q-74.5 113 -95.5 144h-12l1 -254q0 -27 8 -37.5t28 -10.5q11 0 23 1.5t16 1.5l7 -7l-10 -73q-16 1 -57.5 2.5t-81.5 1.5q-38 0 -80.5 -3.5t-55.5 -4.5l9 77q30 4 43.5 18.5t14.5 44.5l12 375q0 23 -6 35t-22.5 18t-49.5 10l-10 11l7 68q12 -1 52 -3t77 -2
q30 0 65 1.5t45 2.5q71 -119 153 -246.5t82 -125.5h12l-2 250q-1 25 -8.5 34t-24.5 9h-33l-5 9l7 70q16 -1 58.5 -2.5t85.5 -1.5q33 0 73.5 1.5t53.5 2.5l-5 -76q-33 -4 -46.5 -18.5t-14.5 -44.5l-13 -517l-140 -13q-86 139 -160.5 252zM823 582.5q-21 21.5 -21 60.5
q0 41 24.5 65.5t64.5 24.5q37 0 58.5 -22t21.5 -60q0 -41 -24 -65.5t-64 -24.5q-39 0 -60 21.5zM736 -210l2 13q43 42 58 90t15 142v286q0 32 -7.5 44.5t-27.5 12.5q-11 0 -19 -1t-11 -2l7 67q56 8 124 20t88 16l10 -19q-11 -26 -17.5 -146.5t-6.5 -326.5q0 -70 -47.5 -132
t-129.5 -100z" />
    <glyph glyph-name="uni01CC" unicode="&#x1cc;" horiz-adv-x="856" 
d="M346.5 83.5q9.5 11.5 10.5 35.5l2 158q1 42 -12.5 60.5t-42.5 18.5q-28 0 -69 -30l-3 -62q-8 -130 -8 -152t6 -30.5t22 -8.5l22 1l2 -5l-11 -73q-12 1 -45 2.5t-67 1.5q-36 0 -76.5 -2t-52.5 -3l10 73q29 2 40 14t11 40v194q0 35 -9.5 47t-38.5 12h-15l-4 6l7 63
q63 9 125.5 20t80.5 14l11 -11q-2 -6 -6 -27.5t-6 -42.5l5 -4q33 31 69 58t51 27q76 0 116.5 -34t40.5 -96q0 -28 -9 -111q-10 -100 -10 -124q0 -23 6.5 -32.5t22.5 -9.5l28 1l2 -4l-10 -72q-13 1 -47.5 2.5t-69.5 1.5q-24 0 -64 -2.5t-53 -3.5l7 73q22 5 31.5 16.5z
M660 582.5q-21 21.5 -21 60.5q0 41 24.5 65.5t64.5 24.5q37 0 58.5 -22t21.5 -60q0 -41 -24 -65.5t-64 -24.5q-39 0 -60 21.5zM573 -210l2 13q43 42 58 90t15 142v286q0 32 -7.5 44.5t-27.5 12.5q-11 0 -19 -1t-11 -2l7 67q56 8 124 20t88 16l10 -19q-11 -26 -17.5 -146.5
t-6.5 -326.5q0 -70 -47.5 -132t-129.5 -100z" />
    <glyph glyph-name="uni01CD" unicode="&#x1cd;" horiz-adv-x="648" 
d="M332 1l5 71q34 3 48 6t19 9t5 20q0 3 -4 27l-15 60q-52 2 -85 2q-23 0 -67 -4l-22 -2l-18 -62q-5 -22 -5 -28q0 -15 8.5 -20.5t31.5 -5.5h36l6 -8l-8 -71q-15 1 -62.5 2.5t-86.5 1.5l-126 -1l7 75q21 4 35 18.5t24 42.5l170 505l203 16l13 -8q15 -59 61.5 -238t73.5 -268
q10 -35 25.5 -50.5t44.5 -17.5l6 -9l-8 -67q-14 0 -51.5 1t-78.5 1q-56 0 -110 -2.5t-69 -3.5zM306 292q5 0 65 3l-48 202h-17l-62 -205h62zM251.5 746q-50.5 41 -98.5 77l28 50l19 5q41 -19 129 -56q72 30 128 56l19 -5l29 -50q-49 -36 -99.5 -77t-65.5 -53h-23
q-15 12 -65.5 53z" />
    <glyph glyph-name="uni01CE" unicode="&#x1ce;" horiz-adv-x="485" 
d="M313 7q-27 19 -31 56l-10 4q-31 -31 -61.5 -53t-49.5 -22q-39 0 -71.5 20.5t-51 56.5t-18.5 79q0 32 17 55.5t44 29.5l194 41v14q0 39 -22 60.5t-62 21.5q-26 0 -58 -13.5t-58 -31.5l-10 5l-21 69q55 30 112 54.5t82 24.5q94 0 137.5 -39t43.5 -101q0 -14 -10 -92
q-1 -12 -6 -49t-5 -52q0 -17 9 -27.5t24 -10.5q19 0 42 13l16 -23q-20 -37 -49 -70t-53 -39q-47 0 -74 19zM239.5 107.5q17.5 5.5 31.5 13.5l2 90l-91 -23q-12 -3 -17 -9.5t-5 -18.5q0 -25 13.5 -41.5t35.5 -16.5q13 0 30.5 5.5zM156 583.5q-49 49.5 -96 93.5l36 50l18 5
q47 -35 117 -79q71 45 116 79l19 -5l37 -50q-48 -44 -97.5 -93.5t-63.5 -64.5h-23q-14 15 -63 64.5z" />
    <glyph glyph-name="uni01CF" unicode="&#x1cf;" horiz-adv-x="367" 
d="M35 66q42 9 55.5 25t13.5 58l1 369q0 31 -7.5 41.5t-28.5 10.5q-15 0 -31 -2l-7 11l8 66l148 -1q28 0 89 3l66 3l-6 -76q-37 -5 -48.5 -15t-13.5 -39q-11 -213 -11 -377q0 -42 7 -55.5t29 -13.5q23 0 38 3l6 -8l-9 -73q-98 4 -156 4q-48 0 -151 -7zM106.5 746
q-50.5 41 -98.5 77l28 50l19 5q41 -19 129 -56q72 30 128 56l19 -5l29 -50q-49 -36 -99.5 -77t-65.5 -53h-23q-15 12 -65.5 53z" />
    <glyph glyph-name="uni01D0" unicode="&#x1d0;" horiz-adv-x="298" 
d="M28 64q29 4 43 18.5t14 42.5v196q0 33 -9.5 45t-35.5 12q-7 0 -14 -1.5t-9 -2.5l7 69q65 8 130 19.5t84 15.5l11 -19q-11 -22 -17.5 -115.5t-6.5 -234.5q0 -21 6 -29.5t22 -8.5q8 0 16 1t11 1l2 -4l-10 -73q-13 1 -48.5 2.5t-73.5 1.5q-33 0 -76 -4.5t-56 -6.5zM79 582.5
q-49 49.5 -96 93.5l36 50l18 5q47 -35 117 -79q71 45 116 79l19 -5l37 -50q-48 -44 -97.5 -93.5t-63.5 -64.5h-23q-14 15 -63 64.5z" />
    <glyph glyph-name="uni01D1" unicode="&#x1d1;" horiz-adv-x="666" 
d="M99.5 72q-76.5 84 -76.5 235q0 108 39 186.5t113 120.5t175 42q142 0 218 -82t76 -234q0 -108 -40 -187.5t-114.5 -122t-175.5 -42.5q-138 0 -214.5 84zM426.5 139.5q30.5 48.5 30.5 144.5q0 132 -32.5 195t-99.5 63q-117 0 -117 -191q0 -132 32.5 -196t96.5 -64
q59 0 89.5 48.5zM251.5 746q-50.5 41 -98.5 77l28 50l19 5q41 -19 129 -56q72 30 128 56l19 -5l29 -50q-49 -36 -99.5 -77t-65.5 -53h-23q-15 12 -65.5 53z" />
    <glyph glyph-name="uni01D2" unicode="&#x1d2;" horiz-adv-x="506" 
d="M89.5 51q-59.5 63 -59.5 169q0 78 30.5 136.5t86 90t129.5 31.5q103 0 161 -61t58 -171q0 -78 -30 -136.5t-86 -90t-130 -31.5q-100 0 -159.5 63zM318.5 105q16.5 28 16.5 91q0 95 -19.5 138.5t-59.5 43.5q-36 0 -52.5 -28t-16.5 -89q0 -97 19.5 -140.5t59.5 -43.5
q36 0 52.5 28zM190 582.5q-49 49.5 -96 93.5l36 50l18 5q47 -35 117 -79q71 45 116 79l19 -5l37 -50q-48 -44 -97.5 -93.5t-63.5 -64.5h-23q-14 15 -63 64.5z" />
    <glyph glyph-name="uni01D3" unicode="&#x1d3;" horiz-adv-x="643" 
d="M132.5 40.5q-58.5 52.5 -58.5 161.5v314q0 32 -6 43t-25 11q-9 0 -18 -1t-12 -1l-2 4l9 75q15 -1 60 -2t97 -1q25 0 68 2t57 3l-8 -78q-29 -3 -40 -14.5t-13 -36.5l-6 -291q0 -64 27 -99.5t77 -35.5q51 0 76 27.5t25 84.5l-2 310q-1 32 -7 43t-23 11q-9 0 -17.5 -1
t-11.5 -1l-2 4l9 75q13 0 48.5 -1.5t69.5 -1.5q35 0 76.5 2t53.5 3l-7 -77q-35 -9 -44.5 -17t-9.5 -30v-299q0 -116 -67 -177t-194 -61q-121 0 -179.5 52.5zM260.5 746q-50.5 41 -98.5 77l28 50l19 5q41 -19 129 -56q72 30 128 56l19 -5l29 -50q-49 -36 -99.5 -77t-65.5 -53
h-23q-15 12 -65.5 53z" />
    <glyph glyph-name="uni01D4" unicode="&#x1d4;" horiz-adv-x="549" 
d="M59 367q-7 10 -24 10q-9 0 -16.5 -1t-9.5 -1l7 69q59 8 121 19t80 15l11 -19q-11 -24 -19 -104.5t-8 -170.5q0 -73 54 -73q15 0 31 7t38 21v191q0 28 -7.5 36.5t-32.5 9.5h-14l10 68q59 7 121.5 17.5t80.5 13.5l12 -19q-13 -23 -21.5 -112.5t-8.5 -198.5q0 -17 9 -27.5
t24 -10.5q13 0 27 6t14 7l16 -23q-4 -7 -21 -30t-42 -47t-49 -32q-96 0 -108 75l-9 5q-35 -36 -62 -57.5t-37 -21.5q-82 0 -124.5 33.5t-42.5 96.5l7 213q0 25 -7 35zM198 582.5q-49 49.5 -96 93.5l36 50l18 5q47 -35 117 -79q71 45 116 79l19 -5l37 -50
q-48 -44 -97.5 -93.5t-63.5 -64.5h-23q-14 15 -63 64.5z" />
    <glyph glyph-name="uni01D5" unicode="&#x1d5;" horiz-adv-x="643" 
d="M132.5 40.5q-58.5 52.5 -58.5 161.5v314q0 32 -6 43t-25 11q-9 0 -18 -1t-12 -1l-2 4l9 75q15 -1 60 -2t97 -1q25 0 68 2t57 3l-8 -78q-29 -3 -40 -14.5t-13 -36.5l-6 -291q0 -64 27 -99.5t77 -35.5q51 0 76 27.5t25 84.5l-2 310q-1 32 -7 43t-23 11q-9 0 -17.5 -1
t-11.5 -1l-2 4l9 75q13 0 48.5 -1.5t69.5 -1.5q35 0 76.5 2t53.5 3l-7 -77q-35 -9 -44.5 -17t-9.5 -30v-299q0 -116 -67 -177t-194 -61q-121 0 -179.5 52.5zM187 888l16 90l154 -1q31 0 72 2.5t54 3.5l9 -16l-14 -90l-141 -1l-137 -1zM189.5 705q-17.5 18 -17.5 51
q0 34 20.5 55t54.5 21q32 0 50 -18.5t18 -50.5q0 -34 -20.5 -55t-54.5 -21q-33 0 -50.5 18zM373.5 705q-17.5 18 -17.5 51q0 34 20.5 55t54.5 21q32 0 50 -18.5t18 -50.5q0 -34 -20.5 -55t-54.5 -21q-33 0 -50.5 18z" />
    <glyph glyph-name="uni01D6" unicode="&#x1d6;" horiz-adv-x="549" 
d="M59 367q-7 10 -24 10q-9 0 -16.5 -1t-9.5 -1l7 69q59 8 121 19t80 15l11 -19q-11 -24 -19 -104.5t-8 -170.5q0 -73 54 -73q15 0 31 7t38 21v191q0 28 -7.5 36.5t-32.5 9.5h-14l10 68q59 7 121.5 17.5t80.5 13.5l12 -19q-13 -23 -21.5 -112.5t-8.5 -198.5q0 -17 9 -27.5
t24 -10.5q13 0 27 6t14 7l16 -23q-4 -7 -21 -30t-42 -47t-49 -32q-96 0 -108 75l-9 5q-35 -36 -62 -57.5t-37 -21.5q-82 0 -124.5 33.5t-42.5 96.5l7 213q0 25 -7 35zM123 722l16 90l154 -1q31 0 72 2.5t54 3.5l9 -16l-14 -90l-141 -1l-137 -1zM125.5 539q-17.5 18 -17.5 51
q0 34 20.5 55t54.5 21q32 0 50 -18.5t18 -50.5q0 -34 -20.5 -55t-54.5 -21q-33 0 -50.5 18zM309.5 539q-17.5 18 -17.5 51q0 34 20.5 55t54.5 21q32 0 50 -18.5t18 -50.5q0 -34 -20.5 -55t-54.5 -21q-33 0 -50.5 18z" />
    <glyph glyph-name="uni01D7" unicode="&#x1d7;" horiz-adv-x="643" 
d="M132.5 40.5q-58.5 52.5 -58.5 161.5v314q0 32 -6 43t-25 11q-9 0 -18 -1t-12 -1l-2 4l9 75q15 -1 60 -2t97 -1q25 0 68 2t57 3l-8 -78q-29 -3 -40 -14.5t-13 -36.5l-6 -291q0 -64 27 -99.5t77 -35.5q51 0 76 27.5t25 84.5l-2 310q-1 32 -7 43t-23 11q-9 0 -17.5 -1
t-11.5 -1l-2 4l9 75q13 0 48.5 -1.5t69.5 -1.5q35 0 76.5 2t53.5 3l-7 -77q-35 -9 -44.5 -17t-9.5 -30v-299q0 -116 -67 -177t-194 -61q-121 0 -179.5 52.5zM213 869l-17 57q71 29 142.5 61t91.5 42l14 -6l30 -90l-6 -14q-21 -5 -93.5 -22.5t-146.5 -38.5zM189.5 711
q-17.5 18 -17.5 51q0 34 20.5 55t54.5 21q32 0 50 -18.5t18 -50.5q0 -34 -20.5 -55t-54.5 -21q-33 0 -50.5 18zM373.5 711q-17.5 18 -17.5 51q0 34 20.5 55t54.5 21q32 0 50 -18.5t18 -50.5q0 -34 -20.5 -55t-54.5 -21q-33 0 -50.5 18z" />
    <glyph glyph-name="uni01D8" unicode="&#x1d8;" horiz-adv-x="549" 
d="M59 367q-7 10 -24 10q-9 0 -16.5 -1t-9.5 -1l7 69q59 8 121 19t80 15l11 -19q-11 -24 -19 -104.5t-8 -170.5q0 -73 54 -73q15 0 31 7t38 21v191q0 28 -7.5 36.5t-32.5 9.5h-14l10 68q59 7 121.5 17.5t80.5 13.5l12 -19q-13 -23 -21.5 -112.5t-8.5 -198.5q0 -17 9 -27.5
t24 -10.5q13 0 27 6t14 7l16 -23q-4 -7 -21 -30t-42 -47t-49 -32q-96 0 -108 75l-9 5q-35 -36 -62 -57.5t-37 -21.5q-82 0 -124.5 33.5t-42.5 96.5l7 213q0 25 -7 35zM149 703l-17 57q71 29 142.5 61t91.5 42l14 -6l30 -90l-6 -14q-21 -5 -93.5 -22.5t-146.5 -38.5z
M125.5 545q-17.5 18 -17.5 51q0 34 20.5 55t54.5 21q32 0 50 -18.5t18 -50.5q0 -34 -20.5 -55t-54.5 -21q-33 0 -50.5 18zM309.5 545q-17.5 18 -17.5 51q0 34 20.5 55t54.5 21q32 0 50 -18.5t18 -50.5q0 -34 -20.5 -55t-54.5 -21q-33 0 -50.5 18z" />
    <glyph glyph-name="uni01D9" unicode="&#x1d9;" horiz-adv-x="643" 
d="M132.5 40.5q-58.5 52.5 -58.5 161.5v314q0 32 -6 43t-25 11q-9 0 -18 -1t-12 -1l-2 4l9 75q15 -1 60 -2t97 -1q25 0 68 2t57 3l-8 -78q-29 -3 -40 -14.5t-13 -36.5l-6 -291q0 -64 27 -99.5t77 -35.5q51 0 76 27.5t25 84.5l-2 310q-1 32 -7 43t-23 11q-9 0 -17.5 -1
t-11.5 -1l-2 4l9 75q13 0 48.5 -1.5t69.5 -1.5q35 0 76.5 2t53.5 3l-7 -77q-35 -9 -44.5 -17t-9.5 -30v-299q0 -116 -67 -177t-194 -61q-121 0 -179.5 52.5zM258.5 895q-50.5 41 -98.5 77l28 50l19 5q38 -17 129 -55q66 27 128 55l19 -5l29 -50q-49 -36 -99.5 -77t-65.5 -53
h-23q-15 12 -65.5 53zM189.5 711q-17.5 18 -17.5 51q0 34 20.5 55t54.5 21q32 0 50 -18.5t18 -50.5q0 -34 -20.5 -55t-54.5 -21q-33 0 -50.5 18zM373.5 711q-17.5 18 -17.5 51q0 34 20.5 55t54.5 21q32 0 50 -18.5t18 -50.5q0 -34 -20.5 -55t-54.5 -21q-33 0 -50.5 18z" />
    <glyph glyph-name="uni01DA" unicode="&#x1da;" horiz-adv-x="549" 
d="M59 367q-7 10 -24 10q-9 0 -16.5 -1t-9.5 -1l7 69q59 8 121 19t80 15l11 -19q-11 -24 -19 -104.5t-8 -170.5q0 -73 54 -73q15 0 31 7t38 21v191q0 28 -7.5 36.5t-32.5 9.5h-14l10 68q59 7 121.5 17.5t80.5 13.5l12 -19q-13 -23 -21.5 -112.5t-8.5 -198.5q0 -17 9 -27.5
t24 -10.5q13 0 27 6t14 7l16 -23q-4 -7 -21 -30t-42 -47t-49 -32q-96 0 -108 75l-9 5q-35 -36 -62 -57.5t-37 -21.5q-82 0 -124.5 33.5t-42.5 96.5l7 213q0 25 -7 35zM194.5 729q-50.5 41 -98.5 77l28 50l19 5q38 -17 129 -55q66 27 128 55l19 -5l29 -50q-49 -36 -99.5 -77
t-65.5 -53h-23q-15 12 -65.5 53zM125.5 545q-17.5 18 -17.5 51q0 34 20.5 55t54.5 21q32 0 50 -18.5t18 -50.5q0 -34 -20.5 -55t-54.5 -21q-33 0 -50.5 18zM309.5 545q-17.5 18 -17.5 51q0 34 20.5 55t54.5 21q32 0 50 -18.5t18 -50.5q0 -34 -20.5 -55t-54.5 -21
q-33 0 -50.5 18z" />
    <glyph glyph-name="uni01DB" unicode="&#x1db;" horiz-adv-x="643" 
d="M132.5 40.5q-58.5 52.5 -58.5 161.5v314q0 32 -6 43t-25 11q-9 0 -18 -1t-12 -1l-2 4l9 75q15 -1 60 -2t97 -1q25 0 68 2t57 3l-8 -78q-29 -3 -40 -14.5t-13 -36.5l-6 -291q0 -64 27 -99.5t77 -35.5q51 0 76 27.5t25 84.5l-2 310q-1 32 -7 43t-23 11q-9 0 -17.5 -1
t-11.5 -1l-2 4l9 75q13 0 48.5 -1.5t69.5 -1.5q35 0 76.5 2t53.5 3l-7 -77q-35 -9 -44.5 -17t-9.5 -30v-299q0 -116 -67 -177t-194 -61q-121 0 -179.5 52.5zM298 896.5q-72 17.5 -93 22.5l-6 14l29 90l14 6q20 -10 91.5 -42t142.5 -61l-16 -57l-16 -11q-74 21 -146 38.5z
M189.5 711q-17.5 18 -17.5 51q0 34 20.5 55t54.5 21q32 0 50 -18.5t18 -50.5q0 -34 -20.5 -55t-54.5 -21q-33 0 -50.5 18zM373.5 711q-17.5 18 -17.5 51q0 34 20.5 55t54.5 21q32 0 50 -18.5t18 -50.5q0 -34 -20.5 -55t-54.5 -21q-33 0 -50.5 18z" />
    <glyph glyph-name="uni01DC" unicode="&#x1dc;" horiz-adv-x="549" 
d="M59 367q-7 10 -24 10q-9 0 -16.5 -1t-9.5 -1l7 69q59 8 121 19t80 15l11 -19q-11 -24 -19 -104.5t-8 -170.5q0 -73 54 -73q15 0 31 7t38 21v191q0 28 -7.5 36.5t-32.5 9.5h-14l10 68q59 7 121.5 17.5t80.5 13.5l12 -19q-13 -23 -21.5 -112.5t-8.5 -198.5q0 -17 9 -27.5
t24 -10.5q13 0 27 6t14 7l16 -23q-4 -7 -21 -30t-42 -47t-49 -32q-96 0 -108 75l-9 5q-35 -36 -62 -57.5t-37 -21.5q-82 0 -124.5 33.5t-42.5 96.5l7 213q0 25 -7 35zM234 730.5q-72 17.5 -93 22.5l-6 14l29 90l14 6q20 -10 91.5 -42t142.5 -61l-16 -57l-16 -11
q-74 21 -146 38.5zM125.5 545q-17.5 18 -17.5 51q0 34 20.5 55t54.5 21q32 0 50 -18.5t18 -50.5q0 -34 -20.5 -55t-54.5 -21q-33 0 -50.5 18zM309.5 545q-17.5 18 -17.5 51q0 34 20.5 55t54.5 21q32 0 50 -18.5t18 -50.5q0 -34 -20.5 -55t-54.5 -21q-33 0 -50.5 18z" />
    <glyph glyph-name="Gcaron" unicode="&#x1e6;" horiz-adv-x="648" 
d="M163 27q-68 38 -104 109.5t-36 170.5q0 166 93.5 257.5t264.5 91.5q40 0 84.5 -5.5t75.5 -11.5t40 -8l9 -16q-2 -7 -7.5 -32.5t-11.5 -68t-9 -91.5l-121 -7q0 4 1 18.5t1 36.5q0 40 -19.5 55.5t-67.5 15.5q-78 0 -113 -47t-35 -153q0 -119 36 -179.5t105 -60.5
q22 0 39.5 4.5t27 9t11.5 6.5v81q0 27 -8 36t-31 9l-44 -1l-7 11l12 81l145 -1q32 0 65.5 2t43.5 3l8 -47q-21 -12 -30.5 -28.5t-12.5 -47t-3 -94.5q0 -59 7 -86l-10 -14q0 -1 -32.5 -11t-85.5 -18t-120 -8q-93 0 -161 38zM293.5 746q-50.5 41 -98.5 77l28 50l19 5
q41 -19 129 -56q72 30 128 56l19 -5l29 -50q-49 -36 -99.5 -77t-65.5 -53h-23q-15 12 -65.5 53z" />
    <glyph glyph-name="gcaron" unicode="&#x1e7;" horiz-adv-x="516" 
d="M432 408l-4 -6q39 -42 39 -98q0 -51 -28.5 -91.5t-79.5 -63.5t-116 -23q-38 0 -67 7q-16 -16 -16 -26q0 -18 29 -25.5t89 -13.5q67 -6 112 -15.5t77.5 -34t32.5 -69.5q0 -49 -39 -93t-102.5 -71t-132.5 -27q-85 0 -137.5 40t-52.5 105q24 23 100 65v6q-45 9 -70.5 36
t-29.5 69q33 36 82 69v8q-36 21 -56 56.5t-20 80.5q0 54 27.5 96.5t77 66t112.5 23.5q17 0 62 -5q30 -4 43 -4q41 2 143 35l6 -5l-13 -87q-43 -5 -68 -5zM321 294q0 46 -18 72.5t-53 26.5q-29 0 -44.5 -21.5t-15.5 -70.5q0 -45 16.5 -71t51.5 -26q63 0 63 90zM190.5 -68
q-7.5 -16 -7.5 -31q0 -27 21.5 -41.5t61.5 -14.5q43 0 70 17t27 45q0 14 -10.5 21t-41 13.5t-102.5 17.5q-11 -11 -18.5 -27zM189 582.5q-49 49.5 -96 93.5l36 50l18 5q47 -35 117 -79q71 45 116 79l19 -5l37 -50q-48 -44 -97.5 -93.5t-63.5 -64.5h-23q-14 15 -63 64.5z" />
    <glyph glyph-name="uni01EA" unicode="&#x1ea;" horiz-adv-x="666" 
d="M99.5 72q-76.5 84 -76.5 235q0 108 39 186.5t113 120.5t175 42q142 0 218 -82t76 -234q0 -108 -40 -187.5t-114.5 -122t-175.5 -42.5q-138 0 -214.5 84zM426.5 139.5q30.5 48.5 30.5 144.5q0 132 -32.5 195t-99.5 63q-117 0 -117 -191q0 -132 32.5 -196t96.5 -64
q59 0 89.5 48.5zM299 -214q-34 28 -34 72q0 21 9 41t34 51.5t80 91.5h70q-52 -73 -70 -106t-18 -55q0 -15 8.5 -23.5t24.5 -8.5q14 0 31.5 6.5t33.5 16.5l27 -42q-64 -63 -109 -72q-53 0 -87 28z" />
    <glyph glyph-name="uni01EB" unicode="&#x1eb;" horiz-adv-x="506" 
d="M89.5 51q-59.5 63 -59.5 169q0 78 30.5 136.5t86 90t129.5 31.5q103 0 161 -61t58 -171q0 -78 -30 -136.5t-86 -90t-130 -31.5q-100 0 -159.5 63zM318.5 105q16.5 28 16.5 91q0 95 -19.5 138.5t-59.5 43.5q-36 0 -52.5 -28t-16.5 -89q0 -97 19.5 -140.5t59.5 -43.5
q36 0 52.5 28zM212 -214q-34 28 -34 72q0 21 9 41t34 51.5t80 91.5h70q-52 -73 -70 -106t-18 -55q0 -15 8.5 -23.5t24.5 -8.5q14 0 31.5 6.5t33.5 16.5l27 -42q-64 -63 -109 -72q-53 0 -87 28z" />
    <glyph glyph-name="Aringacute" unicode="&#x1fa;" horiz-adv-x="648" 
d="M332 1l5 71q34 3 48 6t19 9t5 20q0 3 -4 27l-15 60q-52 2 -85 2q-23 0 -67 -4l-22 -2l-18 -62q-5 -22 -5 -28q0 -15 8.5 -20.5t31.5 -5.5h36l6 -8l-8 -71q-15 1 -62.5 2.5t-86.5 1.5l-126 -1l7 75q21 4 35 18.5t24 42.5l170 505l203 16l13 -8q15 -59 61.5 -238t73.5 -268
q10 -35 25.5 -50.5t44.5 -17.5l6 -9l-8 -67q-14 0 -51.5 1t-78.5 1q-56 0 -110 -2.5t-69 -3.5zM306 292q5 0 65 3l-48 202h-17l-62 -205h62zM266.677 698.59q-22.0566 23.4062 -22.0566 63.0186q0 38.7119 25.208 64.3691q25.207 25.6572 66.6191 25.6572
q43.2129 0 63.9199 -23.8564q20.7061 -23.8574 20.7061 -58.9678q0 -38.7119 -25.208 -66.1699q-25.207 -27.458 -67.5195 -27.458q-39.6123 0 -61.6689 23.4072zM358.504 735.951q10.3535 6.75195 10.3535 24.7568q0 16.2051 -9.90332 25.6582
q-9.90234 9.45215 -28.8086 9.45215q-16.2041 0 -25.207 -8.55273q-9.00293 -8.55176 -9.00293 -22.9561q0 -18.0059 11.7031 -26.5586q11.7041 -8.55176 27.0088 -8.55176q13.5039 0 23.8564 6.75195zM225.611 850.475l-15.2998 51.2979q64.7969 26.0986 128.694 54.8975
t81.8975 37.7988l12.5986 -5.40039l26.999 -80.0967l-5.39941 -13.499q-18.8994 -4.5 -84.1465 -19.7998q-65.2471 -15.2988 -131.845 -34.1982z" />
    <glyph glyph-name="aringacute" unicode="&#x1fb;" horiz-adv-x="485" 
d="M313 7q-27 19 -31 56l-10 4q-31 -31 -61.5 -53t-49.5 -22q-39 0 -71.5 20.5t-51 56.5t-18.5 79q0 32 17 55.5t44 29.5l194 41v14q0 39 -22 60.5t-62 21.5q-26 0 -58 -13.5t-58 -31.5l-10 5l-21 69q55 30 112 54.5t82 24.5q94 0 137.5 -39t43.5 -101q0 -14 -10 -92
q-1 -12 -6 -49t-5 -52q0 -17 9 -27.5t24 -10.5q19 0 42 13l16 -23q-20 -37 -49 -70t-53 -39q-47 0 -74 19zM239.5 107.5q17.5 5.5 31.5 13.5l2 90l-91 -23q-12 -3 -17 -9.5t-5 -18.5q0 -25 13.5 -41.5t35.5 -16.5q13 0 30.5 5.5zM181.677 519.59
q-22.0566 23.4062 -22.0566 63.0186q0 38.7119 25.208 64.3691q25.207 25.6572 66.6191 25.6572q43.2129 0 63.9199 -23.8564q20.7061 -23.8574 20.7061 -58.9678q0 -38.7119 -25.208 -66.1699q-25.207 -27.458 -67.5195 -27.458q-39.6123 0 -61.6689 23.4072z
M273.504 556.951q10.3535 6.75195 10.3535 24.7568q0 16.2051 -9.90332 25.6582q-9.90234 9.45215 -28.8086 9.45215q-16.2041 0 -25.207 -8.55273q-9.00293 -8.55176 -9.00293 -22.9561q0 -18.0059 11.7031 -26.5586q11.7041 -8.55176 27.0088 -8.55176
q13.5039 0 23.8564 6.75195zM139.611 672.475l-15.2998 51.2979q64.7969 26.0986 128.694 54.8975t81.8975 37.7988l12.5986 -5.40039l26.999 -80.0967l-5.39941 -13.499q-18.8994 -4.5 -84.1465 -19.7998q-65.2471 -15.2988 -131.845 -34.1982z" />
    <glyph glyph-name="AEacute" unicode="&#x1fc;" horiz-adv-x="899" 
d="M389 85.5q15 8.5 15 31.5q0 17 -3 42l-9 77l-82 -11l-81 -19l-33 -79q-9 -24 -9 -32q0 -13 11 -17t44 -4l22 -7l-6 -72q-21 1 -75 2.5t-104 1.5q-27 0 -48 -1t-28 -1l-5 72q14 3 29.5 20t29.5 45l191 411q-2 14 -8 19.5t-18 5.5q-9 0 -17 -1t-11 -1l-9 11l8 68
q23 -1 98.5 -2t181.5 -1q112 1 204.5 4t125.5 8l10 -13q-3 -16 -11 -73.5t-12 -115.5l-110 -7q0 4 1 15.5t1 22.5q0 27 -8.5 39t-32 16.5t-75.5 4.5q-29 0 -37 -5t-8 -21l22 -160l87 12l98 22l13 -13l-12 -97l-93 -9l-78 -11l16 -103q5 -35 20.5 -51t43.5 -16q51 0 74.5 8
t34.5 31t18 73l102 7l10 -12q-3 -16 -12.5 -73t-15.5 -121l-12 -13q-28 1 -123.5 4t-181.5 3h-40q-51 -1 -100.5 -3.5t-63.5 -3.5l-5 8l4 71q47 5 62 13.5zM384 332l-19 165h-18l-76 -177l56 4zM355 705l-17 57q72 29 143 61t91 42l14 -6l30 -89l-6 -15q-21 -5 -93.5 -22
t-146.5 -38z" />
    <glyph glyph-name="aeacute" unicode="&#x1fd;" horiz-adv-x="678" 
d="M373 12q-50 24 -78 70q-43 -40 -80 -64t-60 -26q-39 0 -71.5 20.5t-51.5 55.5t-19 77q0 35 19 60t51 31l177 32v21q0 39 -21.5 60.5t-61.5 21.5q-25 0 -51 -10t-43.5 -21t-22.5 -15l-10 5l-21 69q11 6 48.5 25t80.5 36.5t65 17.5q78 0 124 -58q58 58 149 58
q76 0 119 -47.5t43 -132.5q0 -13 -1 -21.5t-1 -11.5l-11 -11l-248 -35q8 -61 36.5 -90.5t82.5 -29.5q28 0 54.5 6.5t43.5 14t21 9.5l9 -4l18 -60q0 -1 -31.5 -22t-70 -38t-70.5 -17q-67 0 -117 24zM499 304q16 3 16 13q0 29 -14 47t-37 18q-34 0 -52.5 -21t-19.5 -59v-22z
M235.5 108.5q19.5 7.5 37.5 20.5q-13 37 -13 78l-80 -19q-15 -2 -21.5 -10t-6.5 -22q0 -25 13.5 -40t35.5 -15q15 0 34.5 7.5zM299 526l-37 47q52 52 103.5 105.5t66.5 69.5h14l66 -80l-1 -15q-17 -11 -76 -49.5t-118 -82.5z" />
    <glyph glyph-name="Oslashacute" unicode="&#x1fe;" horiz-adv-x="666" 
d="M621.5 483.5q22.5 -62.5 22.5 -143.5q0 -108 -40 -187.5t-114.5 -122t-175.5 -42.5q-65 0 -119 20l-74 -119l-74 40l-3 10l73 116q-46 41 -70 104.5t-24 147.5q0 108 39 186.5t113 120.5t175 42q71 0 125 -21l66 104l76 -40l3 -13l-65 -100q44 -40 66.5 -102.5z
M426.5 139.5q30.5 48.5 30.5 144.5q0 132 -32.5 195t-99.5 63q-117 0 -117 -191q0 -132 32.5 -196t96.5 -64q59 0 89.5 48.5zM231 713l-17 57q72 29 143 61t91 42l14 -6l30 -89l-6 -15q-21 -5 -93.5 -22t-146.5 -38z" />
    <glyph glyph-name="oslashacute" unicode="&#x1ff;" horiz-adv-x="506" 
d="M501 246q0 -78 -30 -136.5t-86 -90t-130 -31.5q-46 0 -85 14l-81 -128l-74 40l-4 10l83 129q-58 63 -58 167q0 78 30.5 136.5t86 90t129.5 31.5q38 0 71 -9l73 117l76 -39l2 -13l-69 -109q66 -61 66 -179zM324.5 105q16.5 28 16.5 91q0 95 -19.5 138.5t-59.5 43.5
q-36 0 -52.5 -28t-16.5 -89q0 -97 19.5 -140.5t59.5 -43.5q36 0 52.5 28zM210 526l-37 47q52 52 103.5 105.5t66.5 69.5h14l66 -80l-1 -15q-17 -11 -76 -49.5t-118 -82.5z" />
    <glyph glyph-name="uni0200" unicode="&#x200;" horiz-adv-x="648" 
d="M332 1l5 71q34 3 48 6t19 9t5 20q0 3 -4 27l-15 60q-52 2 -85 2q-23 0 -67 -4l-22 -2l-18 -62q-5 -22 -5 -28q0 -15 8.5 -20.5t31.5 -5.5h36l6 -8l-8 -71q-15 1 -62.5 2.5t-86.5 1.5l-126 -1l7 75q21 4 35 18.5t24 42.5l170 505l203 16l13 -8q15 -59 61.5 -238t73.5 -268
q10 -35 25.5 -50.5t44.5 -17.5l6 -9l-8 -67q-14 0 -51.5 1t-78.5 1q-56 0 -110 -2.5t-69 -3.5zM306 292q5 0 65 3l-48 202h-17l-62 -205h62zM348 741.5q-51 30.5 -66 38.5l-1 13l52 70h13q13 -13 54.5 -52t96.5 -89l-30 -40l-15 -5q-53 34 -104 64.5zM167 738.5
q-51 30.5 -66 38.5l-1 14l53 69l13 1q13 -13 54 -52t96 -90l-29 -40l-16 -5q-53 34 -104 64.5z" />
    <glyph glyph-name="uni0201" unicode="&#x201;" horiz-adv-x="492" 
d="M313 7q-27 19 -31 56l-10 4q-31 -31 -61.5 -53t-49.5 -22q-39 0 -71.5 20.5t-51 56.5t-18.5 79q0 32 17 55.5t44 29.5l194 41v14q0 39 -22 60.5t-62 21.5q-26 0 -58 -13.5t-58 -31.5l-10 5l-21 69q55 30 112 54.5t82 24.5q94 0 137.5 -39t43.5 -101q0 -14 -10 -92
q-1 -12 -6 -49t-5 -52q0 -17 9 -27.5t24 -10.5q19 0 42 13l16 -23q-20 -37 -49 -70t-53 -39q-47 0 -74 19zM239.5 107.5q17.5 5.5 31.5 13.5l2 90l-91 -23q-12 -3 -17 -9.5t-5 -18.5q0 -25 13.5 -41.5t35.5 -16.5q13 0 30.5 5.5zM104 618q-44 41 -57 53l1 13l69 55l12 -2
q10 -15 42.5 -63t75.5 -111l-39 -32h-16q-44 46 -88 87zM256 618q-44 41 -57 53l2 13l68 55l13 -2q10 -15 42 -63.5t75 -110.5l-39 -32h-16q-44 46 -88 87z" />
    <glyph glyph-name="uni0202" unicode="&#x202;" horiz-adv-x="648" 
d="M332 1l5 71q34 3 48 6t19 9t5 20q0 3 -4 27l-15 60q-52 2 -85 2q-23 0 -67 -4l-22 -2l-18 -62q-5 -22 -5 -28q0 -15 8.5 -20.5t31.5 -5.5h36l6 -8l-8 -71q-15 1 -62.5 2.5t-86.5 1.5l-126 -1l7 75q21 4 35 18.5t24 42.5l170 505l203 16l13 -8q15 -59 61.5 -238t73.5 -268
q10 -35 25.5 -50.5t44.5 -17.5l6 -9l-8 -67q-14 0 -51.5 1t-78.5 1q-56 0 -110 -2.5t-69 -3.5zM306 292q5 0 65 3l-48 202h-17l-62 -205h62zM260 751.5q-28 -17.5 -42 -51.5l-22 5l-32 46q15 55 55.5 92t104.5 37t104 -37t56 -92l-32 -46l-22 -5q-14 34 -42 51.5t-64 17.5
t-64 -17.5z" />
    <glyph glyph-name="uni0203" unicode="&#x203;" horiz-adv-x="492" 
d="M313 7q-27 19 -31 56l-10 4q-31 -31 -61.5 -53t-49.5 -22q-39 0 -71.5 20.5t-51 56.5t-18.5 79q0 32 17 55.5t44 29.5l194 41v14q0 39 -22 60.5t-62 21.5q-26 0 -58 -13.5t-58 -31.5l-10 5l-21 69q55 30 112 54.5t82 24.5q94 0 137.5 -39t43.5 -101q0 -14 -10 -92
q-1 -12 -6 -49t-5 -52q0 -17 9 -27.5t24 -10.5q19 0 42 13l16 -23q-20 -37 -49 -70t-53 -39q-47 0 -74 19zM239.5 107.5q17.5 5.5 31.5 13.5l2 90l-91 -23q-12 -3 -17 -9.5t-5 -18.5q0 -25 13.5 -41.5t35.5 -16.5q13 0 30.5 5.5zM170 574.5q-28 -17.5 -42 -51.5l-22 5
l-32 46q15 55 55.5 92t104.5 37t104 -37t56 -92l-32 -46l-22 -5q-14 34 -42 51.5t-64 17.5t-64 -17.5z" />
    <glyph glyph-name="uni0204" unicode="&#x204;" horiz-adv-x="599" 
d="M571 200q-18 -95 -28 -194l-12 -13q-180 7 -315 7q-91 0 -189 -10l8 78q40 6 54.5 24.5t14.5 62.5l1 361q0 32 -6 43t-24 11q-15 0 -29 -2l-9 11l9 68h22q159 -3 182 -3q218 0 306 12l10 -13q-8 -39 -14.5 -93t-8.5 -96l-110 -7l2 38q0 27 -8.5 39t-32 16.5t-74.5 4.5
q-29 0 -37 -5t-8 -25l-7 -138l89 -1q24 0 113 7l10 -11l-14 -98q-99 3 -126 3q-21 0 -45 -2.5t-31 -3.5l-2 -117q0 -28 4 -40t15.5 -16t38.5 -4q56 0 82.5 8t38 30.5t18.5 72.5l103 7zM350 744.5q-51 30.5 -66 38.5l-1 13l52 70h13q13 -13 54.5 -52t96.5 -89l-30 -40l-15 -5
q-53 34 -104 64.5zM169 741.5q-51 30.5 -66 38.5l-1 14l53 69l13 1q13 -13 54 -52t96 -90l-29 -40l-16 -5q-53 34 -104 64.5z" />
    <glyph glyph-name="uni0205" unicode="&#x205;" horiz-adv-x="470" 
d="M82.5 50.5q-61.5 62.5 -61.5 173.5q0 73 31 131t86.5 90.5t126.5 32.5q178 0 178 -183q0 -31 -7 -61l-12 -11h-249q2 -60 32.5 -91.5t83.5 -31.5t117 29l9 -4l18 -60q-38 -29 -89 -53t-91 -24q-111 0 -172.5 62.5zM286 294q10 2 13 5.5t3 15.5q0 70 -54 70q-71 0 -75 -98
zM125 617q-44 41 -57 53l1 13l69 55l12 -2q10 -15 42.5 -63t75.5 -111l-39 -32h-16q-44 46 -88 87zM277 617q-44 41 -57 53l2 13l68 55l13 -2q10 -15 42 -63.5t75 -110.5l-39 -32h-16q-44 46 -88 87z" />
    <glyph glyph-name="uni0206" unicode="&#x206;" horiz-adv-x="599" 
d="M571 200q-18 -95 -28 -194l-12 -13q-180 7 -315 7q-91 0 -189 -10l8 78q40 6 54.5 24.5t14.5 62.5l1 361q0 32 -6 43t-24 11q-15 0 -29 -2l-9 11l9 68h22q159 -3 182 -3q218 0 306 12l10 -13q-8 -39 -14.5 -93t-8.5 -96l-110 -7l2 38q0 27 -8.5 39t-32 16.5t-74.5 4.5
q-29 0 -37 -5t-8 -25l-7 -138l89 -1q24 0 113 7l10 -11l-14 -98q-99 3 -126 3q-21 0 -45 -2.5t-31 -3.5l-2 -117q0 -28 4 -40t15.5 -16t38.5 -4q56 0 82.5 8t38 30.5t18.5 72.5l103 7zM262 754.5q-28 -17.5 -42 -51.5l-22 5l-32 46q15 55 55.5 92t104.5 37t104 -37t56 -92
l-32 -46l-22 -5q-14 34 -42 51.5t-64 17.5t-64 -17.5z" />
    <glyph glyph-name="uni0207" unicode="&#x207;" horiz-adv-x="470" 
d="M82.5 50.5q-61.5 62.5 -61.5 173.5q0 73 31 131t86.5 90.5t126.5 32.5q178 0 178 -183q0 -31 -7 -61l-12 -11h-249q2 -60 32.5 -91.5t83.5 -31.5t117 29l9 -4l18 -60q-38 -29 -89 -53t-91 -24q-111 0 -172.5 62.5zM286 294q10 2 13 5.5t3 15.5q0 70 -54 70q-71 0 -75 -98
zM191 573.5q-28 -17.5 -42 -51.5l-22 5l-32 46q15 55 55.5 92t104.5 37t104 -37t56 -92l-32 -46l-22 -5q-14 34 -42 51.5t-64 17.5t-64 -17.5z" />
    <glyph glyph-name="uni0208" unicode="&#x208;" horiz-adv-x="367" 
d="M35 66q42 9 55.5 25t13.5 58l1 369q0 31 -7.5 41.5t-28.5 10.5q-15 0 -31 -2l-7 11l8 66l148 -1q28 0 89 3l66 3l-6 -76q-37 -5 -48.5 -15t-13.5 -39q-11 -213 -11 -377q0 -42 7 -55.5t29 -13.5q23 0 38 3l6 -8l-9 -73q-98 4 -156 4q-48 0 -151 -7zM208 741.5
q-51 30.5 -66 38.5l-1 13l52 70h13q13 -13 54.5 -52t96.5 -89l-30 -40l-15 -5q-53 34 -104 64.5zM27 738.5q-51 30.5 -66 38.5l-1 14l53 69l13 1q13 -13 54 -52t96 -90l-29 -40l-16 -5q-53 34 -104 64.5z" />
    <glyph glyph-name="uni0209" unicode="&#x209;" horiz-adv-x="298" 
d="M28 64q29 4 43 18.5t14 42.5v196q0 33 -9.5 45t-35.5 12q-7 0 -14 -1.5t-9 -2.5l7 69q65 8 130 19.5t84 15.5l11 -19q-11 -22 -17.5 -115.5t-6.5 -234.5q0 -21 6 -29.5t22 -8.5q8 0 16 1t11 1l2 -4l-10 -73q-13 1 -48.5 2.5t-73.5 1.5q-33 0 -76 -4.5t-56 -6.5zM20 617
q-44 41 -57 53l1 13l69 55l12 -2q10 -15 42.5 -63t75.5 -111l-39 -32h-16q-44 46 -88 87zM172 617q-44 41 -57 53l2 13l68 55l13 -2q10 -15 42 -63.5t75 -110.5l-39 -32h-16q-44 46 -88 87z" />
    </font>
</defs>
</svg>
